<svg width="244" height="244" viewBox="0 0 244 244" fill="none" xmlns="http://www.w3.org/2000/svg">
<g clip-path="url(#clip0_28_110)">
<mask id="path-1-inside-1_28_110" fill="white">
<path d="M118.874 0.953104C113.231 2.84029 107.474 6.00467 101.908 10.2747C99.8492 11.8378 98.2289 13.7059 95.7698 17.3469C91.8048 23.199 89.2123 28.8225 87.878 34.5031C87.5348 35.9137 87.2108 37.229 87.1345 37.4006C87.0392 37.6865 86.7342 37.534 85.133 36.5047C79.1283 32.6159 71.3698 29.9853 62.4867 28.8034C60.1801 28.4984 59.6273 28.4984 57.8736 28.7081C50.1151 29.6422 42.3758 31.9678 37.1717 34.9415C35.8564 35.685 35.6848 35.8565 34.9414 37.1719C31.9867 42.3759 29.6611 50.0962 28.708 57.9118C28.4983 59.6275 28.5173 60.1993 28.8033 62.4868C29.9851 71.37 32.6158 79.1284 36.5045 85.1331C37.5339 86.7343 37.6864 87.0393 37.4005 87.1347C37.2289 87.2109 35.9136 87.535 34.503 87.8781C28.8223 89.2125 23.1989 91.805 17.3467 95.77C13.7058 98.229 11.8376 99.8493 10.2745 101.908C6.17608 107.246 2.78296 113.441 0.952959 118.912L-0.076416 122L0.952959 125.107C2.78296 130.54 5.87108 136.221 10.0458 141.787C11.3039 143.464 12.1045 144.284 13.5151 145.409C20.5683 151.032 28.5555 154.959 36.0089 156.503C36.9048 156.694 37.6292 156.942 37.6101 157.037C37.572 157.151 37.0955 157.971 36.5045 158.848C32.673 164.757 29.9851 172.649 28.8033 181.513C28.5173 183.801 28.4983 184.372 28.708 186.088C29.6611 193.885 31.9486 201.51 34.9605 206.885C35.7801 208.353 36.1995 208.677 39.3639 210.183C44.6251 212.68 51.1255 214.472 57.8736 215.292C59.6273 215.502 60.1801 215.502 62.4676 215.197C71.427 213.996 79.0901 211.403 85.133 207.495C86.7342 206.466 87.0392 206.313 87.1345 206.599C87.2108 206.771 87.5348 208.086 87.878 209.497C89.2314 215.197 91.862 220.934 95.827 226.71C99.0867 231.495 100.402 232.81 105.13 236.032C110.2 239.482 114.947 241.827 120.055 243.428L122 244.038L123.963 243.428C128.958 241.884 133.857 239.444 138.87 236.032C143.598 232.81 144.913 231.495 148.173 226.71C152.138 220.934 154.768 215.197 156.122 209.497C156.465 208.086 156.789 206.771 156.865 206.599C156.96 206.313 157.265 206.466 158.867 207.495C164.91 211.403 172.573 213.996 181.532 215.197C183.82 215.502 184.372 215.502 186.126 215.292C190.968 214.701 195.943 213.557 200.061 212.07C202.71 211.117 207.152 209.039 208.01 208.372C208.696 207.819 210.926 203.263 212.07 200.061C213.557 195.924 214.701 190.968 215.292 186.126C215.501 184.372 215.501 183.82 215.196 181.513C214.015 172.649 211.327 164.757 207.495 158.848C206.904 157.971 206.428 157.151 206.39 157.037C206.37 156.942 207.095 156.694 207.991 156.503C215.444 154.959 223.431 151.032 230.465 145.428C234.964 141.863 240.855 132.103 243.428 123.944L244.057 122L243.428 120.037C241.465 113.86 238.09 107.57 233.687 101.851C232.067 99.7731 230.427 98.3434 226.748 95.8462C220.896 91.8622 215.215 89.2315 209.497 87.8781C208.086 87.535 206.771 87.2109 206.599 87.1347C206.313 87.0393 206.466 86.7343 207.495 85.1331C211.384 79.1284 214.015 71.37 215.196 62.4868C215.578 59.6084 215.501 58.3693 214.663 53.68C213.557 47.5419 210.965 40.0694 208.677 36.4665C207.285 34.2553 197.716 30.5953 189.862 29.2609C185.459 28.4984 184.315 28.4412 181.513 28.8034C172.63 29.9853 164.871 32.6159 158.867 36.5047C157.265 37.534 156.96 37.6865 156.865 37.4006C156.789 37.229 156.465 35.9137 156.122 34.5031C154.482 27.6025 150.67 20.13 145.428 13.5344C142.035 9.26435 132.77 3.52654 125.126 0.953104C123.563 0.438417 122.152 -2.09399e-05 122 -2.09399e-05C121.847 -2.09399e-05 120.437 0.438417 118.874 0.953104ZM124.859 9.89342C127.147 10.8084 130.254 12.524 132.198 13.9537C134.238 15.4597 141.139 22.4937 142.568 24.4953C144.055 26.6112 146.152 30.8622 147.048 33.5881C148.23 37.1719 148.706 39.8787 148.821 43.7484C148.954 48.4378 148.687 50.0009 147.22 53.0509C146.552 54.4044 146.209 55.3575 146.324 55.4528C146.419 55.5481 147.029 56.0056 147.677 56.4822C148.706 57.2256 149.05 57.359 150.422 57.5497C151.28 57.6831 152.042 57.7212 152.119 57.6259C152.176 57.5497 152.519 56.5775 152.881 55.51C153.682 52.9937 154.787 51.259 157.227 48.7619C161.593 44.244 167.769 40.6794 173.926 39.0781C177.186 38.2394 178.844 38.1059 185.192 38.1822C190.625 38.2394 191.025 38.2775 193.179 38.7731C195.829 39.3831 198.078 40.1456 200.385 41.2131L202.024 41.9756L202.787 43.6531C203.892 46.0359 204.617 48.19 205.227 50.8206C205.722 52.9937 205.76 53.3559 205.818 58.9031C205.875 63.4018 205.818 65.1747 205.589 66.7378C204.54 73.9815 200.633 81.5493 195.238 86.7725C192.76 89.1743 190.93 90.3562 188.452 91.1378C187.384 91.4618 186.45 91.805 186.374 91.8812C186.279 91.9575 186.317 92.7009 186.431 93.5206C186.66 95.0265 187.06 95.8843 188.242 97.314L188.719 97.8859L190.701 96.8756C193.694 95.3887 194.533 95.2172 199.394 95.2362C203.111 95.2362 203.721 95.2743 205.932 95.7509C209.325 96.4753 212.013 97.4093 215.12 98.9153C218.933 100.783 220.61 102.061 225.033 106.464C230.122 111.516 231.8 113.822 233.82 118.55C235.212 121.771 235.231 121.886 234.488 123.849C233.268 127.09 231.552 130.235 229.646 132.675C228.102 134.677 221.392 141.215 219.543 142.53C213.957 146.476 206.294 148.878 199.222 148.878C195.39 148.878 193.694 148.535 190.949 147.22L188.7 146.133L188.242 146.686C187.06 148.116 186.66 148.973 186.431 150.479C186.317 151.299 186.279 152.023 186.374 152.1C186.45 152.176 187.384 152.519 188.452 152.862C190.949 153.663 192.779 154.845 195.238 157.227C200.633 162.451 204.54 170.018 205.589 177.262C205.818 178.825 205.875 180.598 205.818 185.097C205.76 190.644 205.722 191.006 205.227 193.179C204.617 195.81 203.892 197.964 202.787 200.347L202.024 202.024L200.347 202.787C197.964 203.892 195.81 204.617 193.179 205.227C191.025 205.722 190.625 205.761 185.192 205.818C178.844 205.894 177.186 205.761 173.926 204.922C167.769 203.34 161.593 199.737 157.227 195.238C154.845 192.779 153.663 190.949 152.862 188.452C152.519 187.384 152.176 186.45 152.119 186.374C152.042 186.279 151.28 186.317 150.422 186.45C149.05 186.641 148.706 186.774 147.677 187.518C147.029 187.994 146.419 188.452 146.324 188.547C146.209 188.642 146.552 189.596 147.22 190.949C148.687 193.999 148.954 195.562 148.821 200.252C148.668 205.494 147.62 209.802 145.332 214.625C143.293 218.933 142.13 220.458 137.155 225.414C132.275 230.275 130.082 231.838 125.355 233.878C122.248 235.212 122.114 235.212 120.151 234.488C116.986 233.287 113.841 231.571 111.42 229.722C109.933 228.597 103.28 221.926 102.156 220.458C99.182 216.55 96.9326 211.441 95.7508 205.932C95.2742 203.721 95.2361 203.111 95.2361 199.394C95.217 194.552 95.3886 193.656 96.8373 190.797C97.3711 189.748 97.7905 188.833 97.7905 188.757C97.7905 188.662 97.1995 188.166 96.4561 187.632C95.2551 186.755 94.9692 186.641 93.5776 186.431C92.7198 186.317 91.9573 186.279 91.8811 186.374C91.8048 186.45 91.4617 187.384 91.1376 188.452C90.3561 190.93 89.1742 192.76 86.7723 195.238C82.407 199.737 76.2308 203.34 70.0736 204.922C66.8139 205.761 65.1555 205.894 58.8076 205.818C53.3748 205.761 52.9745 205.722 50.8205 205.227C48.1898 204.617 46.0358 203.892 43.653 202.787L41.9755 202.024L41.213 200.347C40.1073 197.964 39.383 195.81 38.773 193.179C38.2773 191.025 38.2392 190.625 38.182 185.192C38.1058 178.844 38.2392 177.186 39.078 173.926C40.6792 167.769 44.2439 161.593 48.7617 157.227C51.2208 154.845 53.0508 153.663 55.548 152.862C56.6155 152.519 57.5495 152.176 57.6258 152.119C57.7211 152.042 57.683 151.28 57.5495 150.422C57.3589 149.05 57.2255 148.707 56.482 147.677C56.0055 147.029 55.548 146.419 55.4526 146.324C55.3573 146.209 54.4042 146.552 53.0508 147.22C50.3058 148.535 48.6092 148.878 44.7776 148.878C40.908 148.878 37.3242 148.287 33.3592 146.972C30.843 146.152 26.5348 143.998 24.5142 142.568C22.5126 141.139 15.8408 134.619 14.2014 132.484C12.7145 130.54 11.2658 128.043 10.2364 125.603C8.97827 122.648 8.84483 122.152 9.13077 121.199C9.9314 118.55 12.1617 114.203 14.0298 111.706C15.4976 109.743 22.5508 102.823 24.4951 101.432C26.6111 99.9447 30.862 97.8478 33.588 96.9518C34.7317 96.5706 36.7333 96.0368 38.0676 95.7509C40.2789 95.2743 40.8889 95.2362 44.6061 95.2362C49.448 95.2172 50.3439 95.3887 53.2033 96.8375C54.2517 97.3712 55.1667 97.7906 55.243 97.7906C55.3383 97.7906 55.8339 97.1997 56.3676 96.4562C57.2445 95.2553 57.3589 94.9693 57.5686 93.5778C57.683 92.72 57.7211 91.9575 57.6258 91.8812C57.5495 91.805 56.6155 91.4618 55.548 91.1378C53.0698 90.3562 51.2398 89.1743 48.7617 86.7725C44.2439 82.4072 40.6792 76.2309 39.078 70.0737C38.2392 66.814 38.1058 65.1556 38.182 58.8078C38.2392 53.375 38.2773 52.9747 38.773 50.8206C39.383 48.19 40.1073 46.0359 41.213 43.6531L41.9755 41.9756L43.6148 41.2131C45.9214 40.1456 48.1708 39.3831 50.8205 38.7731C52.9745 38.2775 53.3748 38.2394 58.8076 38.1822C65.1555 38.1059 66.8139 38.2394 70.0736 39.0781C76.2308 40.6794 82.407 44.244 86.7723 48.7619C89.2123 51.2781 90.337 53.0128 91.1186 55.51C91.4617 56.5965 91.8048 57.5497 91.8811 57.6259C91.9573 57.7212 92.7198 57.6831 93.5776 57.5497C94.9501 57.359 95.2933 57.2256 96.3226 56.4822C96.9708 56.0056 97.5808 55.5481 97.6761 55.4528C97.7905 55.3575 97.4473 54.4044 96.7801 53.0509C95.3123 50.0009 95.0455 48.4378 95.1789 43.7484C95.2933 39.8787 95.7698 37.1909 96.9326 33.5881C97.9048 30.6525 100.173 26.1919 101.813 24.0187C103.338 21.979 109.819 15.4406 111.706 14.03C114.108 12.2381 116.662 10.8656 119.903 9.58842C121.866 8.82592 122.19 8.84498 124.859 9.89342Z"/>
</mask>
<path d="M118.874 0.953104C113.231 2.84029 107.474 6.00467 101.908 10.2747C99.8492 11.8378 98.2289 13.7059 95.7698 17.3469C91.8048 23.199 89.2123 28.8225 87.878 34.5031C87.5348 35.9137 87.2108 37.229 87.1345 37.4006C87.0392 37.6865 86.7342 37.534 85.133 36.5047C79.1283 32.6159 71.3698 29.9853 62.4867 28.8034C60.1801 28.4984 59.6273 28.4984 57.8736 28.7081C50.1151 29.6422 42.3758 31.9678 37.1717 34.9415C35.8564 35.685 35.6848 35.8565 34.9414 37.1719C31.9867 42.3759 29.6611 50.0962 28.708 57.9118C28.4983 59.6275 28.5173 60.1993 28.8033 62.4868C29.9851 71.37 32.6158 79.1284 36.5045 85.1331C37.5339 86.7343 37.6864 87.0393 37.4005 87.1347C37.2289 87.2109 35.9136 87.535 34.503 87.8781C28.8223 89.2125 23.1989 91.805 17.3467 95.77C13.7058 98.229 11.8376 99.8493 10.2745 101.908C6.17608 107.246 2.78296 113.441 0.952959 118.912L-0.076416 122L0.952959 125.107C2.78296 130.54 5.87108 136.221 10.0458 141.787C11.3039 143.464 12.1045 144.284 13.5151 145.409C20.5683 151.032 28.5555 154.959 36.0089 156.503C36.9048 156.694 37.6292 156.942 37.6101 157.037C37.572 157.151 37.0955 157.971 36.5045 158.848C32.673 164.757 29.9851 172.649 28.8033 181.513C28.5173 183.801 28.4983 184.372 28.708 186.088C29.6611 193.885 31.9486 201.51 34.9605 206.885C35.7801 208.353 36.1995 208.677 39.3639 210.183C44.6251 212.68 51.1255 214.472 57.8736 215.292C59.6273 215.502 60.1801 215.502 62.4676 215.197C71.427 213.996 79.0901 211.403 85.133 207.495C86.7342 206.466 87.0392 206.313 87.1345 206.599C87.2108 206.771 87.5348 208.086 87.878 209.497C89.2314 215.197 91.862 220.934 95.827 226.71C99.0867 231.495 100.402 232.81 105.13 236.032C110.2 239.482 114.947 241.827 120.055 243.428L122 244.038L123.963 243.428C128.958 241.884 133.857 239.444 138.87 236.032C143.598 232.81 144.913 231.495 148.173 226.71C152.138 220.934 154.768 215.197 156.122 209.497C156.465 208.086 156.789 206.771 156.865 206.599C156.96 206.313 157.265 206.466 158.867 207.495C164.91 211.403 172.573 213.996 181.532 215.197C183.82 215.502 184.372 215.502 186.126 215.292C190.968 214.701 195.943 213.557 200.061 212.07C202.71 211.117 207.152 209.039 208.01 208.372C208.696 207.819 210.926 203.263 212.07 200.061C213.557 195.924 214.701 190.968 215.292 186.126C215.501 184.372 215.501 183.82 215.196 181.513C214.015 172.649 211.327 164.757 207.495 158.848C206.904 157.971 206.428 157.151 206.39 157.037C206.37 156.942 207.095 156.694 207.991 156.503C215.444 154.959 223.431 151.032 230.465 145.428C234.964 141.863 240.855 132.103 243.428 123.944L244.057 122L243.428 120.037C241.465 113.86 238.09 107.57 233.687 101.851C232.067 99.7731 230.427 98.3434 226.748 95.8462C220.896 91.8622 215.215 89.2315 209.497 87.8781C208.086 87.535 206.771 87.2109 206.599 87.1347C206.313 87.0393 206.466 86.7343 207.495 85.1331C211.384 79.1284 214.015 71.37 215.196 62.4868C215.578 59.6084 215.501 58.3693 214.663 53.68C213.557 47.5419 210.965 40.0694 208.677 36.4665C207.285 34.2553 197.716 30.5953 189.862 29.2609C185.459 28.4984 184.315 28.4412 181.513 28.8034C172.63 29.9853 164.871 32.6159 158.867 36.5047C157.265 37.534 156.96 37.6865 156.865 37.4006C156.789 37.229 156.465 35.9137 156.122 34.5031C154.482 27.6025 150.67 20.13 145.428 13.5344C142.035 9.26435 132.77 3.52654 125.126 0.953104C123.563 0.438417 122.152 -2.09399e-05 122 -2.09399e-05C121.847 -2.09399e-05 120.437 0.438417 118.874 0.953104ZM124.859 9.89342C127.147 10.8084 130.254 12.524 132.198 13.9537C134.238 15.4597 141.139 22.4937 142.568 24.4953C144.055 26.6112 146.152 30.8622 147.048 33.5881C148.23 37.1719 148.706 39.8787 148.821 43.7484C148.954 48.4378 148.687 50.0009 147.22 53.0509C146.552 54.4044 146.209 55.3575 146.324 55.4528C146.419 55.5481 147.029 56.0056 147.677 56.4822C148.706 57.2256 149.05 57.359 150.422 57.5497C151.28 57.6831 152.042 57.7212 152.119 57.6259C152.176 57.5497 152.519 56.5775 152.881 55.51C153.682 52.9937 154.787 51.259 157.227 48.7619C161.593 44.244 167.769 40.6794 173.926 39.0781C177.186 38.2394 178.844 38.1059 185.192 38.1822C190.625 38.2394 191.025 38.2775 193.179 38.7731C195.829 39.3831 198.078 40.1456 200.385 41.2131L202.024 41.9756L202.787 43.6531C203.892 46.0359 204.617 48.19 205.227 50.8206C205.722 52.9937 205.76 53.3559 205.818 58.9031C205.875 63.4018 205.818 65.1747 205.589 66.7378C204.54 73.9815 200.633 81.5493 195.238 86.7725C192.76 89.1743 190.93 90.3562 188.452 91.1378C187.384 91.4618 186.45 91.805 186.374 91.8812C186.279 91.9575 186.317 92.7009 186.431 93.5206C186.66 95.0265 187.06 95.8843 188.242 97.314L188.719 97.8859L190.701 96.8756C193.694 95.3887 194.533 95.2172 199.394 95.2362C203.111 95.2362 203.721 95.2743 205.932 95.7509C209.325 96.4753 212.013 97.4093 215.12 98.9153C218.933 100.783 220.61 102.061 225.033 106.464C230.122 111.516 231.8 113.822 233.82 118.55C235.212 121.771 235.231 121.886 234.488 123.849C233.268 127.09 231.552 130.235 229.646 132.675C228.102 134.677 221.392 141.215 219.543 142.53C213.957 146.476 206.294 148.878 199.222 148.878C195.39 148.878 193.694 148.535 190.949 147.22L188.7 146.133L188.242 146.686C187.06 148.116 186.66 148.973 186.431 150.479C186.317 151.299 186.279 152.023 186.374 152.1C186.45 152.176 187.384 152.519 188.452 152.862C190.949 153.663 192.779 154.845 195.238 157.227C200.633 162.451 204.54 170.018 205.589 177.262C205.818 178.825 205.875 180.598 205.818 185.097C205.76 190.644 205.722 191.006 205.227 193.179C204.617 195.81 203.892 197.964 202.787 200.347L202.024 202.024L200.347 202.787C197.964 203.892 195.81 204.617 193.179 205.227C191.025 205.722 190.625 205.761 185.192 205.818C178.844 205.894 177.186 205.761 173.926 204.922C167.769 203.34 161.593 199.737 157.227 195.238C154.845 192.779 153.663 190.949 152.862 188.452C152.519 187.384 152.176 186.45 152.119 186.374C152.042 186.279 151.28 186.317 150.422 186.45C149.05 186.641 148.706 186.774 147.677 187.518C147.029 187.994 146.419 188.452 146.324 188.547C146.209 188.642 146.552 189.596 147.22 190.949C148.687 193.999 148.954 195.562 148.821 200.252C148.668 205.494 147.62 209.802 145.332 214.625C143.293 218.933 142.13 220.458 137.155 225.414C132.275 230.275 130.082 231.838 125.355 233.878C122.248 235.212 122.114 235.212 120.151 234.488C116.986 233.287 113.841 231.571 111.42 229.722C109.933 228.597 103.28 221.926 102.156 220.458C99.182 216.55 96.9326 211.441 95.7508 205.932C95.2742 203.721 95.2361 203.111 95.2361 199.394C95.217 194.552 95.3886 193.656 96.8373 190.797C97.3711 189.748 97.7905 188.833 97.7905 188.757C97.7905 188.662 97.1995 188.166 96.4561 187.632C95.2551 186.755 94.9692 186.641 93.5776 186.431C92.7198 186.317 91.9573 186.279 91.8811 186.374C91.8048 186.45 91.4617 187.384 91.1376 188.452C90.3561 190.93 89.1742 192.76 86.7723 195.238C82.407 199.737 76.2308 203.34 70.0736 204.922C66.8139 205.761 65.1555 205.894 58.8076 205.818C53.3748 205.761 52.9745 205.722 50.8205 205.227C48.1898 204.617 46.0358 203.892 43.653 202.787L41.9755 202.024L41.213 200.347C40.1073 197.964 39.383 195.81 38.773 193.179C38.2773 191.025 38.2392 190.625 38.182 185.192C38.1058 178.844 38.2392 177.186 39.078 173.926C40.6792 167.769 44.2439 161.593 48.7617 157.227C51.2208 154.845 53.0508 153.663 55.548 152.862C56.6155 152.519 57.5495 152.176 57.6258 152.119C57.7211 152.042 57.683 151.28 57.5495 150.422C57.3589 149.05 57.2255 148.707 56.482 147.677C56.0055 147.029 55.548 146.419 55.4526 146.324C55.3573 146.209 54.4042 146.552 53.0508 147.22C50.3058 148.535 48.6092 148.878 44.7776 148.878C40.908 148.878 37.3242 148.287 33.3592 146.972C30.843 146.152 26.5348 143.998 24.5142 142.568C22.5126 141.139 15.8408 134.619 14.2014 132.484C12.7145 130.54 11.2658 128.043 10.2364 125.603C8.97827 122.648 8.84483 122.152 9.13077 121.199C9.9314 118.55 12.1617 114.203 14.0298 111.706C15.4976 109.743 22.5508 102.823 24.4951 101.432C26.6111 99.9447 30.862 97.8478 33.588 96.9518C34.7317 96.5706 36.7333 96.0368 38.0676 95.7509C40.2789 95.2743 40.8889 95.2362 44.6061 95.2362C49.448 95.2172 50.3439 95.3887 53.2033 96.8375C54.2517 97.3712 55.1667 97.7906 55.243 97.7906C55.3383 97.7906 55.8339 97.1997 56.3676 96.4562C57.2445 95.2553 57.3589 94.9693 57.5686 93.5778C57.683 92.72 57.7211 91.9575 57.6258 91.8812C57.5495 91.805 56.6155 91.4618 55.548 91.1378C53.0698 90.3562 51.2398 89.1743 48.7617 86.7725C44.2439 82.4072 40.6792 76.2309 39.078 70.0737C38.2392 66.814 38.1058 65.1556 38.182 58.8078C38.2392 53.375 38.2773 52.9747 38.773 50.8206C39.383 48.19 40.1073 46.0359 41.213 43.6531L41.9755 41.9756L43.6148 41.2131C45.9214 40.1456 48.1708 39.3831 50.8205 38.7731C52.9745 38.2775 53.3748 38.2394 58.8076 38.1822C65.1555 38.1059 66.8139 38.2394 70.0736 39.0781C76.2308 40.6794 82.407 44.244 86.7723 48.7619C89.2123 51.2781 90.337 53.0128 91.1186 55.51C91.4617 56.5965 91.8048 57.5497 91.8811 57.6259C91.9573 57.7212 92.7198 57.6831 93.5776 57.5497C94.9501 57.359 95.2933 57.2256 96.3226 56.4822C96.9708 56.0056 97.5808 55.5481 97.6761 55.4528C97.7905 55.3575 97.4473 54.4044 96.7801 53.0509C95.3123 50.0009 95.0455 48.4378 95.1789 43.7484C95.2933 39.8787 95.7698 37.1909 96.9326 33.5881C97.9048 30.6525 100.173 26.1919 101.813 24.0187C103.338 21.979 109.819 15.4406 111.706 14.03C114.108 12.2381 116.662 10.8656 119.903 9.58842C121.866 8.82592 122.19 8.84498 124.859 9.89342Z" stroke="black" stroke-width="2" mask="url(#path-1-inside-1_28_110)"/>
<mask id="path-2-inside-2_28_110" fill="white">
<path d="M121.18 80.1006C120.951 85.1712 119.903 90.7565 118.378 94.9693L117.768 96.6278L119.522 98.9534C120.475 100.231 121.39 101.527 121.561 101.832C121.962 102.499 122.038 102.499 122.438 101.832C122.61 101.527 123.525 100.231 124.478 98.9534L126.232 96.6278L125.622 94.9693C124.097 90.7565 123.048 85.1712 122.82 80.1006L122.705 77.2031H121.295L121.18 80.1006Z"/>
<path d="M89.8032 90.7947L91.4235 92.5293C94.8548 96.2084 98.0382 100.764 100.04 104.863L101.107 107.074L103.986 107.493C105.549 107.722 107.131 107.97 107.493 108.027C108.141 108.142 108.141 108.142 108.027 107.493C107.97 107.131 107.722 105.549 107.493 103.948L107.055 101.05L105.911 100.555C101.889 98.82 96.3226 95.0075 92.3385 91.2522L90.7945 89.8034L89.8032 90.7947Z"/>
<path d="M151.451 91.4428C147.887 94.7978 143.331 97.9812 139.137 100.04L136.926 101.107L136.506 103.986C136.278 105.549 136.03 107.131 135.973 107.493C135.858 108.142 135.858 108.142 136.506 108.027C136.869 107.97 138.451 107.722 140.014 107.493L142.873 107.074L144.074 104.653C146.095 100.536 149.316 95.9797 152.748 92.3387L154.196 90.7947L153.682 90.2991L153.167 89.8225L151.451 91.4428Z"/>
<path d="M109.114 94.874C109.323 100.593 109.857 105.015 110.944 109.552C111.153 110.448 111.306 111.23 111.268 111.268C111.23 111.306 110.296 111.115 109.209 110.867C106.54 110.238 104.31 109.857 101.222 109.533C97.7905 109.152 91.1187 108.923 91.1187 109.171C91.1187 109.476 95.789 113.937 97.9812 115.728C100.536 117.806 103.147 119.674 105.263 120.913C106.178 121.466 106.941 121.943 106.941 122C106.941 122.057 106.178 122.534 105.263 123.086C103.147 124.326 100.536 126.194 97.9812 128.271C95.789 130.063 91.1187 134.524 91.1187 134.829C91.1187 135.077 97.7905 134.848 101.222 134.467C104.348 134.143 106.597 133.761 109.209 133.132C110.296 132.866 111.211 132.694 111.249 132.732C111.306 132.77 111.153 133.552 110.944 134.448C109.857 138.985 109.323 143.407 109.114 149.107C109.018 151.642 109.037 152.881 109.171 152.881C109.476 152.881 113.917 148.23 115.728 146C117.806 143.483 119.674 140.853 120.913 138.737C121.466 137.822 121.943 137.059 122 137.059C122.057 137.059 122.534 137.822 123.086 138.737C124.326 140.853 126.194 143.464 128.271 146.019C130.063 148.211 134.524 152.881 134.829 152.881C135.077 152.881 134.848 146.19 134.467 142.721C134.162 139.881 133.685 137.059 133.056 134.448C132.846 133.552 132.694 132.77 132.751 132.732C132.789 132.694 133.704 132.866 134.791 133.132C137.402 133.761 139.652 134.143 142.778 134.467C146.209 134.848 152.881 135.077 152.881 134.829C152.881 134.524 148.211 130.063 146.019 128.271C143.464 126.194 140.853 124.326 138.737 123.086C137.822 122.534 137.059 122.057 137.059 122C137.059 121.943 137.822 121.466 138.737 120.913C140.853 119.674 143.464 117.806 146.019 115.728C148.211 113.937 152.881 109.476 152.881 109.171C152.881 108.923 146.209 109.152 142.778 109.533C139.69 109.857 137.46 110.238 134.791 110.867C133.704 111.115 132.77 111.306 132.732 111.268C132.694 111.23 132.846 110.448 133.056 109.552C133.685 106.941 134.162 104.119 134.467 101.279C134.848 97.8096 135.077 91.1187 134.829 91.1187C134.524 91.1187 130.082 95.77 128.252 98.0003C126.308 100.364 124.097 103.49 122.915 105.511C122.476 106.292 122.057 106.941 122 106.941C121.943 106.941 121.523 106.292 121.085 105.511C119.903 103.49 117.692 100.364 115.766 98.0193C113.898 95.7509 109.476 91.1187 109.171 91.1187C109.037 91.1187 109.018 92.3578 109.114 94.874Z"/>
<path d="M94.8359 118.416C90.9281 119.884 85.1522 120.952 80.1197 121.18L77.2031 121.295V122.705L80.1197 122.82C85.1713 123.048 90.7566 124.097 94.9694 125.622L96.6278 126.232L98.9534 124.478C100.231 123.525 101.527 122.61 101.832 122.438C102.499 122.038 102.499 121.962 101.832 121.562C101.527 121.39 100.25 120.475 98.9725 119.522C97.7144 118.588 96.5897 117.806 96.5134 117.825C96.4372 117.825 95.6747 118.092 94.8359 118.416Z"/>
<path d="M145.256 119.35C144.151 120.189 142.892 121.104 142.454 121.39C141.996 121.676 141.634 121.943 141.634 122C141.634 122.057 141.882 122.248 142.168 122.438C142.473 122.61 143.769 123.525 145.046 124.478L147.372 126.232L149.031 125.622C153.243 124.097 158.829 123.048 163.899 122.82L166.797 122.705V121.295L163.899 121.18C158.829 120.952 153.205 119.903 149.088 118.397C148.192 118.073 147.429 117.806 147.372 117.806C147.315 117.825 146.362 118.512 145.256 119.35Z"/>
<path d="M106.559 136.106C106.197 136.202 104.824 136.411 103.509 136.602L101.126 136.907L100.04 139.137C97.9238 143.388 94.8167 147.849 91.4235 151.471L89.8032 153.205L90.7945 154.197L92.3385 152.748C95.9795 149.317 100.535 146.095 104.653 144.074L107.074 142.873L107.493 140.014C107.722 138.451 107.97 136.869 108.027 136.526C108.122 135.973 108.084 135.916 107.684 135.935C107.436 135.954 106.921 136.03 106.559 136.106Z"/>
<path d="M135.973 136.507C136.03 136.869 136.278 138.451 136.506 140.014L136.926 142.873L139.347 144.074C143.464 146.095 148.02 149.317 151.661 152.748L153.205 154.197L154.196 153.205L152.576 151.471C149.164 147.849 146.019 143.331 143.96 139.137L142.892 136.926L140.014 136.507C138.451 136.278 136.869 136.03 136.506 135.973C135.858 135.858 135.858 135.858 135.973 136.507Z"/>
<path d="M121.561 142.168C121.39 142.473 120.475 143.769 119.522 145.047L117.768 147.372L118.378 149.031C119.903 153.243 120.951 158.829 121.18 163.88L121.295 166.797H122.705L122.82 163.88C123.048 158.829 124.097 153.243 125.622 149.031L126.232 147.372L124.478 145.047C123.525 143.769 122.61 142.473 122.438 142.168C122.038 141.501 121.962 141.501 121.561 142.168Z"/>
</mask>
<path d="M121.18 80.1006C120.951 85.1712 119.903 90.7565 118.378 94.9693L117.768 96.6278L119.522 98.9534C120.475 100.231 121.39 101.527 121.561 101.832C121.962 102.499 122.038 102.499 122.438 101.832C122.61 101.527 123.525 100.231 124.478 98.9534L126.232 96.6278L125.622 94.9693C124.097 90.7565 123.048 85.1712 122.82 80.1006L122.705 77.2031H121.295L121.18 80.1006Z" stroke="black" stroke-width="2" mask="url(#path-2-inside-2_28_110)"/>
<path d="M89.8032 90.7947L91.4235 92.5293C94.8548 96.2084 98.0382 100.764 100.04 104.863L101.107 107.074L103.986 107.493C105.549 107.722 107.131 107.97 107.493 108.027C108.141 108.142 108.141 108.142 108.027 107.493C107.97 107.131 107.722 105.549 107.493 103.948L107.055 101.05L105.911 100.555C101.889 98.82 96.3226 95.0075 92.3385 91.2522L90.7945 89.8034L89.8032 90.7947Z" stroke="black" stroke-width="2" mask="url(#path-2-inside-2_28_110)"/>
<path d="M151.451 91.4428C147.887 94.7978 143.331 97.9812 139.137 100.04L136.926 101.107L136.506 103.986C136.278 105.549 136.03 107.131 135.973 107.493C135.858 108.142 135.858 108.142 136.506 108.027C136.869 107.97 138.451 107.722 140.014 107.493L142.873 107.074L144.074 104.653C146.095 100.536 149.316 95.9797 152.748 92.3387L154.196 90.7947L153.682 90.2991L153.167 89.8225L151.451 91.4428Z" stroke="black" stroke-width="2" mask="url(#path-2-inside-2_28_110)"/>
<path d="M109.114 94.874C109.323 100.593 109.857 105.015 110.944 109.552C111.153 110.448 111.306 111.23 111.268 111.268C111.23 111.306 110.296 111.115 109.209 110.867C106.54 110.238 104.31 109.857 101.222 109.533C97.7905 109.152 91.1187 108.923 91.1187 109.171C91.1187 109.476 95.789 113.937 97.9812 115.728C100.536 117.806 103.147 119.674 105.263 120.913C106.178 121.466 106.941 121.943 106.941 122C106.941 122.057 106.178 122.534 105.263 123.086C103.147 124.326 100.536 126.194 97.9812 128.271C95.789 130.063 91.1187 134.524 91.1187 134.829C91.1187 135.077 97.7905 134.848 101.222 134.467C104.348 134.143 106.597 133.761 109.209 133.132C110.296 132.866 111.211 132.694 111.249 132.732C111.306 132.77 111.153 133.552 110.944 134.448C109.857 138.985 109.323 143.407 109.114 149.107C109.018 151.642 109.037 152.881 109.171 152.881C109.476 152.881 113.917 148.23 115.728 146C117.806 143.483 119.674 140.853 120.913 138.737C121.466 137.822 121.943 137.059 122 137.059C122.057 137.059 122.534 137.822 123.086 138.737C124.326 140.853 126.194 143.464 128.271 146.019C130.063 148.211 134.524 152.881 134.829 152.881C135.077 152.881 134.848 146.19 134.467 142.721C134.162 139.881 133.685 137.059 133.056 134.448C132.846 133.552 132.694 132.77 132.751 132.732C132.789 132.694 133.704 132.866 134.791 133.132C137.402 133.761 139.652 134.143 142.778 134.467C146.209 134.848 152.881 135.077 152.881 134.829C152.881 134.524 148.211 130.063 146.019 128.271C143.464 126.194 140.853 124.326 138.737 123.086C137.822 122.534 137.059 122.057 137.059 122C137.059 121.943 137.822 121.466 138.737 120.913C140.853 119.674 143.464 117.806 146.019 115.728C148.211 113.937 152.881 109.476 152.881 109.171C152.881 108.923 146.209 109.152 142.778 109.533C139.69 109.857 137.46 110.238 134.791 110.867C133.704 111.115 132.77 111.306 132.732 111.268C132.694 111.23 132.846 110.448 133.056 109.552C133.685 106.941 134.162 104.119 134.467 101.279C134.848 97.8096 135.077 91.1187 134.829 91.1187C134.524 91.1187 130.082 95.77 128.252 98.0003C126.308 100.364 124.097 103.49 122.915 105.511C122.476 106.292 122.057 106.941 122 106.941C121.943 106.941 121.523 106.292 121.085 105.511C119.903 103.49 117.692 100.364 115.766 98.0193C113.898 95.7509 109.476 91.1187 109.171 91.1187C109.037 91.1187 109.018 92.3578 109.114 94.874Z" stroke="black" stroke-width="2" mask="url(#path-2-inside-2_28_110)"/>
<path d="M94.8359 118.416C90.9281 119.884 85.1522 120.952 80.1197 121.18L77.2031 121.295V122.705L80.1197 122.82C85.1713 123.048 90.7566 124.097 94.9694 125.622L96.6278 126.232L98.9534 124.478C100.231 123.525 101.527 122.61 101.832 122.438C102.499 122.038 102.499 121.962 101.832 121.562C101.527 121.39 100.25 120.475 98.9725 119.522C97.7144 118.588 96.5897 117.806 96.5134 117.825C96.4372 117.825 95.6747 118.092 94.8359 118.416Z" stroke="black" stroke-width="2" mask="url(#path-2-inside-2_28_110)"/>
<path d="M145.256 119.35C144.151 120.189 142.892 121.104 142.454 121.39C141.996 121.676 141.634 121.943 141.634 122C141.634 122.057 141.882 122.248 142.168 122.438C142.473 122.61 143.769 123.525 145.046 124.478L147.372 126.232L149.031 125.622C153.243 124.097 158.829 123.048 163.899 122.82L166.797 122.705V121.295L163.899 121.18C158.829 120.952 153.205 119.903 149.088 118.397C148.192 118.073 147.429 117.806 147.372 117.806C147.315 117.825 146.362 118.512 145.256 119.35Z" stroke="black" stroke-width="2" mask="url(#path-2-inside-2_28_110)"/>
<path d="M106.559 136.106C106.197 136.202 104.824 136.411 103.509 136.602L101.126 136.907L100.04 139.137C97.9238 143.388 94.8167 147.849 91.4235 151.471L89.8032 153.205L90.7945 154.197L92.3385 152.748C95.9795 149.317 100.535 146.095 104.653 144.074L107.074 142.873L107.493 140.014C107.722 138.451 107.97 136.869 108.027 136.526C108.122 135.973 108.084 135.916 107.684 135.935C107.436 135.954 106.921 136.03 106.559 136.106Z" stroke="black" stroke-width="2" mask="url(#path-2-inside-2_28_110)"/>
<path d="M135.973 136.507C136.03 136.869 136.278 138.451 136.506 140.014L136.926 142.873L139.347 144.074C143.464 146.095 148.02 149.317 151.661 152.748L153.205 154.197L154.196 153.205L152.576 151.471C149.164 147.849 146.019 143.331 143.96 139.137L142.892 136.926L140.014 136.507C138.451 136.278 136.869 136.03 136.506 135.973C135.858 135.858 135.858 135.858 135.973 136.507Z" stroke="black" stroke-width="2" mask="url(#path-2-inside-2_28_110)"/>
<path d="M121.561 142.168C121.39 142.473 120.475 143.769 119.522 145.047L117.768 147.372L118.378 149.031C119.903 153.243 120.951 158.829 121.18 163.88L121.295 166.797H122.705L122.82 163.88C123.048 158.829 124.097 153.243 125.622 149.031L126.232 147.372L124.478 145.047C123.525 143.769 122.61 142.473 122.438 142.168C122.038 141.501 121.962 141.501 121.561 142.168Z" stroke="black" stroke-width="2" mask="url(#path-2-inside-2_28_110)"/>
<mask id="path-3-inside-3_28_110" fill="white">
<path d="M115.652 76.7266C108.942 77.5462 103.185 79.5859 97.943 83.0172C95.9223 84.3325 92.8723 86.7153 92.1098 87.554L91.6523 88.0306L92.0527 88.2594C92.2814 88.3737 93.4442 89.4031 94.6452 90.5469C95.8461 91.6906 96.9898 92.6628 97.1995 92.739C97.4664 92.8153 98.0192 92.4722 99.2583 91.5C101.05 90.0512 104.1 88.45 106.464 87.6684C107.207 87.4397 107.97 87.1347 108.18 87.0012C108.98 86.4865 111.878 85.3428 113.517 84.9044C114.47 84.6565 116.014 84.3897 116.986 84.3134L118.74 84.199L118.931 83.2269C119.026 82.6931 119.14 80.9394 119.179 79.3381L119.255 76.4406L118.492 76.4597C118.054 76.4787 116.777 76.5931 115.652 76.7266Z"/>
<path d="M124.821 79.3381C124.859 80.9394 124.973 82.6931 125.069 83.2269L125.259 84.199L126.918 84.3134C127.833 84.3706 129.282 84.5994 130.12 84.809C131.722 85.2284 134.657 86.334 135.648 86.9059C135.953 87.0965 136.811 87.4397 137.555 87.6875C139.918 88.45 142.949 90.0512 144.741 91.5C145.98 92.4722 146.533 92.8153 146.8 92.739C147.01 92.6628 148.153 91.6906 149.354 90.5469C150.555 89.4031 151.718 88.3737 151.947 88.2594L152.347 88.0306L151.89 87.554C151.089 86.6962 148.058 84.3325 146.056 83.0362C140.719 79.5287 135.057 77.5272 128.157 76.7266C126.822 76.5741 125.507 76.4406 125.24 76.4406H124.745L124.821 79.3381Z"/>
<path d="M87.1917 92.4912C85.0186 94.7787 82.1782 98.9534 80.5389 102.27C79.3189 104.748 77.9654 108.732 77.4126 111.458C77.0314 113.346 76.4404 117.749 76.4404 118.759V119.255L79.357 119.179C80.9392 119.141 82.6929 119.026 83.2267 118.931L84.1989 118.74L84.3133 116.987C84.3895 116.014 84.6564 114.451 84.9042 113.517C85.3426 111.878 86.4864 108.98 87.0011 108.18C87.1345 107.97 87.4395 107.188 87.6683 106.464C88.4498 104.081 90.0511 101.05 91.4998 99.2393C93.1392 97.1996 93.1964 97.4284 90.5467 94.6453C89.5364 93.5968 88.5642 92.4912 88.3545 92.2053L87.9733 91.6715L87.1917 92.4912Z"/>
<path d="M155.74 92.0719C155.626 92.2816 154.597 93.4444 153.453 94.6453C152.309 95.8462 151.337 96.99 151.261 97.1997C151.184 97.4666 151.528 98.0194 152.5 99.2584C153.949 101.05 155.55 104.081 156.312 106.445C156.56 107.188 156.903 108.046 157.094 108.351C158.276 110.372 159.515 114.508 159.686 116.987L159.801 118.74L160.773 118.931C161.307 119.026 163.06 119.141 164.662 119.179L167.559 119.255V118.759C167.559 118.492 167.426 117.177 167.273 115.843C166.454 108.904 164.49 103.319 160.925 97.8859C159.553 95.7891 156.999 92.5294 156.255 91.9194C156.007 91.7097 155.931 91.7287 155.74 92.0719Z"/>
<path d="M76.4404 125.241C76.4404 125.507 76.5739 126.823 76.7264 128.157C77.5461 135.115 79.5095 140.681 83.0742 146.114C84.4467 148.211 87.0011 151.471 87.7445 152.081C87.9923 152.29 88.0686 152.271 88.2592 151.928C88.3736 151.699 89.3457 150.594 90.4132 149.469C93.2154 146.552 93.1392 146.8 91.4998 144.761C90.0511 142.95 88.4498 139.919 87.6873 137.555C87.4395 136.812 87.0964 135.954 86.9057 135.649C86.3339 134.657 85.2282 131.722 84.8089 130.121C84.5992 129.282 84.3704 127.833 84.3132 126.918L84.1989 125.26L83.2267 125.069C82.6929 124.974 80.9392 124.859 79.357 124.821L76.4404 124.745V125.241Z"/>
<path d="M163.651 124.878C161.974 124.955 160.43 125.069 160.201 125.145C159.839 125.26 159.782 125.469 159.686 127.013C159.515 129.492 158.257 133.647 157.094 135.649C156.903 135.954 156.56 136.812 156.312 137.555C155.55 139.919 153.949 142.95 152.5 144.742C151.528 145.981 151.184 146.533 151.261 146.8C151.337 147.01 152.309 148.154 153.453 149.355C154.597 150.556 155.626 151.718 155.74 151.928C156.026 152.443 156.141 152.347 158.009 150.117C163.251 143.827 166.282 136.659 167.273 128.157C167.674 124.821 167.655 124.669 167.14 124.707C166.892 124.726 165.329 124.802 163.651 124.878Z"/>
<path d="M96.7232 151.585C96.4182 151.814 95.3889 152.748 94.4548 153.644C93.5017 154.559 92.4913 155.455 92.2054 155.645C91.5573 156.065 91.5763 156.065 93.8829 158.009C98.9154 162.203 105.359 165.348 111.459 166.587C113.346 166.968 117.749 167.559 118.76 167.559H119.255L119.179 164.643C119.141 163.061 119.026 161.307 118.931 160.773L118.74 159.801L116.987 159.687C114.47 159.515 111.973 158.791 108.809 157.304C107.932 156.884 106.75 156.408 106.178 156.217C104.119 155.569 100.974 153.892 99.2585 152.519C98.3435 151.776 97.5048 151.166 97.4285 151.166C97.3332 151.166 97.0282 151.356 96.7232 151.585Z"/>
<path d="M144.684 152.519C143.026 153.892 139.918 155.569 137.821 156.217C137.25 156.408 136.068 156.884 135.191 157.304C132.026 158.791 129.529 159.515 127.013 159.687L125.259 159.801L125.069 160.773C124.973 161.307 124.859 163.061 124.821 164.643L124.745 167.559H125.24C126.251 167.559 130.654 166.968 132.541 166.587C138.641 165.348 145.084 162.203 150.117 158.009C152.423 156.065 152.442 156.065 151.794 155.645C151.508 155.455 150.498 154.559 149.545 153.644C147.62 151.795 146.838 151.166 146.514 151.185C146.4 151.185 145.58 151.795 144.684 152.519Z"/>
</mask>
<path d="M115.652 76.7266C108.942 77.5462 103.185 79.5859 97.943 83.0172C95.9223 84.3325 92.8723 86.7153 92.1098 87.554L91.6523 88.0306L92.0527 88.2594C92.2814 88.3737 93.4442 89.4031 94.6452 90.5469C95.8461 91.6906 96.9898 92.6628 97.1995 92.739C97.4664 92.8153 98.0192 92.4722 99.2583 91.5C101.05 90.0512 104.1 88.45 106.464 87.6684C107.207 87.4397 107.97 87.1347 108.18 87.0012C108.98 86.4865 111.878 85.3428 113.517 84.9044C114.47 84.6565 116.014 84.3897 116.986 84.3134L118.74 84.199L118.931 83.2269C119.026 82.6931 119.14 80.9394 119.179 79.3381L119.255 76.4406L118.492 76.4597C118.054 76.4787 116.777 76.5931 115.652 76.7266Z" stroke="black" stroke-width="2" mask="url(#path-3-inside-3_28_110)"/>
<path d="M124.821 79.3381C124.859 80.9394 124.973 82.6931 125.069 83.2269L125.259 84.199L126.918 84.3134C127.833 84.3706 129.282 84.5994 130.12 84.809C131.722 85.2284 134.657 86.334 135.648 86.9059C135.953 87.0965 136.811 87.4397 137.555 87.6875C139.918 88.45 142.949 90.0512 144.741 91.5C145.98 92.4722 146.533 92.8153 146.8 92.739C147.01 92.6628 148.153 91.6906 149.354 90.5469C150.555 89.4031 151.718 88.3737 151.947 88.2594L152.347 88.0306L151.89 87.554C151.089 86.6962 148.058 84.3325 146.056 83.0362C140.719 79.5287 135.057 77.5272 128.157 76.7266C126.822 76.5741 125.507 76.4406 125.24 76.4406H124.745L124.821 79.3381Z" stroke="black" stroke-width="2" mask="url(#path-3-inside-3_28_110)"/>
<path d="M87.1917 92.4912C85.0186 94.7787 82.1782 98.9534 80.5389 102.27C79.3189 104.748 77.9654 108.732 77.4126 111.458C77.0314 113.346 76.4404 117.749 76.4404 118.759V119.255L79.357 119.179C80.9392 119.141 82.6929 119.026 83.2267 118.931L84.1989 118.74L84.3133 116.987C84.3895 116.014 84.6564 114.451 84.9042 113.517C85.3426 111.878 86.4864 108.98 87.0011 108.18C87.1345 107.97 87.4395 107.188 87.6683 106.464C88.4498 104.081 90.0511 101.05 91.4998 99.2393C93.1392 97.1996 93.1964 97.4284 90.5467 94.6453C89.5364 93.5968 88.5642 92.4912 88.3545 92.2053L87.9733 91.6715L87.1917 92.4912Z" stroke="black" stroke-width="2" mask="url(#path-3-inside-3_28_110)"/>
<path d="M155.74 92.0719C155.626 92.2816 154.597 93.4444 153.453 94.6453C152.309 95.8462 151.337 96.99 151.261 97.1997C151.184 97.4666 151.528 98.0194 152.5 99.2584C153.949 101.05 155.55 104.081 156.312 106.445C156.56 107.188 156.903 108.046 157.094 108.351C158.276 110.372 159.515 114.508 159.686 116.987L159.801 118.74L160.773 118.931C161.307 119.026 163.06 119.141 164.662 119.179L167.559 119.255V118.759C167.559 118.492 167.426 117.177 167.273 115.843C166.454 108.904 164.49 103.319 160.925 97.8859C159.553 95.7891 156.999 92.5294 156.255 91.9194C156.007 91.7097 155.931 91.7287 155.74 92.0719Z" stroke="black" stroke-width="2" mask="url(#path-3-inside-3_28_110)"/>
<path d="M76.4404 125.241C76.4404 125.507 76.5739 126.823 76.7264 128.157C77.5461 135.115 79.5095 140.681 83.0742 146.114C84.4467 148.211 87.0011 151.471 87.7445 152.081C87.9923 152.29 88.0686 152.271 88.2592 151.928C88.3736 151.699 89.3457 150.594 90.4132 149.469C93.2154 146.552 93.1392 146.8 91.4998 144.761C90.0511 142.95 88.4498 139.919 87.6873 137.555C87.4395 136.812 87.0964 135.954 86.9057 135.649C86.3339 134.657 85.2282 131.722 84.8089 130.121C84.5992 129.282 84.3704 127.833 84.3132 126.918L84.1989 125.26L83.2267 125.069C82.6929 124.974 80.9392 124.859 79.357 124.821L76.4404 124.745V125.241Z" stroke="black" stroke-width="2" mask="url(#path-3-inside-3_28_110)"/>
<path d="M163.651 124.878C161.974 124.955 160.43 125.069 160.201 125.145C159.839 125.26 159.782 125.469 159.686 127.013C159.515 129.492 158.257 133.647 157.094 135.649C156.903 135.954 156.56 136.812 156.312 137.555C155.55 139.919 153.949 142.95 152.5 144.742C151.528 145.981 151.184 146.533 151.261 146.8C151.337 147.01 152.309 148.154 153.453 149.355C154.597 150.556 155.626 151.718 155.74 151.928C156.026 152.443 156.141 152.347 158.009 150.117C163.251 143.827 166.282 136.659 167.273 128.157C167.674 124.821 167.655 124.669 167.14 124.707C166.892 124.726 165.329 124.802 163.651 124.878Z" stroke="black" stroke-width="2" mask="url(#path-3-inside-3_28_110)"/>
<path d="M96.7232 151.585C96.4182 151.814 95.3889 152.748 94.4548 153.644C93.5017 154.559 92.4913 155.455 92.2054 155.645C91.5573 156.065 91.5763 156.065 93.8829 158.009C98.9154 162.203 105.359 165.348 111.459 166.587C113.346 166.968 117.749 167.559 118.76 167.559H119.255L119.179 164.643C119.141 163.061 119.026 161.307 118.931 160.773L118.74 159.801L116.987 159.687C114.47 159.515 111.973 158.791 108.809 157.304C107.932 156.884 106.75 156.408 106.178 156.217C104.119 155.569 100.974 153.892 99.2585 152.519C98.3435 151.776 97.5048 151.166 97.4285 151.166C97.3332 151.166 97.0282 151.356 96.7232 151.585Z" stroke="black" stroke-width="2" mask="url(#path-3-inside-3_28_110)"/>
<path d="M144.684 152.519C143.026 153.892 139.918 155.569 137.821 156.217C137.25 156.408 136.068 156.884 135.191 157.304C132.026 158.791 129.529 159.515 127.013 159.687L125.259 159.801L125.069 160.773C124.973 161.307 124.859 163.061 124.821 164.643L124.745 167.559H125.24C126.251 167.559 130.654 166.968 132.541 166.587C138.641 165.348 145.084 162.203 150.117 158.009C152.423 156.065 152.442 156.065 151.794 155.645C151.508 155.455 150.498 154.559 149.545 153.644C147.62 151.795 146.838 151.166 146.514 151.185C146.4 151.185 145.58 151.795 144.684 152.519Z" stroke="black" stroke-width="2" mask="url(#path-3-inside-3_28_110)"/>
<mask id="path-4-inside-4_28_110" fill="white">
<path d="M106.273 65.4035C105.339 66.1278 103.681 67.2907 102.613 67.996C101.527 68.7203 100.65 69.3494 100.65 69.4066C100.65 69.5591 103.891 71.0841 105.854 71.8466C110.581 73.7147 117.52 75.1253 122 75.1253C126.48 75.1253 133.418 73.7147 138.146 71.8466C140.109 71.0841 143.35 69.5591 143.35 69.4066C143.35 69.3494 142.683 68.8538 141.863 68.3391C141.062 67.8053 139.385 66.6235 138.127 65.7085L135.877 64.0119L134.791 64.5075C132.198 65.6703 125.412 66.9666 122 66.9666C118.55 66.9666 111.191 65.5369 109.037 64.4313C108.618 64.2216 108.218 64.05 108.141 64.0691C108.065 64.0691 107.226 64.66 106.273 65.4035Z"/>
<path d="M99.2012 69.7687C98.7818 69.9403 93.7302 70.8172 92.0337 71.0269L90.9471 71.1412L89.9177 73.2762C87.9734 77.2984 84.2181 82.3309 81.5302 84.4659C78.5565 86.8488 75.8687 88.6406 73.4668 89.8225L71.1603 90.9472L70.8362 93.3109C70.6456 94.6263 70.3024 96.6469 70.0737 97.8097L69.6353 99.9256L70.1881 99.8113C71.2365 99.6016 75.1253 97.9813 77.6034 96.7231C81.4159 94.7788 85.9337 91.6716 88.6215 89.1363C90.9471 86.9441 94.6643 81.6447 96.723 77.6034C98.0002 75.1063 99.6015 71.2366 99.8112 70.15C99.9446 69.5591 99.8493 69.5019 99.2012 69.7687Z"/>
<path d="M144.169 70.131C144.398 71.2366 145.98 75.0681 147.276 77.6034C149.202 81.3778 152.176 85.7241 154.692 88.4309C156.979 90.89 162.202 94.5881 166.396 96.7231C168.855 97.9813 172.763 99.6016 173.811 99.8113L174.364 99.9256L173.85 97.3522C173.564 95.9225 173.22 93.9019 173.087 92.8534L172.858 90.9472L170.723 89.9178C168.379 88.7931 165.862 87.1347 162.793 84.7328C161.287 83.5509 160.391 82.655 159.229 81.1491C156.808 78.0609 155.206 75.6019 154.082 73.2763L153.052 71.1603L151.318 70.9316C149.259 70.6647 144.932 69.8641 144.417 69.6544C144.093 69.521 144.074 69.5781 144.169 70.131Z"/>
<path d="M68.3389 102.137C67.8242 102.937 66.6233 104.615 65.7083 105.873L64.0117 108.122L64.5073 109.209C65.4223 111.268 66.223 114.832 66.8139 119.56C67.0998 121.79 67.0998 122.21 66.8139 124.421C66.223 129.167 65.4223 132.732 64.5073 134.791L64.0117 135.877L65.7083 138.127C66.6233 139.385 67.8242 141.062 68.3389 141.863C68.8727 142.683 69.3492 143.35 69.4064 143.35C69.5589 143.35 71.0839 140.109 71.8464 138.146C73.7145 133.418 75.1252 126.48 75.1252 122C75.1252 117.52 73.7145 110.582 71.8464 105.854C71.0839 103.891 69.5589 100.65 69.4064 100.65C69.3492 100.65 68.8727 101.317 68.3389 102.137Z"/>
<path d="M173.602 102.499C170.685 108.732 168.875 116.205 168.875 122C168.875 126.48 170.285 133.418 172.153 138.146C172.916 140.109 174.441 143.35 174.593 143.35C174.65 143.35 175.146 142.683 175.661 141.863C176.195 141.062 177.376 139.385 178.291 138.127L179.988 135.877L179.492 134.791C178.577 132.713 177.739 129.015 177.186 124.421C176.919 122.229 176.919 121.771 177.186 119.56C177.739 114.985 178.577 111.287 179.492 109.209L179.988 108.122L178.291 105.873C177.376 104.615 176.195 102.937 175.661 102.137C175.146 101.317 174.65 100.65 174.593 100.65C174.536 100.65 174.079 101.489 173.602 102.499Z"/>
<path d="M70.0735 146.209C70.3022 147.372 70.6453 149.393 70.836 150.689L71.16 153.072L73.276 154.082C75.6016 155.207 78.0797 156.827 81.1488 159.229C82.6547 160.392 83.5506 161.288 84.7325 162.794C87.1344 165.863 88.7928 168.379 89.9175 170.724L90.9469 172.859L92.8341 173.087C93.8634 173.221 95.8841 173.545 97.3138 173.831L99.9253 174.346L99.8109 173.812C99.6013 172.763 97.9809 168.856 96.7228 166.397C94.5878 162.203 90.8897 156.98 88.4306 154.692C85.5522 152.004 81.1678 149.05 77.0122 146.991C74.3435 145.657 70.4928 144.112 69.8828 144.112C69.6922 144.112 69.7494 144.627 70.0735 146.209Z"/>
<path d="M172.001 144.78C166.949 146.648 161.974 149.469 157.532 153.034C154.673 155.302 152.652 157.647 149.869 161.879C147.715 165.157 144.608 171.658 144.189 173.812L144.074 174.346L146.686 173.831C148.115 173.545 150.136 173.221 151.165 173.087L153.053 172.859L154.082 170.724C155.207 168.379 156.865 165.863 159.267 162.794C160.449 161.288 161.345 160.392 162.851 159.229C165.939 156.808 168.398 155.207 170.724 154.082L172.859 153.053L173.087 151.166C173.221 150.136 173.545 148.116 173.831 146.705C174.269 144.475 174.288 144.113 174.04 144.132C173.888 144.132 172.973 144.418 172.001 144.78Z"/>
<path d="M121.047 168.837C113.288 169.58 108.389 170.857 102.518 173.602C101.489 174.079 100.65 174.536 100.65 174.593C100.65 174.651 101.317 175.127 102.137 175.661C102.937 176.176 104.615 177.377 105.873 178.292L108.122 179.988L109.209 179.493C111.287 178.578 114.985 177.739 119.579 177.186C121.771 176.919 122.229 176.919 124.44 177.186C129.015 177.739 132.713 178.578 134.791 179.493L135.877 179.988L138.127 178.292C139.385 177.377 141.062 176.176 141.863 175.661C142.683 175.127 143.35 174.651 143.35 174.593C143.35 174.441 140.109 172.916 138.146 172.153C134.657 170.762 129.358 169.485 125.431 169.084C122.629 168.798 121.809 168.76 121.047 168.837Z"/>
</mask>
<path d="M106.273 65.4035C105.339 66.1278 103.681 67.2907 102.613 67.996C101.527 68.7203 100.65 69.3494 100.65 69.4066C100.65 69.5591 103.891 71.0841 105.854 71.8466C110.581 73.7147 117.52 75.1253 122 75.1253C126.48 75.1253 133.418 73.7147 138.146 71.8466C140.109 71.0841 143.35 69.5591 143.35 69.4066C143.35 69.3494 142.683 68.8538 141.863 68.3391C141.062 67.8053 139.385 66.6235 138.127 65.7085L135.877 64.0119L134.791 64.5075C132.198 65.6703 125.412 66.9666 122 66.9666C118.55 66.9666 111.191 65.5369 109.037 64.4313C108.618 64.2216 108.218 64.05 108.141 64.0691C108.065 64.0691 107.226 64.66 106.273 65.4035Z" stroke="black" stroke-width="2" mask="url(#path-4-inside-4_28_110)"/>
<path d="M99.2012 69.7687C98.7818 69.9403 93.7302 70.8172 92.0337 71.0269L90.9471 71.1412L89.9177 73.2762C87.9734 77.2984 84.2181 82.3309 81.5302 84.4659C78.5565 86.8488 75.8687 88.6406 73.4668 89.8225L71.1603 90.9472L70.8362 93.3109C70.6456 94.6263 70.3024 96.6469 70.0737 97.8097L69.6353 99.9256L70.1881 99.8113C71.2365 99.6016 75.1253 97.9813 77.6034 96.7231C81.4159 94.7788 85.9337 91.6716 88.6215 89.1363C90.9471 86.9441 94.6643 81.6447 96.723 77.6034C98.0002 75.1063 99.6015 71.2366 99.8112 70.15C99.9446 69.5591 99.8493 69.5019 99.2012 69.7687Z" stroke="black" stroke-width="2" mask="url(#path-4-inside-4_28_110)"/>
<path d="M144.169 70.131C144.398 71.2366 145.98 75.0681 147.276 77.6034C149.202 81.3778 152.176 85.7241 154.692 88.4309C156.979 90.89 162.202 94.5881 166.396 96.7231C168.855 97.9813 172.763 99.6016 173.811 99.8113L174.364 99.9256L173.85 97.3522C173.564 95.9225 173.22 93.9019 173.087 92.8534L172.858 90.9472L170.723 89.9178C168.379 88.7931 165.862 87.1347 162.793 84.7328C161.287 83.5509 160.391 82.655 159.229 81.1491C156.808 78.0609 155.206 75.6019 154.082 73.2763L153.052 71.1603L151.318 70.9316C149.259 70.6647 144.932 69.8641 144.417 69.6544C144.093 69.521 144.074 69.5781 144.169 70.131Z" stroke="black" stroke-width="2" mask="url(#path-4-inside-4_28_110)"/>
<path d="M68.3389 102.137C67.8242 102.937 66.6233 104.615 65.7083 105.873L64.0117 108.122L64.5073 109.209C65.4223 111.268 66.223 114.832 66.8139 119.56C67.0998 121.79 67.0998 122.21 66.8139 124.421C66.223 129.167 65.4223 132.732 64.5073 134.791L64.0117 135.877L65.7083 138.127C66.6233 139.385 67.8242 141.062 68.3389 141.863C68.8727 142.683 69.3492 143.35 69.4064 143.35C69.5589 143.35 71.0839 140.109 71.8464 138.146C73.7145 133.418 75.1252 126.48 75.1252 122C75.1252 117.52 73.7145 110.582 71.8464 105.854C71.0839 103.891 69.5589 100.65 69.4064 100.65C69.3492 100.65 68.8727 101.317 68.3389 102.137Z" stroke="black" stroke-width="2" mask="url(#path-4-inside-4_28_110)"/>
<path d="M173.602 102.499C170.685 108.732 168.875 116.205 168.875 122C168.875 126.48 170.285 133.418 172.153 138.146C172.916 140.109 174.441 143.35 174.593 143.35C174.65 143.35 175.146 142.683 175.661 141.863C176.195 141.062 177.376 139.385 178.291 138.127L179.988 135.877L179.492 134.791C178.577 132.713 177.739 129.015 177.186 124.421C176.919 122.229 176.919 121.771 177.186 119.56C177.739 114.985 178.577 111.287 179.492 109.209L179.988 108.122L178.291 105.873C177.376 104.615 176.195 102.937 175.661 102.137C175.146 101.317 174.65 100.65 174.593 100.65C174.536 100.65 174.079 101.489 173.602 102.499Z" stroke="black" stroke-width="2" mask="url(#path-4-inside-4_28_110)"/>
<path d="M70.0735 146.209C70.3022 147.372 70.6453 149.393 70.836 150.689L71.16 153.072L73.276 154.082C75.6016 155.207 78.0797 156.827 81.1488 159.229C82.6547 160.392 83.5506 161.288 84.7325 162.794C87.1344 165.863 88.7928 168.379 89.9175 170.724L90.9469 172.859L92.8341 173.087C93.8634 173.221 95.8841 173.545 97.3138 173.831L99.9253 174.346L99.8109 173.812C99.6013 172.763 97.9809 168.856 96.7228 166.397C94.5878 162.203 90.8897 156.98 88.4306 154.692C85.5522 152.004 81.1678 149.05 77.0122 146.991C74.3435 145.657 70.4928 144.112 69.8828 144.112C69.6922 144.112 69.7494 144.627 70.0735 146.209Z" stroke="black" stroke-width="2" mask="url(#path-4-inside-4_28_110)"/>
<path d="M172.001 144.78C166.949 146.648 161.974 149.469 157.532 153.034C154.673 155.302 152.652 157.647 149.869 161.879C147.715 165.157 144.608 171.658 144.189 173.812L144.074 174.346L146.686 173.831C148.115 173.545 150.136 173.221 151.165 173.087L153.053 172.859L154.082 170.724C155.207 168.379 156.865 165.863 159.267 162.794C160.449 161.288 161.345 160.392 162.851 159.229C165.939 156.808 168.398 155.207 170.724 154.082L172.859 153.053L173.087 151.166C173.221 150.136 173.545 148.116 173.831 146.705C174.269 144.475 174.288 144.113 174.04 144.132C173.888 144.132 172.973 144.418 172.001 144.78Z" stroke="black" stroke-width="2" mask="url(#path-4-inside-4_28_110)"/>
<path d="M121.047 168.837C113.288 169.58 108.389 170.857 102.518 173.602C101.489 174.079 100.65 174.536 100.65 174.593C100.65 174.651 101.317 175.127 102.137 175.661C102.937 176.176 104.615 177.377 105.873 178.292L108.122 179.988L109.209 179.493C111.287 178.578 114.985 177.739 119.579 177.186C121.771 176.919 122.229 176.919 124.44 177.186C129.015 177.739 132.713 178.578 134.791 179.493L135.877 179.988L138.127 178.292C139.385 177.377 141.062 176.176 141.863 175.661C142.683 175.127 143.35 174.651 143.35 174.593C143.35 174.441 140.109 172.916 138.146 172.153C134.657 170.762 129.358 169.485 125.431 169.084C122.629 168.798 121.809 168.76 121.047 168.837Z" stroke="black" stroke-width="2" mask="url(#path-4-inside-4_28_110)"/>
<mask id="path-5-inside-5_28_110" fill="white">
<path d="M99.4492 33.4928C98.5532 35.2466 97.6001 39.0019 97.6001 40.7938V41.48L98.8963 41.3084C106.121 40.26 115.252 47.5228 119.064 57.3781C119.865 59.475 120.475 62.1628 120.475 63.7069C120.475 64.965 120.704 65.1938 122 65.1938C123.277 65.1938 123.525 64.965 123.525 63.7831C123.525 61.3241 124.383 58.3313 126.022 54.9953C129.263 48.4188 135.058 43.0622 140.414 41.6706C142.035 41.2513 144.017 41.1178 145.333 41.3275L146.457 41.4991L146.343 40.1456C146.267 39.3831 146.076 38.1822 145.924 37.4578C145.599 36.0663 144.57 33.245 144.322 33.0925C143.96 32.8638 137.231 33.9503 134.867 34.6175C130.292 35.9138 125.946 38.9637 123.068 42.8906C122.553 43.5769 122.076 44.1297 122 44.1297C121.924 44.1297 121.428 43.5769 120.933 42.8906C119.674 41.1941 117.33 38.9066 115.671 37.7438C112.393 35.4181 109.304 34.3316 103.776 33.55C102.213 33.3403 100.669 33.1116 100.326 33.0544C99.7923 32.9781 99.6779 33.0353 99.4492 33.4928Z"/>
<path d="M72.9708 45.7309C68.6818 51.3925 67.1949 54.6712 66.6993 59.6084C66.4705 61.7244 66.6421 65.2891 67.0424 66.6997C67.1377 67.1191 67.1186 67.1381 66.6993 67.0428C65.2505 66.6425 61.8193 66.4709 59.6652 66.6806C54.6899 67.1762 51.5255 68.6059 45.7305 72.9712L43.3096 74.7822L43.6527 75.7734C44.2627 77.5272 45.7496 80.0244 47.2174 81.74L47.7511 82.3881L48.6661 81.2253C50.153 79.3 52.6311 77.6797 55.3761 76.8409C62.9249 74.4962 73.3902 76.555 79.433 81.5684L80.6721 82.5978L81.3011 82.2737C81.6443 82.0831 82.0827 81.6447 82.2733 81.3016L82.5974 80.6725L81.568 79.4334C77.7555 74.8394 75.6205 67.8816 75.9255 61C76.1733 55.51 78.0415 51.1256 81.2249 48.6665L82.3877 47.7515L81.7396 47.2178C80.0239 45.75 77.5268 44.2631 75.773 43.6531L74.7818 43.31L72.9708 45.7309Z"/>
<path d="M168.226 43.6531C166.453 44.2631 163.994 45.7119 162.355 47.1225L161.612 47.7515L162.774 48.6665C166.434 51.5069 168.36 56.9015 168.074 63.5544C167.807 69.7116 165.691 75.5828 162.241 79.6431L161.383 80.6725L161.726 81.3016C161.917 81.6447 162.355 82.0831 162.698 82.2737L163.327 82.5978L164.566 81.5684C170.609 76.555 181.074 74.4962 188.623 76.8409C191.368 77.6797 193.846 79.3 195.333 81.2253L196.248 82.3881L196.782 81.74C198.25 80.0244 199.737 77.5272 200.347 75.7734L200.69 74.7822L198.269 72.9712C192.474 68.6059 189.309 67.1762 184.334 66.6806C182.18 66.4709 178.749 66.6425 177.3 67.0428C176.881 67.1381 176.862 67.1191 176.957 66.6997C177.033 66.4519 177.186 65.2509 177.319 64.0309C177.815 58.9031 176.595 53.9469 173.754 49.5244C173.011 48.3806 169.713 43.8819 169.294 43.4434C169.237 43.3672 168.741 43.4625 168.226 43.6531Z"/>
<path d="M39.2687 97.7334C37.0765 98.0765 33.3403 99.2775 33.0734 99.6969C32.9209 99.9637 33.9121 106.445 34.4078 108.37C35.1893 111.344 36.1043 113.346 37.7628 115.69C38.9256 117.349 41.3846 119.827 43.0431 121.047C43.6912 121.504 44.225 121.943 44.225 122C44.2059 122.057 43.6912 122.477 43.0431 122.953C41.3084 124.23 38.9065 126.67 37.7628 128.291C36.0853 130.673 35.1893 132.656 34.4078 135.63C33.9121 137.555 32.9209 144.036 33.0734 144.303C33.2259 144.57 35.99 145.58 37.4578 145.923C38.1821 146.076 39.3831 146.267 40.1456 146.343L41.499 146.457L41.3275 145.332C40.9843 143.236 41.4609 140.414 42.5284 138.051C43.9962 134.81 47.3512 130.94 50.8968 128.443C55.0143 125.527 60.2375 123.525 63.8021 123.525C64.9459 123.525 65.1937 123.258 65.1937 122.057C65.1937 120.608 65.0793 120.475 63.8784 120.475C61.2859 120.475 58.3884 119.655 54.9953 117.978C48.4187 114.737 43.0621 108.942 41.6706 103.586C41.2512 101.984 41.1178 99.9828 41.3275 98.6865L41.499 97.6L40.6221 97.619C40.1456 97.6381 39.5356 97.6953 39.2687 97.7334Z"/>
<path d="M202.691 98.8581C203.187 102.366 201.738 106.559 198.669 110.372C194.209 115.976 185.936 120.475 180.121 120.475C178.921 120.475 178.806 120.608 178.806 122.057C178.806 123.258 179.054 123.525 180.198 123.525C185.936 123.544 194.228 128.062 198.669 133.628C201.738 137.441 203.187 141.634 202.691 145.142L202.501 146.457L203.95 146.324C205.741 146.171 207.934 145.637 209.63 144.913L210.926 144.379L210.869 143.541C210.755 141.901 210.069 137.517 209.668 135.916C208.467 131.112 206.008 127.185 202.253 124.021C201.357 123.258 200.404 122.496 200.156 122.305L199.68 121.981L200.156 121.657C200.404 121.485 201.357 120.723 202.253 119.96C206.008 116.834 208.467 112.888 209.668 108.084C210.069 106.483 210.755 102.099 210.869 100.459L210.926 99.6206L209.63 99.0869C207.934 98.3625 205.741 97.8288 203.95 97.6763L202.501 97.5428L202.691 98.8581Z"/>
<path d="M79.7761 162.146C73.1805 167.941 60.8852 169.885 53.2983 166.339C51.4493 165.482 49.7336 164.166 48.6661 162.775L47.7511 161.612L47.2174 162.26C45.7496 163.976 44.2627 166.473 43.6527 168.227L43.3096 169.218L45.7305 171.029C51.5064 175.375 54.7089 176.824 59.6652 177.319C61.8193 177.529 65.2505 177.358 66.6993 176.957C67.1186 176.862 67.1377 176.881 67.0424 177.3C66.6421 178.749 66.4705 182.18 66.6802 184.334C67.1758 189.291 68.6246 192.493 72.9708 198.269L74.7818 200.69L75.773 200.347C77.5268 199.737 80.0239 198.25 81.7396 196.782L82.3877 196.248L81.2249 195.333C78.0415 192.874 76.1733 188.49 75.9255 183C75.6205 176.118 77.7555 169.161 81.568 164.567L82.5974 163.327L82.2733 162.717C81.9683 162.146 81.0915 161.44 80.6911 161.459C80.6149 161.478 80.1955 161.783 79.7761 162.146Z"/>
<path d="M162.565 161.783C162.279 161.974 161.897 162.374 161.726 162.718L161.402 163.328L162.431 164.567C166.739 169.771 168.951 178.273 167.845 185.535C167.197 189.824 165.405 193.294 162.774 195.333L161.612 196.248L162.26 196.782C163.975 198.25 166.472 199.737 168.226 200.347L169.217 200.69L171.028 198.269C175.375 192.493 176.823 189.291 177.319 184.334C177.529 182.18 177.357 178.749 176.957 177.3C176.862 176.881 176.881 176.862 177.3 176.957C178.749 177.358 182.18 177.529 184.334 177.319C189.29 176.824 192.493 175.375 198.269 171.029L200.69 169.218L200.347 168.227C199.737 166.473 198.25 163.976 196.782 162.26L196.248 161.612L195.333 162.775C193.293 165.405 189.824 167.197 185.535 167.845C178.291 168.932 169.77 166.74 164.604 162.47C163.937 161.917 163.327 161.459 163.232 161.459C163.156 161.459 162.851 161.612 162.565 161.783Z"/>
<path d="M120.818 179.016C120.551 179.168 120.475 179.454 120.475 180.293C120.456 183.801 118.454 189.024 115.537 193.103C110.791 199.756 104.1 203.549 98.6672 202.673L97.5425 202.501L97.6569 203.854C97.7331 204.617 97.9237 205.818 98.0762 206.542C98.4003 207.934 99.4297 210.755 99.6775 210.908C100.04 211.136 106.75 210.05 109.132 209.383C113.688 208.086 117.939 205.113 120.932 201.109C121.428 200.423 121.923 199.87 122 199.87C122.076 199.87 122.552 200.404 123.029 201.052C124.249 202.711 126.651 205.074 128.328 206.256C131.836 208.734 135.153 209.821 142.111 210.717C143.254 210.869 144.246 210.965 144.322 210.908C144.57 210.755 145.599 207.934 145.923 206.542C146.076 205.818 146.266 204.617 146.343 203.854L146.457 202.501L145.332 202.673C138.718 203.74 130.387 197.85 126.022 189.005C124.382 185.669 123.525 182.676 123.525 180.217C123.525 179.416 123.448 179.168 123.162 178.997C122.686 178.749 121.237 178.749 120.818 179.016Z"/>
</mask>
<path d="M99.4492 33.4928C98.5532 35.2466 97.6001 39.0019 97.6001 40.7938V41.48L98.8963 41.3084C106.121 40.26 115.252 47.5228 119.064 57.3781C119.865 59.475 120.475 62.1628 120.475 63.7069C120.475 64.965 120.704 65.1938 122 65.1938C123.277 65.1938 123.525 64.965 123.525 63.7831C123.525 61.3241 124.383 58.3313 126.022 54.9953C129.263 48.4188 135.058 43.0622 140.414 41.6706C142.035 41.2513 144.017 41.1178 145.333 41.3275L146.457 41.4991L146.343 40.1456C146.267 39.3831 146.076 38.1822 145.924 37.4578C145.599 36.0663 144.57 33.245 144.322 33.0925C143.96 32.8638 137.231 33.9503 134.867 34.6175C130.292 35.9138 125.946 38.9637 123.068 42.8906C122.553 43.5769 122.076 44.1297 122 44.1297C121.924 44.1297 121.428 43.5769 120.933 42.8906C119.674 41.1941 117.33 38.9066 115.671 37.7438C112.393 35.4181 109.304 34.3316 103.776 33.55C102.213 33.3403 100.669 33.1116 100.326 33.0544C99.7923 32.9781 99.6779 33.0353 99.4492 33.4928Z" stroke="black" stroke-width="2" mask="url(#path-5-inside-5_28_110)"/>
<path d="M72.9708 45.7309C68.6818 51.3925 67.1949 54.6712 66.6993 59.6084C66.4705 61.7244 66.6421 65.2891 67.0424 66.6997C67.1377 67.1191 67.1186 67.1381 66.6993 67.0428C65.2505 66.6425 61.8193 66.4709 59.6652 66.6806C54.6899 67.1762 51.5255 68.6059 45.7305 72.9712L43.3096 74.7822L43.6527 75.7734C44.2627 77.5272 45.7496 80.0244 47.2174 81.74L47.7511 82.3881L48.6661 81.2253C50.153 79.3 52.6311 77.6797 55.3761 76.8409C62.9249 74.4962 73.3902 76.555 79.433 81.5684L80.6721 82.5978L81.3011 82.2737C81.6443 82.0831 82.0827 81.6447 82.2733 81.3016L82.5974 80.6725L81.568 79.4334C77.7555 74.8394 75.6205 67.8816 75.9255 61C76.1733 55.51 78.0415 51.1256 81.2249 48.6665L82.3877 47.7515L81.7396 47.2178C80.0239 45.75 77.5268 44.2631 75.773 43.6531L74.7818 43.31L72.9708 45.7309Z" stroke="black" stroke-width="2" mask="url(#path-5-inside-5_28_110)"/>
<path d="M168.226 43.6531C166.453 44.2631 163.994 45.7119 162.355 47.1225L161.612 47.7515L162.774 48.6665C166.434 51.5069 168.36 56.9015 168.074 63.5544C167.807 69.7116 165.691 75.5828 162.241 79.6431L161.383 80.6725L161.726 81.3016C161.917 81.6447 162.355 82.0831 162.698 82.2737L163.327 82.5978L164.566 81.5684C170.609 76.555 181.074 74.4962 188.623 76.8409C191.368 77.6797 193.846 79.3 195.333 81.2253L196.248 82.3881L196.782 81.74C198.25 80.0244 199.737 77.5272 200.347 75.7734L200.69 74.7822L198.269 72.9712C192.474 68.6059 189.309 67.1762 184.334 66.6806C182.18 66.4709 178.749 66.6425 177.3 67.0428C176.881 67.1381 176.862 67.1191 176.957 66.6997C177.033 66.4519 177.186 65.2509 177.319 64.0309C177.815 58.9031 176.595 53.9469 173.754 49.5244C173.011 48.3806 169.713 43.8819 169.294 43.4434C169.237 43.3672 168.741 43.4625 168.226 43.6531Z" stroke="black" stroke-width="2" mask="url(#path-5-inside-5_28_110)"/>
<path d="M39.2687 97.7334C37.0765 98.0765 33.3403 99.2775 33.0734 99.6969C32.9209 99.9637 33.9121 106.445 34.4078 108.37C35.1893 111.344 36.1043 113.346 37.7628 115.69C38.9256 117.349 41.3846 119.827 43.0431 121.047C43.6912 121.504 44.225 121.943 44.225 122C44.2059 122.057 43.6912 122.477 43.0431 122.953C41.3084 124.23 38.9065 126.67 37.7628 128.291C36.0853 130.673 35.1893 132.656 34.4078 135.63C33.9121 137.555 32.9209 144.036 33.0734 144.303C33.2259 144.57 35.99 145.58 37.4578 145.923C38.1821 146.076 39.3831 146.267 40.1456 146.343L41.499 146.457L41.3275 145.332C40.9843 143.236 41.4609 140.414 42.5284 138.051C43.9962 134.81 47.3512 130.94 50.8968 128.443C55.0143 125.527 60.2375 123.525 63.8021 123.525C64.9459 123.525 65.1937 123.258 65.1937 122.057C65.1937 120.608 65.0793 120.475 63.8784 120.475C61.2859 120.475 58.3884 119.655 54.9953 117.978C48.4187 114.737 43.0621 108.942 41.6706 103.586C41.2512 101.984 41.1178 99.9828 41.3275 98.6865L41.499 97.6L40.6221 97.619C40.1456 97.6381 39.5356 97.6953 39.2687 97.7334Z" stroke="black" stroke-width="2" mask="url(#path-5-inside-5_28_110)"/>
<path d="M202.691 98.8581C203.187 102.366 201.738 106.559 198.669 110.372C194.209 115.976 185.936 120.475 180.121 120.475C178.921 120.475 178.806 120.608 178.806 122.057C178.806 123.258 179.054 123.525 180.198 123.525C185.936 123.544 194.228 128.062 198.669 133.628C201.738 137.441 203.187 141.634 202.691 145.142L202.501 146.457L203.95 146.324C205.741 146.171 207.934 145.637 209.63 144.913L210.926 144.379L210.869 143.541C210.755 141.901 210.069 137.517 209.668 135.916C208.467 131.112 206.008 127.185 202.253 124.021C201.357 123.258 200.404 122.496 200.156 122.305L199.68 121.981L200.156 121.657C200.404 121.485 201.357 120.723 202.253 119.96C206.008 116.834 208.467 112.888 209.668 108.084C210.069 106.483 210.755 102.099 210.869 100.459L210.926 99.6206L209.63 99.0869C207.934 98.3625 205.741 97.8288 203.95 97.6763L202.501 97.5428L202.691 98.8581Z" stroke="black" stroke-width="2" mask="url(#path-5-inside-5_28_110)"/>
<path d="M79.7761 162.146C73.1805 167.941 60.8852 169.885 53.2983 166.339C51.4493 165.482 49.7336 164.166 48.6661 162.775L47.7511 161.612L47.2174 162.26C45.7496 163.976 44.2627 166.473 43.6527 168.227L43.3096 169.218L45.7305 171.029C51.5064 175.375 54.7089 176.824 59.6652 177.319C61.8193 177.529 65.2505 177.358 66.6993 176.957C67.1186 176.862 67.1377 176.881 67.0424 177.3C66.6421 178.749 66.4705 182.18 66.6802 184.334C67.1758 189.291 68.6246 192.493 72.9708 198.269L74.7818 200.69L75.773 200.347C77.5268 199.737 80.0239 198.25 81.7396 196.782L82.3877 196.248L81.2249 195.333C78.0415 192.874 76.1733 188.49 75.9255 183C75.6205 176.118 77.7555 169.161 81.568 164.567L82.5974 163.327L82.2733 162.717C81.9683 162.146 81.0915 161.44 80.6911 161.459C80.6149 161.478 80.1955 161.783 79.7761 162.146Z" stroke="black" stroke-width="2" mask="url(#path-5-inside-5_28_110)"/>
<path d="M162.565 161.783C162.279 161.974 161.897 162.374 161.726 162.718L161.402 163.328L162.431 164.567C166.739 169.771 168.951 178.273 167.845 185.535C167.197 189.824 165.405 193.294 162.774 195.333L161.612 196.248L162.26 196.782C163.975 198.25 166.472 199.737 168.226 200.347L169.217 200.69L171.028 198.269C175.375 192.493 176.823 189.291 177.319 184.334C177.529 182.18 177.357 178.749 176.957 177.3C176.862 176.881 176.881 176.862 177.3 176.957C178.749 177.358 182.18 177.529 184.334 177.319C189.29 176.824 192.493 175.375 198.269 171.029L200.69 169.218L200.347 168.227C199.737 166.473 198.25 163.976 196.782 162.26L196.248 161.612L195.333 162.775C193.293 165.405 189.824 167.197 185.535 167.845C178.291 168.932 169.77 166.74 164.604 162.47C163.937 161.917 163.327 161.459 163.232 161.459C163.156 161.459 162.851 161.612 162.565 161.783Z" stroke="black" stroke-width="2" mask="url(#path-5-inside-5_28_110)"/>
<path d="M120.818 179.016C120.551 179.168 120.475 179.454 120.475 180.293C120.456 183.801 118.454 189.024 115.537 193.103C110.791 199.756 104.1 203.549 98.6672 202.673L97.5425 202.501L97.6569 203.854C97.7331 204.617 97.9237 205.818 98.0762 206.542C98.4003 207.934 99.4297 210.755 99.6775 210.908C100.04 211.136 106.75 210.05 109.132 209.383C113.688 208.086 117.939 205.113 120.932 201.109C121.428 200.423 121.923 199.87 122 199.87C122.076 199.87 122.552 200.404 123.029 201.052C124.249 202.711 126.651 205.074 128.328 206.256C131.836 208.734 135.153 209.821 142.111 210.717C143.254 210.869 144.246 210.965 144.322 210.908C144.57 210.755 145.599 207.934 145.923 206.542C146.076 205.818 146.266 204.617 146.343 203.854L146.457 202.501L145.332 202.673C138.718 203.74 130.387 197.85 126.022 189.005C124.382 185.669 123.525 182.676 123.525 180.217C123.525 179.416 123.448 179.168 123.162 178.997C122.686 178.749 121.237 178.749 120.818 179.016Z" stroke="black" stroke-width="2" mask="url(#path-5-inside-5_28_110)"/>
<mask id="path-6-inside-6_28_110" fill="white">
<path d="M120.094 29.9281C119.198 30.214 118.416 30.5762 118.34 30.7287C118.264 30.8621 118.035 31.6056 117.806 32.3871C117.577 33.1496 117.196 34.2743 116.929 34.8462L116.453 35.9328L116.986 36.295C117.272 36.4856 118.53 37.6865 119.77 38.9637L122 41.2703L124.249 38.9637C125.469 37.6865 126.727 36.4856 127.013 36.295L127.547 35.9328L127.07 34.8462C126.804 34.2743 126.422 33.1496 126.194 32.3871C125.965 31.6056 125.736 30.8621 125.66 30.7287C125.526 30.4809 122.343 29.3371 121.905 29.3753C121.809 29.3943 120.99 29.6421 120.094 29.9281Z"/>
<path d="M107.97 49.1812C105.11 52.3837 100.707 56.2534 97.3139 58.56C96.0558 59.4178 95.8461 59.494 93.6348 59.8372C89.727 60.4853 86.5626 60.6759 81.8351 60.5806L77.3936 60.4853V61.9722C77.3936 63.9356 77.7176 66.1659 78.2132 67.6719C78.6326 68.8919 78.6326 68.9109 79.4904 69.0634C80.5198 69.254 87.7636 69.0825 90.4514 68.8156C92.6436 68.5869 96.1701 68.015 98.1145 67.5765C99.163 67.3287 99.8492 67.0047 101.374 65.9944C105.511 63.2303 109.609 59.7419 113.689 55.529L115.175 53.9659L114.699 52.9175C114.432 52.3456 113.936 51.4497 113.593 50.954C112.926 50.0009 110.219 47.0844 109.99 47.0844C109.914 47.0844 109.018 48.0375 107.97 49.1812Z"/>
<path d="M132.446 48.5711C130.826 50.2677 129.987 51.4305 129.301 52.9174L128.824 53.9658L130.425 55.6243C134.657 60.0468 139.309 63.9355 143.388 66.509C144.799 67.3858 146.934 67.9386 151.165 68.5105C155.55 69.1015 162.641 69.3874 164.605 69.0443C165.348 68.9108 165.386 68.8727 165.786 67.6718C166.282 66.1658 166.606 63.9355 166.606 61.9721V60.4852L162.165 60.5805C157.437 60.6758 154.273 60.4852 150.365 59.8371C148.154 59.494 147.944 59.4177 146.686 58.5599C143.293 56.2533 138.889 52.3836 136.03 49.1811C134.981 48.0374 134.085 47.0843 134.009 47.0843C133.933 47.0843 133.228 47.7515 132.446 48.5711Z"/>
<path d="M58.1402 55.6243C56.5008 56.5012 56.5008 56.5012 55.6239 58.1405L54.7471 59.799L56.0243 62.3533L57.2824 64.9077L61.0758 64.8887H64.8883L64.8502 57.1493L63.8208 56.7299C63.2489 56.5012 62.1243 55.9483 61.3046 55.5099C60.4849 55.0715 59.8177 54.7093 59.7986 54.7283C59.7796 54.7283 59.0361 55.1287 58.1402 55.6243Z"/>
<path d="M182.524 55.5862C181.685 56.0437 180.579 56.5774 180.064 56.768L179.149 57.1302L179.111 64.8887H182.924L186.717 64.9077L187.975 62.3533L189.253 59.799L187.499 56.4821L185.898 55.6433C185.021 55.1858 184.239 54.7855 184.163 54.7665C184.106 54.7665 183.362 55.1287 182.524 55.5862Z"/>
<path d="M60.5231 83.4365C60.5041 88.755 60.4469 89.8415 60.0847 92.2625C59.8369 93.7875 59.57 95.3125 59.4747 95.6556C58.9791 97.5237 53.2031 104.367 48.7044 108.427L46.9888 109.972L48.1325 111.134C49.6575 112.697 51.2969 113.917 52.7647 114.623L53.9656 115.176L55.5288 113.689C59.6653 109.705 63.2681 105.473 65.956 101.432C67.4428 99.2012 67.7288 98.2672 68.415 93.4634C69.0822 88.8503 69.4063 81.5112 69.0441 79.3953C68.9106 78.6519 68.8725 78.6137 67.6716 78.2134C66.1656 77.7178 63.9544 77.3937 61.991 77.3937H60.5231V83.4365Z"/>
<path d="M178.825 77.6225C178.158 77.7178 177.052 77.9847 176.347 78.2134C175.127 78.6137 175.089 78.6519 174.956 79.3953C174.593 81.5494 174.898 88.7359 175.585 93.4825C176.118 97.2759 176.633 99.2394 177.319 100.364C179.988 104.596 183.648 108.98 188.395 113.593L190.034 115.176L191.235 114.623C192.703 113.917 194.342 112.697 195.867 111.134L197.011 109.972L195.295 108.427C190.796 104.367 185.02 97.5237 184.525 95.6556C184.43 95.3125 184.163 93.7875 183.915 92.2625C183.534 89.8415 183.495 88.774 183.476 83.4365V77.3937L181.761 77.4128C180.827 77.4319 179.492 77.5272 178.825 77.6225Z"/>
<path d="M35.2654 116.739C34.6935 117.044 32.2535 117.902 31.1288 118.187C30.5569 118.321 30.3091 118.492 30.3091 118.721C30.3091 118.893 30.0804 119.712 29.8135 120.513L29.3179 122L29.8135 123.487C30.0804 124.287 30.3091 125.107 30.3091 125.279C30.3091 125.507 30.5569 125.679 31.1288 125.812C32.4822 126.156 33.7785 126.613 34.8841 127.09L35.9326 127.547L36.2947 127.013C36.4854 126.727 37.6863 125.469 38.9635 124.23L41.2701 122L38.9444 119.751C37.6863 118.531 36.4854 117.292 36.3138 116.987C35.9326 116.396 35.9135 116.396 35.2654 116.739Z"/>
<path d="M207.686 116.987C207.514 117.292 206.313 118.531 205.055 119.751L202.729 122L205.036 124.23C206.313 125.469 207.514 126.727 207.705 127.013L208.067 127.547L209.115 127.09C210.221 126.613 211.517 126.156 212.89 125.812C213.443 125.679 213.69 125.507 213.69 125.279C213.69 125.107 213.919 124.287 214.186 123.487L214.682 122L214.186 120.513C213.919 119.712 213.69 118.893 213.69 118.721C213.69 118.492 213.443 118.321 212.89 118.187C211.536 117.844 210.221 117.387 209.134 116.929C208.582 116.682 208.086 116.472 208.067 116.472C208.029 116.472 207.876 116.701 207.686 116.987Z"/>
<path d="M52.7075 129.415C51.2969 130.082 49.6194 131.341 48.1325 132.866L46.9888 134.028L48.7044 135.572C52.1738 138.699 55.4525 142.34 57.9878 145.866C58.7122 146.896 59.3794 148.001 59.4747 148.344C59.57 148.687 59.8369 150.212 60.0847 151.737C60.4469 154.158 60.5041 155.245 60.5231 160.544V166.606H61.991C63.9544 166.606 66.1656 166.282 67.6716 165.787C68.8725 165.386 68.9106 165.348 69.0441 164.605C69.4063 162.489 69.0822 155.15 68.415 150.517C67.8622 146.724 67.3666 144.761 66.6803 143.636C64.755 140.567 61.7813 136.792 58.9791 133.819C57.0156 131.76 54.08 128.862 53.9275 128.862C53.8894 128.862 53.3366 129.11 52.7075 129.415Z"/>
<path d="M186.85 131.951C182.866 135.973 180.655 138.622 177.948 142.702C176.576 144.742 176.252 145.809 175.585 150.537C174.898 155.264 174.593 162.47 174.956 164.605C175.089 165.348 175.127 165.386 176.328 165.787C177.834 166.282 180.045 166.606 182.009 166.606H183.476V160.563C183.495 155.226 183.534 154.158 183.915 151.737C184.163 150.212 184.43 148.687 184.525 148.344C185.02 146.457 190.949 139.461 195.39 135.477L197.011 134.028L195.867 132.866C194.056 131.017 191.807 129.434 190.32 128.977C190.015 128.882 189.367 129.434 186.85 131.951Z"/>
<path d="M79.2998 174.975C78.6707 175.089 78.6136 175.165 78.2132 176.328C77.7176 177.834 77.3936 180.064 77.3936 182.009V183.477H83.4554C88.7548 183.496 89.8414 183.553 92.2623 183.915C93.7873 184.163 95.3123 184.43 95.6554 184.525C97.5426 185.021 104.539 190.949 108.523 195.391L109.971 197.011L111.134 195.867C112.697 194.342 113.917 192.703 114.623 191.235L115.175 190.034L113.689 188.471C109.171 183.801 104.825 180.16 100.326 177.3C99.182 176.595 97.4473 176.157 93.4061 175.566C88.8692 174.918 81.3967 174.593 79.2998 174.975Z"/>
<path d="M155.645 175.013C152.938 175.203 148.687 175.794 146.362 176.309C144.627 176.69 143.712 177.167 140.795 179.245C137.555 181.551 133.475 185.135 130.311 188.471L128.824 190.034L129.377 191.235C130.082 192.703 131.302 194.342 132.865 195.867L134.028 197.011L135.477 195.391C139.461 190.949 146.457 185.021 148.344 184.525C148.687 184.43 150.212 184.163 151.737 183.915C154.158 183.553 155.245 183.496 160.563 183.477H166.606V182.009C166.606 180.045 166.282 177.834 165.786 176.328C165.386 175.127 165.348 175.089 164.605 174.956C163.594 174.784 158.524 174.822 155.645 175.013Z"/>
<path d="M56.0243 181.647L54.7471 184.201L55.6239 185.859L56.5008 187.499L58.1402 188.376L59.7986 189.252L62.353 187.975L64.9074 186.717L64.8883 182.924V179.111H61.0758L57.2824 179.092L56.0243 181.647Z"/>
<path d="M179.169 179.187C179.169 179.245 179.13 180.96 179.13 183L179.092 186.717L181.647 187.975L184.201 189.252L185.859 188.376L187.499 187.499L188.376 185.859L189.253 184.201L187.975 181.647L186.717 179.092H182.962C180.884 179.092 179.188 179.13 179.169 179.187Z"/>
<path d="M119.712 205.093C118.511 206.332 117.272 207.514 116.986 207.705L116.453 208.067L116.948 209.192C117.215 209.802 117.635 211.003 117.882 211.861C118.13 212.699 118.454 213.462 118.588 213.538C118.74 213.614 119.56 213.9 120.437 214.167L122 214.682L123.582 214.167C124.44 213.9 125.26 213.614 125.412 213.538C125.545 213.462 125.87 212.699 126.117 211.861C126.365 211.003 126.785 209.802 127.051 209.192L127.547 208.067L127.013 207.705C126.727 207.514 125.488 206.332 124.287 205.093C123.086 203.835 122.057 202.825 122 202.825C121.943 202.825 120.913 203.835 119.712 205.093Z"/>
</mask>
<path d="M120.094 29.9281C119.198 30.214 118.416 30.5762 118.34 30.7287C118.264 30.8621 118.035 31.6056 117.806 32.3871C117.577 33.1496 117.196 34.2743 116.929 34.8462L116.453 35.9328L116.986 36.295C117.272 36.4856 118.53 37.6865 119.77 38.9637L122 41.2703L124.249 38.9637C125.469 37.6865 126.727 36.4856 127.013 36.295L127.547 35.9328L127.07 34.8462C126.804 34.2743 126.422 33.1496 126.194 32.3871C125.965 31.6056 125.736 30.8621 125.66 30.7287C125.526 30.4809 122.343 29.3371 121.905 29.3753C121.809 29.3943 120.99 29.6421 120.094 29.9281Z" stroke="black" stroke-width="2" mask="url(#path-6-inside-6_28_110)"/>
<path d="M107.97 49.1812C105.11 52.3837 100.707 56.2534 97.3139 58.56C96.0558 59.4178 95.8461 59.494 93.6348 59.8372C89.727 60.4853 86.5626 60.6759 81.8351 60.5806L77.3936 60.4853V61.9722C77.3936 63.9356 77.7176 66.1659 78.2132 67.6719C78.6326 68.8919 78.6326 68.9109 79.4904 69.0634C80.5198 69.254 87.7636 69.0825 90.4514 68.8156C92.6436 68.5869 96.1701 68.015 98.1145 67.5765C99.163 67.3287 99.8492 67.0047 101.374 65.9944C105.511 63.2303 109.609 59.7419 113.689 55.529L115.175 53.9659L114.699 52.9175C114.432 52.3456 113.936 51.4497 113.593 50.954C112.926 50.0009 110.219 47.0844 109.99 47.0844C109.914 47.0844 109.018 48.0375 107.97 49.1812Z" stroke="black" stroke-width="2" mask="url(#path-6-inside-6_28_110)"/>
<path d="M132.446 48.5711C130.826 50.2677 129.987 51.4305 129.301 52.9174L128.824 53.9658L130.425 55.6243C134.657 60.0468 139.309 63.9355 143.388 66.509C144.799 67.3858 146.934 67.9386 151.165 68.5105C155.55 69.1015 162.641 69.3874 164.605 69.0443C165.348 68.9108 165.386 68.8727 165.786 67.6718C166.282 66.1658 166.606 63.9355 166.606 61.9721V60.4852L162.165 60.5805C157.437 60.6758 154.273 60.4852 150.365 59.8371C148.154 59.494 147.944 59.4177 146.686 58.5599C143.293 56.2533 138.889 52.3836 136.03 49.1811C134.981 48.0374 134.085 47.0843 134.009 47.0843C133.933 47.0843 133.228 47.7515 132.446 48.5711Z" stroke="black" stroke-width="2" mask="url(#path-6-inside-6_28_110)"/>
<path d="M58.1402 55.6243C56.5008 56.5012 56.5008 56.5012 55.6239 58.1405L54.7471 59.799L56.0243 62.3533L57.2824 64.9077L61.0758 64.8887H64.8883L64.8502 57.1493L63.8208 56.7299C63.2489 56.5012 62.1243 55.9483 61.3046 55.5099C60.4849 55.0715 59.8177 54.7093 59.7986 54.7283C59.7796 54.7283 59.0361 55.1287 58.1402 55.6243Z" stroke="black" stroke-width="2" mask="url(#path-6-inside-6_28_110)"/>
<path d="M182.524 55.5862C181.685 56.0437 180.579 56.5774 180.064 56.768L179.149 57.1302L179.111 64.8887H182.924L186.717 64.9077L187.975 62.3533L189.253 59.799L187.499 56.4821L185.898 55.6433C185.021 55.1858 184.239 54.7855 184.163 54.7665C184.106 54.7665 183.362 55.1287 182.524 55.5862Z" stroke="black" stroke-width="2" mask="url(#path-6-inside-6_28_110)"/>
<path d="M60.5231 83.4365C60.5041 88.755 60.4469 89.8415 60.0847 92.2625C59.8369 93.7875 59.57 95.3125 59.4747 95.6556C58.9791 97.5237 53.2031 104.367 48.7044 108.427L46.9888 109.972L48.1325 111.134C49.6575 112.697 51.2969 113.917 52.7647 114.623L53.9656 115.176L55.5288 113.689C59.6653 109.705 63.2681 105.473 65.956 101.432C67.4428 99.2012 67.7288 98.2672 68.415 93.4634C69.0822 88.8503 69.4063 81.5112 69.0441 79.3953C68.9106 78.6519 68.8725 78.6137 67.6716 78.2134C66.1656 77.7178 63.9544 77.3937 61.991 77.3937H60.5231V83.4365Z" stroke="black" stroke-width="2" mask="url(#path-6-inside-6_28_110)"/>
<path d="M178.825 77.6225C178.158 77.7178 177.052 77.9847 176.347 78.2134C175.127 78.6137 175.089 78.6519 174.956 79.3953C174.593 81.5494 174.898 88.7359 175.585 93.4825C176.118 97.2759 176.633 99.2394 177.319 100.364C179.988 104.596 183.648 108.98 188.395 113.593L190.034 115.176L191.235 114.623C192.703 113.917 194.342 112.697 195.867 111.134L197.011 109.972L195.295 108.427C190.796 104.367 185.02 97.5237 184.525 95.6556C184.43 95.3125 184.163 93.7875 183.915 92.2625C183.534 89.8415 183.495 88.774 183.476 83.4365V77.3937L181.761 77.4128C180.827 77.4319 179.492 77.5272 178.825 77.6225Z" stroke="black" stroke-width="2" mask="url(#path-6-inside-6_28_110)"/>
<path d="M35.2654 116.739C34.6935 117.044 32.2535 117.902 31.1288 118.187C30.5569 118.321 30.3091 118.492 30.3091 118.721C30.3091 118.893 30.0804 119.712 29.8135 120.513L29.3179 122L29.8135 123.487C30.0804 124.287 30.3091 125.107 30.3091 125.279C30.3091 125.507 30.5569 125.679 31.1288 125.812C32.4822 126.156 33.7785 126.613 34.8841 127.09L35.9326 127.547L36.2947 127.013C36.4854 126.727 37.6863 125.469 38.9635 124.23L41.2701 122L38.9444 119.751C37.6863 118.531 36.4854 117.292 36.3138 116.987C35.9326 116.396 35.9135 116.396 35.2654 116.739Z" stroke="black" stroke-width="2" mask="url(#path-6-inside-6_28_110)"/>
<path d="M207.686 116.987C207.514 117.292 206.313 118.531 205.055 119.751L202.729 122L205.036 124.23C206.313 125.469 207.514 126.727 207.705 127.013L208.067 127.547L209.115 127.09C210.221 126.613 211.517 126.156 212.89 125.812C213.443 125.679 213.69 125.507 213.69 125.279C213.69 125.107 213.919 124.287 214.186 123.487L214.682 122L214.186 120.513C213.919 119.712 213.69 118.893 213.69 118.721C213.69 118.492 213.443 118.321 212.89 118.187C211.536 117.844 210.221 117.387 209.134 116.929C208.582 116.682 208.086 116.472 208.067 116.472C208.029 116.472 207.876 116.701 207.686 116.987Z" stroke="black" stroke-width="2" mask="url(#path-6-inside-6_28_110)"/>
<path d="M52.7075 129.415C51.2969 130.082 49.6194 131.341 48.1325 132.866L46.9888 134.028L48.7044 135.572C52.1738 138.699 55.4525 142.34 57.9878 145.866C58.7122 146.896 59.3794 148.001 59.4747 148.344C59.57 148.687 59.8369 150.212 60.0847 151.737C60.4469 154.158 60.5041 155.245 60.5231 160.544V166.606H61.991C63.9544 166.606 66.1656 166.282 67.6716 165.787C68.8725 165.386 68.9106 165.348 69.0441 164.605C69.4063 162.489 69.0822 155.15 68.415 150.517C67.8622 146.724 67.3666 144.761 66.6803 143.636C64.755 140.567 61.7813 136.792 58.9791 133.819C57.0156 131.76 54.08 128.862 53.9275 128.862C53.8894 128.862 53.3366 129.11 52.7075 129.415Z" stroke="black" stroke-width="2" mask="url(#path-6-inside-6_28_110)"/>
<path d="M186.85 131.951C182.866 135.973 180.655 138.622 177.948 142.702C176.576 144.742 176.252 145.809 175.585 150.537C174.898 155.264 174.593 162.47 174.956 164.605C175.089 165.348 175.127 165.386 176.328 165.787C177.834 166.282 180.045 166.606 182.009 166.606H183.476V160.563C183.495 155.226 183.534 154.158 183.915 151.737C184.163 150.212 184.43 148.687 184.525 148.344C185.02 146.457 190.949 139.461 195.39 135.477L197.011 134.028L195.867 132.866C194.056 131.017 191.807 129.434 190.32 128.977C190.015 128.882 189.367 129.434 186.85 131.951Z" stroke="black" stroke-width="2" mask="url(#path-6-inside-6_28_110)"/>
<path d="M79.2998 174.975C78.6707 175.089 78.6136 175.165 78.2132 176.328C77.7176 177.834 77.3936 180.064 77.3936 182.009V183.477H83.4554C88.7548 183.496 89.8414 183.553 92.2623 183.915C93.7873 184.163 95.3123 184.43 95.6554 184.525C97.5426 185.021 104.539 190.949 108.523 195.391L109.971 197.011L111.134 195.867C112.697 194.342 113.917 192.703 114.623 191.235L115.175 190.034L113.689 188.471C109.171 183.801 104.825 180.16 100.326 177.3C99.182 176.595 97.4473 176.157 93.4061 175.566C88.8692 174.918 81.3967 174.593 79.2998 174.975Z" stroke="black" stroke-width="2" mask="url(#path-6-inside-6_28_110)"/>
<path d="M155.645 175.013C152.938 175.203 148.687 175.794 146.362 176.309C144.627 176.69 143.712 177.167 140.795 179.245C137.555 181.551 133.475 185.135 130.311 188.471L128.824 190.034L129.377 191.235C130.082 192.703 131.302 194.342 132.865 195.867L134.028 197.011L135.477 195.391C139.461 190.949 146.457 185.021 148.344 184.525C148.687 184.43 150.212 184.163 151.737 183.915C154.158 183.553 155.245 183.496 160.563 183.477H166.606V182.009C166.606 180.045 166.282 177.834 165.786 176.328C165.386 175.127 165.348 175.089 164.605 174.956C163.594 174.784 158.524 174.822 155.645 175.013Z" stroke="black" stroke-width="2" mask="url(#path-6-inside-6_28_110)"/>
<path d="M56.0243 181.647L54.7471 184.201L55.6239 185.859L56.5008 187.499L58.1402 188.376L59.7986 189.252L62.353 187.975L64.9074 186.717L64.8883 182.924V179.111H61.0758L57.2824 179.092L56.0243 181.647Z" stroke="black" stroke-width="2" mask="url(#path-6-inside-6_28_110)"/>
<path d="M179.169 179.187C179.169 179.245 179.13 180.96 179.13 183L179.092 186.717L181.647 187.975L184.201 189.252L185.859 188.376L187.499 187.499L188.376 185.859L189.253 184.201L187.975 181.647L186.717 179.092H182.962C180.884 179.092 179.188 179.13 179.169 179.187Z" stroke="black" stroke-width="2" mask="url(#path-6-inside-6_28_110)"/>
<path d="M119.712 205.093C118.511 206.332 117.272 207.514 116.986 207.705L116.453 208.067L116.948 209.192C117.215 209.802 117.635 211.003 117.882 211.861C118.13 212.699 118.454 213.462 118.588 213.538C118.74 213.614 119.56 213.9 120.437 214.167L122 214.682L123.582 214.167C124.44 213.9 125.26 213.614 125.412 213.538C125.545 213.462 125.87 212.699 126.117 211.861C126.365 211.003 126.785 209.802 127.051 209.192L127.547 208.067L127.013 207.705C126.727 207.514 125.488 206.332 124.287 205.093C123.086 203.835 122.057 202.825 122 202.825C121.943 202.825 120.913 203.835 119.712 205.093Z" stroke="black" stroke-width="2" mask="url(#path-6-inside-6_28_110)"/>
</g>
<defs>
<clipPath id="clip0_28_110">
<rect width="244" height="244" fill="white"/>
</clipPath>
</defs>
</svg>
