<svg width="244" height="244" viewBox="0 0 244 244" fill="none" xmlns="http://www.w3.org/2000/svg">
<g clip-path="url(#clip0_29_20)">
<mask id="path-1-inside-1_29_20" fill="white">
<path d="M75.9831 22.0549C75.4494 26.4582 75.2969 28.8791 75.2969 33.454C75.2969 43.0994 76.8028 52.6305 79.6622 61.075C80.0816 62.3331 80.4056 63.3815 80.3675 63.4197C80.3294 63.4578 79.8909 62.4856 79.3953 61.2466C75.2969 51.0293 73.3144 41.8413 73.0666 32.0625C73.0094 29.7369 72.9331 27.8497 72.895 27.8879C72.8569 27.926 72.6663 28.8982 72.4947 30.0419C72.0944 32.6915 72.0372 42.4704 72.3994 45.7491C73.1047 52.0968 74.6869 60.465 76.0022 64.7159C76.1166 65.0781 76.0975 65.0781 75.5638 64.7159C66.5472 58.7876 55.6816 53.7361 47.5609 51.6774C45.8453 51.258 42.2044 50.5146 41.8613 50.5337C41.7469 50.5337 42.9478 50.9912 44.5109 51.544C54.8047 55.1467 64.6791 60.9797 72.8188 68.2614C73.4288 68.7952 73.3906 68.7952 72.5328 68.1661C62.3916 60.8653 53.5084 56.5001 42.4331 53.3549C39.8597 52.6305 33.6263 51.2771 32.8828 51.2771C32.4444 51.2771 32.8256 51.6393 38.7731 56.6907C45.1781 62.1044 48.7809 65.4021 53.4703 70.1677C61.8959 78.7456 66.2613 83.8543 70.4931 90.202C74.3628 95.9968 78.0228 102.974 80.2531 108.749C80.6344 109.741 81.0538 110.274 83.3794 112.619C85.9147 115.173 87.6875 116.698 87.6875 116.317C87.6875 115.631 85.3428 108.616 83.7797 104.651C81.8163 99.6949 80.2722 96.34 75.8878 87.5142C71.4081 78.5169 70.5313 76.1913 71.4081 75.4669C72.285 74.7426 76.8981 77.1635 80.2531 80.1372C87.8209 86.828 96.4944 101.754 98.2672 111.17C98.4006 111.933 98.9153 113.667 99.3919 115.002C99.8684 116.355 100.517 118.376 100.822 119.5L101.374 121.559L99.3347 123.179C98.2291 124.075 96.4563 125.391 95.4078 126.096C94.3594 126.801 92.9488 127.907 92.2625 128.555C90.6041 130.118 88.8313 131.414 85.7622 133.244C78.0609 137.876 68.6822 141.422 61.3622 142.508C58.6744 142.89 54.1184 142.813 52.1169 142.318C50.8397 142.013 49.9438 141.479 49.9438 141.041C49.9438 140.564 51.6213 139.134 53.4131 138.067C54.4997 137.438 57.95 135.589 61.0953 133.95C69.8641 129.432 73.6384 127.278 78.9188 123.808C81.8353 121.883 87.3063 117.88 87.3063 117.67C87.3063 117.461 84.0084 117.785 80.9394 118.28C78.3659 118.7 77.8131 118.852 77.1078 119.329C75.6209 120.358 70.3597 123.294 67.4241 124.743C60.2375 128.269 52.4981 130.957 44.4156 132.749C34.5031 134.941 24.1522 136.447 14.1063 137.152C8.57813 137.552 5.52813 137.8 4.97532 137.934L4.51782 138.029L5.07063 138.353C6.65282 139.287 12.0094 141.593 15.4406 142.794C17.8806 143.671 22.6272 145.006 25.4294 145.635C31.4341 146.969 36.2188 147.541 42.7 147.712C47.275 147.827 47.4656 147.846 45.8453 148.017C43.31 148.303 32.7303 148.246 30.0234 147.96C24.4572 147.35 18.5669 146.168 13.8775 144.72C12.5241 144.3 11.4375 143.995 11.4375 144.033C11.4375 144.072 12.1809 144.472 13.115 144.891C19.9013 148.056 27.9075 150.248 37.4578 151.544C39.8406 151.868 44.9684 152.306 46.2838 152.306C46.9319 152.306 47.4656 152.364 47.4656 152.44C47.4656 152.535 46.3791 153.507 45.0256 154.613C37.6294 160.808 31.0147 168.014 26.6303 174.704C25.1053 177.049 23.1228 180.518 23.3134 180.518C23.3706 180.518 23.9425 179.775 24.6097 178.86C29.0322 172.76 35.7041 166.203 42.5284 161.227C44.4728 159.817 48.4188 157.224 49.9438 156.367L50.4203 156.081L49.9438 156.481C49.6769 156.691 48.5713 157.51 47.4656 158.33C43.9963 160.865 41.1941 163.324 37.5341 166.965C32.3681 172.131 28.7844 176.592 25.1625 182.348C24.0188 184.159 21.1594 189.192 21.1594 189.382C21.1594 189.573 22.5509 188.772 26.2109 186.504C37.1147 179.756 42.7 176.687 52.2313 172.226C65.6131 165.974 76.6122 163 90.4134 161.914C92.0338 161.799 92.2244 161.723 94.8931 160.351C96.4372 159.569 98.2481 158.578 98.9153 158.158L100.135 157.377L99.4872 157.205C99.125 157.11 96.3419 157.072 93.1203 157.129C85.2475 157.282 79.9291 157.834 67.4813 159.741C59.4559 160.98 57.34 161.094 56.3869 160.312C56.0056 160.007 55.9866 159.931 56.2344 159.34C56.6347 158.368 59.5322 155.585 61.5719 154.232C68.5106 149.6 79.9863 146.206 91.4238 145.406C94.0734 145.215 95.1219 145.234 96.8756 145.425C98.0575 145.558 100.822 145.673 103.033 145.654C105.244 145.654 107.551 145.692 108.161 145.787L109.285 145.921L110.124 148.094C110.582 149.275 111.268 151.334 111.63 152.669C112.011 153.984 112.564 155.547 112.85 156.119C114.489 159.321 115.976 165.059 116.872 171.75C117.368 175.543 117.578 183.644 117.253 186.923C116.682 192.527 115.042 197.674 113.098 199.962C112.259 200.934 111.783 200.915 111.192 199.866C110.486 198.608 110.029 196.53 108.656 188.296C106.864 177.583 105.74 172.245 104.062 166.431C103.376 164.087 101.946 159.76 101.489 158.692L101.165 157.93L100.898 158.692C100.745 159.112 100.345 161.151 99.9828 163.248L99.3347 167.022L99.9828 169.729C101.87 177.564 102.747 184.979 102.747 193.099C102.747 199.352 102.423 203.412 101.203 212.257C100.097 220.358 99.2966 224.476 96.7422 235.131C95.8653 238.791 95.0838 242.108 95.0266 242.47L94.8931 243.137L95.7891 242.28C98.0384 240.126 102.289 235.036 104.806 231.471C109.933 224.228 114.585 214.792 116.968 206.862C117.253 205.89 117.52 205.147 117.558 205.185C117.692 205.318 116.053 211.475 115.138 214.258C112.412 222.569 108.904 229.489 103.509 237.228L102.709 238.372L104.291 236.752C110.2 230.671 116.377 220.434 120.78 209.455C121.39 207.911 121.943 206.633 122 206.633C122.057 206.633 122.305 207.167 122.553 207.815C126.918 219.233 133.514 230.366 139.576 236.618C141.253 238.334 141.272 238.353 140.472 237.228C135.172 229.641 131.588 222.569 128.863 214.258C127.948 211.475 126.308 205.318 126.442 205.185C126.48 205.147 126.747 205.909 127.033 206.881C130.159 217.384 136.602 229.012 144.132 237.819C146.152 240.164 148.897 243.08 149.012 242.985C149.107 242.871 148.668 240.888 147.258 235.131C144.532 223.999 143.121 216.164 141.939 205.49C140.548 193.061 141.234 181.281 144.017 169.729L144.665 167.06L144.017 163.248C143.655 161.17 143.255 159.112 143.102 158.692L142.816 157.93L142.588 158.502C141.368 161.59 139.881 166.393 138.699 171.083C137.631 175.391 136.735 179.908 135.344 188.277C134.619 192.604 133.857 196.816 133.628 197.636C133.152 199.428 132.503 200.61 132.008 200.686C130.693 200.877 128.367 196.035 127.357 191.06C126.137 185.055 126.365 174.781 127.909 166.794C128.786 162.352 129.987 158.387 131.131 156.157C131.436 155.547 131.989 153.984 132.37 152.669C132.732 151.334 133.418 149.275 133.876 148.094L134.715 145.921L135.839 145.787C136.449 145.692 138.775 145.654 140.967 145.654C143.274 145.673 145.733 145.577 146.781 145.444C151.776 144.777 162.279 146.245 170.323 148.723C174.86 150.114 179.264 152.116 182.428 154.232C184.582 155.661 187.251 158.235 187.689 159.264C187.975 159.988 187.975 160.027 187.594 160.332C186.66 161.094 184.525 160.98 176.519 159.741C164.071 157.834 158.753 157.282 150.88 157.129C147.658 157.072 144.875 157.11 144.513 157.205L143.865 157.377L145.085 158.158C145.752 158.578 147.563 159.569 149.107 160.351C151.776 161.723 151.966 161.799 153.587 161.914C167.388 163 178.387 165.974 191.769 172.226C201.243 176.668 206.866 179.737 217.027 186.046C221.182 188.639 222.841 189.592 222.841 189.382C222.841 189.23 220.019 184.216 219.257 182.996C215.158 176.515 211.765 172.283 206.466 166.965C202.806 163.324 200.004 160.865 196.534 158.33C195.429 157.51 194.323 156.691 194.056 156.481L193.58 156.081L194.056 156.367C195.581 157.224 199.527 159.817 201.472 161.227C208.258 166.165 214.663 172.474 219.257 178.688C220.839 180.842 220.934 180.861 219.886 178.898C215.902 171.368 207.896 162.085 198.974 154.613C197.621 153.507 196.534 152.535 196.534 152.44C196.534 152.364 197.068 152.306 197.735 152.306C199.032 152.306 204.159 151.868 206.542 151.544C213.271 150.629 219.123 149.295 224.537 147.446C227.32 146.473 232.029 144.491 232.448 144.11C232.543 144.014 231.514 144.281 230.161 144.701C225.433 146.168 219.543 147.35 213.977 147.96C211.27 148.246 200.69 148.303 198.155 148.017C196.534 147.846 196.725 147.827 201.3 147.712C212.394 147.407 222.326 145.387 232.372 141.346C234.678 140.412 238.014 138.906 238.929 138.353L239.482 138.029L239.025 137.934C238.472 137.8 235.422 137.552 229.894 137.152C219.848 136.447 209.497 134.941 199.584 132.749C188.204 130.232 177.262 125.81 167.769 119.863L165.996 118.757L163.023 118.28C160.011 117.785 156.694 117.461 156.694 117.67C156.694 117.842 161.059 121.102 163.842 122.989C169.008 126.496 173.812 129.26 182.809 133.911C186.012 135.551 189.5 137.438 190.587 138.067C192.379 139.134 194.056 140.564 194.056 141.041C194.056 141.479 193.16 142.013 191.883 142.318C189.882 142.813 185.326 142.89 182.638 142.508C175.203 141.403 165.691 137.781 157.914 133.054C155.073 131.338 153.32 130.061 151.738 128.555C151.051 127.907 149.66 126.82 148.649 126.134C147.62 125.467 145.847 124.152 144.703 123.237L142.626 121.559L143.178 119.5C143.483 118.376 144.132 116.355 144.608 115.002C145.085 113.667 145.599 111.933 145.733 111.17C146.419 107.568 147.887 103.622 150.403 98.6465C155.15 89.2679 161.212 81.5096 166.644 77.8688C169.351 76.0579 172.001 74.9904 172.592 75.4669C173.469 76.1913 172.592 78.5169 168.112 87.5142C163.728 96.34 162.184 99.6949 160.22 104.651C158.657 108.616 156.313 115.631 156.313 116.317C156.313 116.698 158.085 115.173 160.621 112.619C162.946 110.274 163.366 109.741 163.747 108.749C165.272 104.804 168.093 99.0277 170.571 94.834C175.394 86.6755 180.522 80.3468 190.434 70.263C195.219 65.4212 198.784 62.1234 205.227 56.6907C211.174 51.6393 211.556 51.2771 211.117 51.2771C210.927 51.2771 209.287 51.5821 207.476 51.9443C195.905 54.308 185.059 58.9019 175.184 65.6118C173.659 66.6412 172.001 67.804 171.467 68.1852C170.19 69.1192 170.686 68.6236 172.897 66.7937C181.17 59.855 189.71 54.9751 199.489 51.544C201.071 50.9912 202.253 50.5337 202.139 50.5337C201.796 50.5146 198.155 51.258 196.439 51.6774C188.318 53.7361 177.453 58.7876 168.436 64.7159C167.903 65.0781 167.883 65.0781 167.998 64.7159C169.466 59.6454 170.8 52.7449 171.505 46.6069C172.096 41.441 171.906 30.8806 171.2 28.25C171.105 27.9641 171.01 29.6416 170.933 32.0243C170.686 41.8604 168.703 51.0293 164.605 61.2466C164.109 62.4856 163.671 63.4578 163.633 63.4197C163.594 63.3815 163.918 62.3331 164.338 61.075C166.358 55.0705 167.807 48.0175 168.417 41.0217C168.951 35.1124 168.703 26.3248 167.864 20.9683L167.617 19.348L167.083 20.4918C166.797 21.1208 165.596 23.9992 164.414 26.8776C160.411 36.6564 157.971 41.8223 153.491 50.0381C148.726 58.7876 145.256 64.0678 140.319 69.958C138.013 72.741 131.322 79.47 128.577 81.7765L126.48 83.5493L124.821 86.847C123.182 90.1638 122.458 91.8794 122.743 91.8794C122.991 91.8794 127.299 88.8867 129.434 87.2283C134.505 83.3015 138.756 79.47 146.877 71.4829C152.672 65.7834 154.425 64.2584 155.664 63.8581C156.713 63.4959 156.98 63.8772 156.942 65.6309C156.789 71.9404 152.062 80.5565 143.788 89.6492C139.823 93.9953 134.295 98.6655 131.417 100.114C130.693 100.476 129.358 101.353 128.481 102.059C127.585 102.764 125.774 104.079 124.44 104.975L122 106.595L119.579 104.975C118.226 104.079 116.415 102.764 115.519 102.059C114.642 101.353 113.308 100.476 112.583 100.114C109.705 98.6655 104.177 93.9953 100.212 89.6492C91.9194 80.5375 87.2109 71.9404 87.0584 65.6309C87.0203 63.8772 87.2872 63.4959 88.3356 63.8581C89.5747 64.2584 91.3094 65.7834 97.6381 71.9786C105.911 80.099 110.467 84.1783 115.709 88.0861C118.111 89.897 121.028 91.8794 121.257 91.8794C121.543 91.8794 120.818 90.1257 119.16 86.847L117.52 83.5493L115.423 81.7765C112.659 79.4509 105.988 72.722 103.681 69.958C97.5428 62.6191 92.7581 54.8989 86.3913 42.1273C83.9513 37.2474 82.3309 33.5874 79.1475 25.8292C77.2794 21.2733 76.4788 19.4433 76.3834 19.4433C76.3453 19.4433 76.1738 20.6252 75.9831 22.0549ZM85.9719 74.247C94.3022 87.8954 105.511 99.123 118.683 107.053C120.704 108.254 121.848 108.845 122.133 108.788C122.362 108.749 123.868 107.911 125.488 106.938C140.128 98.1509 152.862 84.5405 160.907 69.1002C161.726 67.518 162.413 66.298 162.413 66.3743C162.413 66.6412 160.449 71.0445 159.229 73.4845C150.88 90.1638 137.498 103.469 124.059 108.444L122 109.207L119.998 108.463C113.117 105.909 106.674 101.563 100.269 95.139C93.9209 88.7723 88.9266 81.7956 84.79 73.4845C83.4747 70.8348 81.5875 66.6793 81.5875 66.4124C81.5875 66.3171 82.2738 67.518 83.0934 69.1002C83.9131 70.6633 85.2094 72.9889 85.9719 74.247ZM82.4453 77.0491C94.855 89.7063 102.613 104.975 103.7 118.852C103.986 122.436 104.043 122.15 102.671 123.904C96.1322 132.196 85.6097 139.02 72.6472 143.347C66.4138 145.425 58.2931 147.083 52.4219 147.446C50.935 147.541 51.0494 147.503 53.8706 146.988C71.9991 143.728 88.3738 135.894 101.679 124.113L103.643 122.36L103.376 120.892C101.927 113.153 98.2481 103.05 94.0544 95.2534C89.4984 86.8089 84.6566 80.1943 77.3938 72.5504L75.5828 70.6442L77.5844 72.3789C78.69 73.332 80.8822 75.4288 82.4453 77.0491ZM165.863 73.332C158.733 80.8806 153.415 88.372 148.973 97.1215C145.237 104.499 141.958 113.839 140.605 120.987L140.357 122.36L142.283 124.056C155.703 135.951 171.944 143.728 190.129 146.988C192.951 147.503 193.065 147.541 191.578 147.446C185.707 147.083 177.586 145.425 171.353 143.347C158.371 139.02 147.887 132.215 141.291 123.847C139.957 122.169 140.014 122.436 140.3 118.776C141.12 108.311 146.038 96.3971 153.911 85.913C156.465 82.5009 158.219 80.4421 161.269 77.316C163.404 75.1238 168.055 70.7586 168.284 70.7205C168.322 70.7205 167.235 71.9023 165.863 73.332ZM109.895 109.664C112.088 110.999 116.529 113.172 119.484 114.354L122 115.364L124.535 114.354C127.681 113.096 132.389 110.751 134.772 109.245C135.763 108.616 136.602 108.12 136.621 108.158C136.64 108.178 136.449 109.016 136.202 110.008C135.573 112.505 134.848 117.003 134.6 120.091C134.486 121.502 134.353 123.027 134.314 123.484C134.238 124.285 134.295 124.342 136.583 127.011C138.947 129.756 143.121 133.93 144.742 135.15C145.218 135.513 145.638 135.875 145.638 135.951C145.638 136.046 145.142 136.104 144.532 136.104C140.967 136.104 130.235 138.143 129.473 138.963C128.348 140.183 124.002 148.227 122.743 151.391C122.381 152.325 122.057 153.069 122 153.069C121.943 153.069 121.619 152.325 121.257 151.391C119.998 148.227 115.652 140.183 114.528 138.963C113.765 138.143 103.033 136.104 99.4681 136.104C98.8581 136.104 98.3625 136.046 98.3625 135.951C98.3625 135.875 98.7819 135.513 99.2584 135.15C100.86 133.93 105.053 129.756 107.417 127.011L109.743 124.304L109.667 123.294C109.19 116.908 108.408 111.837 107.379 108.368C107.265 108.006 107.284 108.006 107.818 108.368C108.123 108.578 109.057 109.15 109.895 109.664ZM103.128 141.918C105.663 142.299 110.296 143.442 110.715 143.786C111.325 144.262 113.67 148.113 114.852 150.495C117.463 155.871 119.236 161.799 120.265 168.7C120.913 173.065 121.104 176.553 120.99 182.12C120.856 188.62 120.456 192.165 119.103 198.799C118.435 202.039 118.168 202.402 118.645 199.428C119.255 195.635 119.541 192.127 119.655 187.19C119.903 175.524 118.34 164.964 114.756 154.213C113.651 150.896 111.325 145.006 110.772 144.129C110.429 143.595 106.102 143.29 99.0297 143.271C92.2434 143.252 90.8138 143.347 85.2094 144.129C75.1063 145.558 64.6791 148.78 55.7006 153.279C54.0803 154.079 52.8413 154.67 52.9366 154.575C53.3941 154.117 58.4647 151.296 61.4766 149.828C71.1031 145.12 79.9672 142.623 90.6422 141.555C92.6628 141.365 101.031 141.593 103.128 141.918ZM156.694 141.898C167.502 143.347 178.73 147.255 188.433 152.974C191.54 154.784 191.902 155.147 189.291 153.755C180.655 149.237 169.142 145.596 158.791 144.129C153.453 143.385 151.413 143.252 144.78 143.271C137.898 143.29 133.552 143.614 133.228 144.129C132.675 145.006 130.349 150.896 129.244 154.213C126.594 162.123 125.05 170.072 124.459 178.726C124.04 184.712 124.44 193.652 125.355 199.428C125.832 202.402 125.565 202.039 124.898 198.799C123.544 192.165 123.144 188.62 123.01 182.12C122.896 176.553 123.087 173.065 123.735 168.7C124.764 161.799 126.537 155.871 129.148 150.495C130.33 148.113 132.675 144.262 133.285 143.786C133.971 143.214 139.461 142.07 143.922 141.555C145.599 141.365 154.444 141.613 156.694 141.898Z"/>
</mask>
<path d="M75.9831 22.0549C75.4494 26.4582 75.2969 28.8791 75.2969 33.454C75.2969 43.0994 76.8028 52.6305 79.6622 61.075C80.0816 62.3331 80.4056 63.3815 80.3675 63.4197C80.3294 63.4578 79.8909 62.4856 79.3953 61.2466C75.2969 51.0293 73.3144 41.8413 73.0666 32.0625C73.0094 29.7369 72.9331 27.8497 72.895 27.8879C72.8569 27.926 72.6663 28.8982 72.4947 30.0419C72.0944 32.6915 72.0372 42.4704 72.3994 45.7491C73.1047 52.0968 74.6869 60.465 76.0022 64.7159C76.1166 65.0781 76.0975 65.0781 75.5638 64.7159C66.5472 58.7876 55.6816 53.7361 47.5609 51.6774C45.8453 51.258 42.2044 50.5146 41.8613 50.5337C41.7469 50.5337 42.9478 50.9912 44.5109 51.544C54.8047 55.1467 64.6791 60.9797 72.8188 68.2614C73.4288 68.7952 73.3906 68.7952 72.5328 68.1661C62.3916 60.8653 53.5084 56.5001 42.4331 53.3549C39.8597 52.6305 33.6263 51.2771 32.8828 51.2771C32.4444 51.2771 32.8256 51.6393 38.7731 56.6907C45.1781 62.1044 48.7809 65.4021 53.4703 70.1677C61.8959 78.7456 66.2613 83.8543 70.4931 90.202C74.3628 95.9968 78.0228 102.974 80.2531 108.749C80.6344 109.741 81.0538 110.274 83.3794 112.619C85.9147 115.173 87.6875 116.698 87.6875 116.317C87.6875 115.631 85.3428 108.616 83.7797 104.651C81.8163 99.6949 80.2722 96.34 75.8878 87.5142C71.4081 78.5169 70.5313 76.1913 71.4081 75.4669C72.285 74.7426 76.8981 77.1635 80.2531 80.1372C87.8209 86.828 96.4944 101.754 98.2672 111.17C98.4006 111.933 98.9153 113.667 99.3919 115.002C99.8684 116.355 100.517 118.376 100.822 119.5L101.374 121.559L99.3347 123.179C98.2291 124.075 96.4563 125.391 95.4078 126.096C94.3594 126.801 92.9488 127.907 92.2625 128.555C90.6041 130.118 88.8313 131.414 85.7622 133.244C78.0609 137.876 68.6822 141.422 61.3622 142.508C58.6744 142.89 54.1184 142.813 52.1169 142.318C50.8397 142.013 49.9438 141.479 49.9438 141.041C49.9438 140.564 51.6213 139.134 53.4131 138.067C54.4997 137.438 57.95 135.589 61.0953 133.95C69.8641 129.432 73.6384 127.278 78.9188 123.808C81.8353 121.883 87.3063 117.88 87.3063 117.67C87.3063 117.461 84.0084 117.785 80.9394 118.28C78.3659 118.7 77.8131 118.852 77.1078 119.329C75.6209 120.358 70.3597 123.294 67.4241 124.743C60.2375 128.269 52.4981 130.957 44.4156 132.749C34.5031 134.941 24.1522 136.447 14.1063 137.152C8.57813 137.552 5.52813 137.8 4.97532 137.934L4.51782 138.029L5.07063 138.353C6.65282 139.287 12.0094 141.593 15.4406 142.794C17.8806 143.671 22.6272 145.006 25.4294 145.635C31.4341 146.969 36.2188 147.541 42.7 147.712C47.275 147.827 47.4656 147.846 45.8453 148.017C43.31 148.303 32.7303 148.246 30.0234 147.96C24.4572 147.35 18.5669 146.168 13.8775 144.72C12.5241 144.3 11.4375 143.995 11.4375 144.033C11.4375 144.072 12.1809 144.472 13.115 144.891C19.9013 148.056 27.9075 150.248 37.4578 151.544C39.8406 151.868 44.9684 152.306 46.2838 152.306C46.9319 152.306 47.4656 152.364 47.4656 152.44C47.4656 152.535 46.3791 153.507 45.0256 154.613C37.6294 160.808 31.0147 168.014 26.6303 174.704C25.1053 177.049 23.1228 180.518 23.3134 180.518C23.3706 180.518 23.9425 179.775 24.6097 178.86C29.0322 172.76 35.7041 166.203 42.5284 161.227C44.4728 159.817 48.4188 157.224 49.9438 156.367L50.4203 156.081L49.9438 156.481C49.6769 156.691 48.5713 157.51 47.4656 158.33C43.9963 160.865 41.1941 163.324 37.5341 166.965C32.3681 172.131 28.7844 176.592 25.1625 182.348C24.0188 184.159 21.1594 189.192 21.1594 189.382C21.1594 189.573 22.5509 188.772 26.2109 186.504C37.1147 179.756 42.7 176.687 52.2313 172.226C65.6131 165.974 76.6122 163 90.4134 161.914C92.0338 161.799 92.2244 161.723 94.8931 160.351C96.4372 159.569 98.2481 158.578 98.9153 158.158L100.135 157.377L99.4872 157.205C99.125 157.11 96.3419 157.072 93.1203 157.129C85.2475 157.282 79.9291 157.834 67.4813 159.741C59.4559 160.98 57.34 161.094 56.3869 160.312C56.0056 160.007 55.9866 159.931 56.2344 159.34C56.6347 158.368 59.5322 155.585 61.5719 154.232C68.5106 149.6 79.9863 146.206 91.4238 145.406C94.0734 145.215 95.1219 145.234 96.8756 145.425C98.0575 145.558 100.822 145.673 103.033 145.654C105.244 145.654 107.551 145.692 108.161 145.787L109.285 145.921L110.124 148.094C110.582 149.275 111.268 151.334 111.63 152.669C112.011 153.984 112.564 155.547 112.85 156.119C114.489 159.321 115.976 165.059 116.872 171.75C117.368 175.543 117.578 183.644 117.253 186.923C116.682 192.527 115.042 197.674 113.098 199.962C112.259 200.934 111.783 200.915 111.192 199.866C110.486 198.608 110.029 196.53 108.656 188.296C106.864 177.583 105.74 172.245 104.062 166.431C103.376 164.087 101.946 159.76 101.489 158.692L101.165 157.93L100.898 158.692C100.745 159.112 100.345 161.151 99.9828 163.248L99.3347 167.022L99.9828 169.729C101.87 177.564 102.747 184.979 102.747 193.099C102.747 199.352 102.423 203.412 101.203 212.257C100.097 220.358 99.2966 224.476 96.7422 235.131C95.8653 238.791 95.0838 242.108 95.0266 242.47L94.8931 243.137L95.7891 242.28C98.0384 240.126 102.289 235.036 104.806 231.471C109.933 224.228 114.585 214.792 116.968 206.862C117.253 205.89 117.52 205.147 117.558 205.185C117.692 205.318 116.053 211.475 115.138 214.258C112.412 222.569 108.904 229.489 103.509 237.228L102.709 238.372L104.291 236.752C110.2 230.671 116.377 220.434 120.78 209.455C121.39 207.911 121.943 206.633 122 206.633C122.057 206.633 122.305 207.167 122.553 207.815C126.918 219.233 133.514 230.366 139.576 236.618C141.253 238.334 141.272 238.353 140.472 237.228C135.172 229.641 131.588 222.569 128.863 214.258C127.948 211.475 126.308 205.318 126.442 205.185C126.48 205.147 126.747 205.909 127.033 206.881C130.159 217.384 136.602 229.012 144.132 237.819C146.152 240.164 148.897 243.08 149.012 242.985C149.107 242.871 148.668 240.888 147.258 235.131C144.532 223.999 143.121 216.164 141.939 205.49C140.548 193.061 141.234 181.281 144.017 169.729L144.665 167.06L144.017 163.248C143.655 161.17 143.255 159.112 143.102 158.692L142.816 157.93L142.588 158.502C141.368 161.59 139.881 166.393 138.699 171.083C137.631 175.391 136.735 179.908 135.344 188.277C134.619 192.604 133.857 196.816 133.628 197.636C133.152 199.428 132.503 200.61 132.008 200.686C130.693 200.877 128.367 196.035 127.357 191.06C126.137 185.055 126.365 174.781 127.909 166.794C128.786 162.352 129.987 158.387 131.131 156.157C131.436 155.547 131.989 153.984 132.37 152.669C132.732 151.334 133.418 149.275 133.876 148.094L134.715 145.921L135.839 145.787C136.449 145.692 138.775 145.654 140.967 145.654C143.274 145.673 145.733 145.577 146.781 145.444C151.776 144.777 162.279 146.245 170.323 148.723C174.86 150.114 179.264 152.116 182.428 154.232C184.582 155.661 187.251 158.235 187.689 159.264C187.975 159.988 187.975 160.027 187.594 160.332C186.66 161.094 184.525 160.98 176.519 159.741C164.071 157.834 158.753 157.282 150.88 157.129C147.658 157.072 144.875 157.11 144.513 157.205L143.865 157.377L145.085 158.158C145.752 158.578 147.563 159.569 149.107 160.351C151.776 161.723 151.966 161.799 153.587 161.914C167.388 163 178.387 165.974 191.769 172.226C201.243 176.668 206.866 179.737 217.027 186.046C221.182 188.639 222.841 189.592 222.841 189.382C222.841 189.23 220.019 184.216 219.257 182.996C215.158 176.515 211.765 172.283 206.466 166.965C202.806 163.324 200.004 160.865 196.534 158.33C195.429 157.51 194.323 156.691 194.056 156.481L193.58 156.081L194.056 156.367C195.581 157.224 199.527 159.817 201.472 161.227C208.258 166.165 214.663 172.474 219.257 178.688C220.839 180.842 220.934 180.861 219.886 178.898C215.902 171.368 207.896 162.085 198.974 154.613C197.621 153.507 196.534 152.535 196.534 152.44C196.534 152.364 197.068 152.306 197.735 152.306C199.032 152.306 204.159 151.868 206.542 151.544C213.271 150.629 219.123 149.295 224.537 147.446C227.32 146.473 232.029 144.491 232.448 144.11C232.543 144.014 231.514 144.281 230.161 144.701C225.433 146.168 219.543 147.35 213.977 147.96C211.27 148.246 200.69 148.303 198.155 148.017C196.534 147.846 196.725 147.827 201.3 147.712C212.394 147.407 222.326 145.387 232.372 141.346C234.678 140.412 238.014 138.906 238.929 138.353L239.482 138.029L239.025 137.934C238.472 137.8 235.422 137.552 229.894 137.152C219.848 136.447 209.497 134.941 199.584 132.749C188.204 130.232 177.262 125.81 167.769 119.863L165.996 118.757L163.023 118.28C160.011 117.785 156.694 117.461 156.694 117.67C156.694 117.842 161.059 121.102 163.842 122.989C169.008 126.496 173.812 129.26 182.809 133.911C186.012 135.551 189.5 137.438 190.587 138.067C192.379 139.134 194.056 140.564 194.056 141.041C194.056 141.479 193.16 142.013 191.883 142.318C189.882 142.813 185.326 142.89 182.638 142.508C175.203 141.403 165.691 137.781 157.914 133.054C155.073 131.338 153.32 130.061 151.738 128.555C151.051 127.907 149.66 126.82 148.649 126.134C147.62 125.467 145.847 124.152 144.703 123.237L142.626 121.559L143.178 119.5C143.483 118.376 144.132 116.355 144.608 115.002C145.085 113.667 145.599 111.933 145.733 111.17C146.419 107.568 147.887 103.622 150.403 98.6465C155.15 89.2679 161.212 81.5096 166.644 77.8688C169.351 76.0579 172.001 74.9904 172.592 75.4669C173.469 76.1913 172.592 78.5169 168.112 87.5142C163.728 96.34 162.184 99.6949 160.22 104.651C158.657 108.616 156.313 115.631 156.313 116.317C156.313 116.698 158.085 115.173 160.621 112.619C162.946 110.274 163.366 109.741 163.747 108.749C165.272 104.804 168.093 99.0277 170.571 94.834C175.394 86.6755 180.522 80.3468 190.434 70.263C195.219 65.4212 198.784 62.1234 205.227 56.6907C211.174 51.6393 211.556 51.2771 211.117 51.2771C210.927 51.2771 209.287 51.5821 207.476 51.9443C195.905 54.308 185.059 58.9019 175.184 65.6118C173.659 66.6412 172.001 67.804 171.467 68.1852C170.19 69.1192 170.686 68.6236 172.897 66.7937C181.17 59.855 189.71 54.9751 199.489 51.544C201.071 50.9912 202.253 50.5337 202.139 50.5337C201.796 50.5146 198.155 51.258 196.439 51.6774C188.318 53.7361 177.453 58.7876 168.436 64.7159C167.903 65.0781 167.883 65.0781 167.998 64.7159C169.466 59.6454 170.8 52.7449 171.505 46.6069C172.096 41.441 171.906 30.8806 171.2 28.25C171.105 27.9641 171.01 29.6416 170.933 32.0243C170.686 41.8604 168.703 51.0293 164.605 61.2466C164.109 62.4856 163.671 63.4578 163.633 63.4197C163.594 63.3815 163.918 62.3331 164.338 61.075C166.358 55.0705 167.807 48.0175 168.417 41.0217C168.951 35.1124 168.703 26.3248 167.864 20.9683L167.617 19.348L167.083 20.4918C166.797 21.1208 165.596 23.9992 164.414 26.8776C160.411 36.6564 157.971 41.8223 153.491 50.0381C148.726 58.7876 145.256 64.0678 140.319 69.958C138.013 72.741 131.322 79.47 128.577 81.7765L126.48 83.5493L124.821 86.847C123.182 90.1638 122.458 91.8794 122.743 91.8794C122.991 91.8794 127.299 88.8867 129.434 87.2283C134.505 83.3015 138.756 79.47 146.877 71.4829C152.672 65.7834 154.425 64.2584 155.664 63.8581C156.713 63.4959 156.98 63.8772 156.942 65.6309C156.789 71.9404 152.062 80.5565 143.788 89.6492C139.823 93.9953 134.295 98.6655 131.417 100.114C130.693 100.476 129.358 101.353 128.481 102.059C127.585 102.764 125.774 104.079 124.44 104.975L122 106.595L119.579 104.975C118.226 104.079 116.415 102.764 115.519 102.059C114.642 101.353 113.308 100.476 112.583 100.114C109.705 98.6655 104.177 93.9953 100.212 89.6492C91.9194 80.5375 87.2109 71.9404 87.0584 65.6309C87.0203 63.8772 87.2872 63.4959 88.3356 63.8581C89.5747 64.2584 91.3094 65.7834 97.6381 71.9786C105.911 80.099 110.467 84.1783 115.709 88.0861C118.111 89.897 121.028 91.8794 121.257 91.8794C121.543 91.8794 120.818 90.1257 119.16 86.847L117.52 83.5493L115.423 81.7765C112.659 79.4509 105.988 72.722 103.681 69.958C97.5428 62.6191 92.7581 54.8989 86.3913 42.1273C83.9513 37.2474 82.3309 33.5874 79.1475 25.8292C77.2794 21.2733 76.4788 19.4433 76.3834 19.4433C76.3453 19.4433 76.1738 20.6252 75.9831 22.0549ZM85.9719 74.247C94.3022 87.8954 105.511 99.123 118.683 107.053C120.704 108.254 121.848 108.845 122.133 108.788C122.362 108.749 123.868 107.911 125.488 106.938C140.128 98.1509 152.862 84.5405 160.907 69.1002C161.726 67.518 162.413 66.298 162.413 66.3743C162.413 66.6412 160.449 71.0445 159.229 73.4845C150.88 90.1638 137.498 103.469 124.059 108.444L122 109.207L119.998 108.463C113.117 105.909 106.674 101.563 100.269 95.139C93.9209 88.7723 88.9266 81.7956 84.79 73.4845C83.4747 70.8348 81.5875 66.6793 81.5875 66.4124C81.5875 66.3171 82.2738 67.518 83.0934 69.1002C83.9131 70.6633 85.2094 72.9889 85.9719 74.247ZM82.4453 77.0491C94.855 89.7063 102.613 104.975 103.7 118.852C103.986 122.436 104.043 122.15 102.671 123.904C96.1322 132.196 85.6097 139.02 72.6472 143.347C66.4138 145.425 58.2931 147.083 52.4219 147.446C50.935 147.541 51.0494 147.503 53.8706 146.988C71.9991 143.728 88.3738 135.894 101.679 124.113L103.643 122.36L103.376 120.892C101.927 113.153 98.2481 103.05 94.0544 95.2534C89.4984 86.8089 84.6566 80.1943 77.3938 72.5504L75.5828 70.6442L77.5844 72.3789C78.69 73.332 80.8822 75.4288 82.4453 77.0491ZM165.863 73.332C158.733 80.8806 153.415 88.372 148.973 97.1215C145.237 104.499 141.958 113.839 140.605 120.987L140.357 122.36L142.283 124.056C155.703 135.951 171.944 143.728 190.129 146.988C192.951 147.503 193.065 147.541 191.578 147.446C185.707 147.083 177.586 145.425 171.353 143.347C158.371 139.02 147.887 132.215 141.291 123.847C139.957 122.169 140.014 122.436 140.3 118.776C141.12 108.311 146.038 96.3971 153.911 85.913C156.465 82.5009 158.219 80.4421 161.269 77.316C163.404 75.1238 168.055 70.7586 168.284 70.7205C168.322 70.7205 167.235 71.9023 165.863 73.332ZM109.895 109.664C112.088 110.999 116.529 113.172 119.484 114.354L122 115.364L124.535 114.354C127.681 113.096 132.389 110.751 134.772 109.245C135.763 108.616 136.602 108.12 136.621 108.158C136.64 108.178 136.449 109.016 136.202 110.008C135.573 112.505 134.848 117.003 134.6 120.091C134.486 121.502 134.353 123.027 134.314 123.484C134.238 124.285 134.295 124.342 136.583 127.011C138.947 129.756 143.121 133.93 144.742 135.15C145.218 135.513 145.638 135.875 145.638 135.951C145.638 136.046 145.142 136.104 144.532 136.104C140.967 136.104 130.235 138.143 129.473 138.963C128.348 140.183 124.002 148.227 122.743 151.391C122.381 152.325 122.057 153.069 122 153.069C121.943 153.069 121.619 152.325 121.257 151.391C119.998 148.227 115.652 140.183 114.528 138.963C113.765 138.143 103.033 136.104 99.4681 136.104C98.8581 136.104 98.3625 136.046 98.3625 135.951C98.3625 135.875 98.7819 135.513 99.2584 135.15C100.86 133.93 105.053 129.756 107.417 127.011L109.743 124.304L109.667 123.294C109.19 116.908 108.408 111.837 107.379 108.368C107.265 108.006 107.284 108.006 107.818 108.368C108.123 108.578 109.057 109.15 109.895 109.664ZM103.128 141.918C105.663 142.299 110.296 143.442 110.715 143.786C111.325 144.262 113.67 148.113 114.852 150.495C117.463 155.871 119.236 161.799 120.265 168.7C120.913 173.065 121.104 176.553 120.99 182.12C120.856 188.62 120.456 192.165 119.103 198.799C118.435 202.039 118.168 202.402 118.645 199.428C119.255 195.635 119.541 192.127 119.655 187.19C119.903 175.524 118.34 164.964 114.756 154.213C113.651 150.896 111.325 145.006 110.772 144.129C110.429 143.595 106.102 143.29 99.0297 143.271C92.2434 143.252 90.8138 143.347 85.2094 144.129C75.1063 145.558 64.6791 148.78 55.7006 153.279C54.0803 154.079 52.8413 154.67 52.9366 154.575C53.3941 154.117 58.4647 151.296 61.4766 149.828C71.1031 145.12 79.9672 142.623 90.6422 141.555C92.6628 141.365 101.031 141.593 103.128 141.918ZM156.694 141.898C167.502 143.347 178.73 147.255 188.433 152.974C191.54 154.784 191.902 155.147 189.291 153.755C180.655 149.237 169.142 145.596 158.791 144.129C153.453 143.385 151.413 143.252 144.78 143.271C137.898 143.29 133.552 143.614 133.228 144.129C132.675 145.006 130.349 150.896 129.244 154.213C126.594 162.123 125.05 170.072 124.459 178.726C124.04 184.712 124.44 193.652 125.355 199.428C125.832 202.402 125.565 202.039 124.898 198.799C123.544 192.165 123.144 188.62 123.01 182.12C122.896 176.553 123.087 173.065 123.735 168.7C124.764 161.799 126.537 155.871 129.148 150.495C130.33 148.113 132.675 144.262 133.285 143.786C133.971 143.214 139.461 142.07 143.922 141.555C145.599 141.365 154.444 141.613 156.694 141.898Z" stroke="black" stroke-width="2" mask="url(#path-1-inside-1_29_20)"/>
<path d="M118.566 124.486L118.566 124.488C118.731 125.466 118.829 125.967 118.918 126.228C118.924 126.244 118.929 126.258 118.933 126.27C119.098 126.288 119.275 126.34 119.432 126.394C119.644 126.467 119.882 126.567 120.122 126.681C120.522 126.87 120.953 127.109 121.304 127.349C121.245 127.114 121.188 126.832 121.14 126.545C121.083 126.205 121.037 125.845 121.014 125.534C121.002 125.379 120.996 125.23 120.997 125.098C120.999 124.979 121.007 124.842 121.037 124.72C121.038 124.719 121.038 124.717 121.038 124.716C121.031 124.709 121.022 124.702 121.012 124.693C120.826 124.543 120.423 124.323 119.542 123.872L119.542 123.872L119.54 123.871C119.109 123.648 118.705 123.441 118.376 123.273C118.423 123.613 118.488 124.03 118.566 124.486ZM122 128.216C121.984 128.216 121.968 128.215 121.953 128.214C121.95 128.231 121.946 128.247 121.942 128.262C121.963 128.276 121.982 128.292 122 128.307C122.018 128.292 122.037 128.276 122.058 128.262C122.054 128.247 122.05 128.231 122.047 128.214C122.032 128.215 122.016 128.216 122 128.216ZM120.179 129.328C120.422 129.073 120.669 128.824 120.875 128.632C120.73 128.617 120.555 128.598 120.351 128.576C119.982 128.545 119.596 128.479 119.266 128.397C118.961 128.321 118.631 128.215 118.425 128.075C118.4 128.059 118.38 128.046 118.365 128.037C118.364 128.038 118.362 128.038 118.361 128.039C118.274 128.094 118.137 128.206 117.907 128.424C117.682 128.637 117.391 128.929 116.999 129.326L116.999 129.326L116.997 129.328C116.677 129.648 116.39 129.945 116.16 130.192C116.53 130.245 116.984 130.312 117.462 130.386C118.297 130.511 118.773 130.567 119.046 130.571C119.076 130.572 119.101 130.571 119.122 130.571C119.155 130.518 119.189 130.471 119.217 130.433C119.287 130.337 119.377 130.226 119.476 130.108C119.674 129.872 119.927 129.594 120.179 129.328ZM120.726 131.598L120.607 131.692L121.401 133.31L121.401 133.31L121.404 133.316C121.62 133.772 121.828 134.193 122 134.525C122.172 134.193 122.381 133.772 122.597 133.316L122.597 133.316L122.6 133.31L123.393 131.692L123.274 131.598L123.274 131.598L123.272 131.597C123.081 131.445 122.889 131.17 122.734 130.919C122.565 130.647 122.391 130.325 122.243 130.018C122.153 129.831 122.069 129.643 122 129.469C121.931 129.643 121.847 129.831 121.757 130.018C121.609 130.325 121.436 130.647 121.267 130.919C121.111 131.17 120.919 131.445 120.728 131.597L120.728 131.597L120.726 131.598ZM124.954 130.571C125.227 130.567 125.703 130.511 126.538 130.386C127.016 130.312 127.47 130.245 127.84 130.192C127.61 129.945 127.323 129.648 127.003 129.328L127.001 129.326C126.609 128.929 126.318 128.637 126.093 128.424C125.863 128.206 125.726 128.094 125.639 128.039C125.638 128.038 125.637 128.038 125.636 128.037C125.62 128.046 125.601 128.059 125.576 128.075C125.369 128.215 125.039 128.321 124.734 128.397C124.404 128.479 124.018 128.545 123.649 128.576C123.445 128.598 123.271 128.617 123.125 128.632C123.331 128.824 123.579 129.073 123.821 129.328C124.073 129.594 124.326 129.872 124.525 130.108C124.623 130.226 124.713 130.337 124.784 130.433C124.811 130.471 124.845 130.518 124.878 130.571C124.899 130.571 124.924 130.572 124.954 130.571ZM122.86 126.545C122.813 126.83 122.757 127.11 122.697 127.344C123.051 127.098 123.483 126.859 123.883 126.672C124.126 126.559 124.366 126.461 124.581 126.389C124.754 126.332 124.946 126.28 125.12 126.266C125.127 126.239 125.136 126.205 125.145 126.161C125.169 126.046 125.194 125.892 125.222 125.685L125.222 125.682C125.3 125.138 125.473 124.137 125.608 123.463C125.622 123.394 125.635 123.327 125.647 123.263C125.313 123.432 124.901 123.643 124.461 123.871L124.458 123.872C123.577 124.323 123.174 124.543 122.989 124.693C122.978 124.702 122.969 124.709 122.962 124.716C122.962 124.717 122.962 124.719 122.963 124.72C122.994 124.842 123.002 124.979 123.003 125.098C123.005 125.23 122.998 125.379 122.987 125.534C122.963 125.845 122.917 126.205 122.86 126.545ZM122.371 127.409C122.371 127.409 122.37 127.408 122.369 127.407C122.37 127.408 122.371 127.409 122.371 127.409ZM121.629 127.409C121.63 127.409 121.63 127.408 121.631 127.407C121.63 127.408 121.629 127.409 121.629 127.409Z" stroke="black"/>
<mask id="path-3-inside-2_29_20" fill="white">
<path d="M118.569 14.8303C117.463 17.4609 115.709 22.9317 114.851 26.401C114.375 28.2882 113.994 29.9466 113.994 30.08C113.994 30.2707 114.127 30.3088 114.47 30.2325C115.137 30.061 116.148 30.5757 116.758 31.3763C117.901 32.8631 119.255 36.3324 120.951 42.0701C121.466 43.7857 121.924 45.1772 122 45.1772C122.076 45.1772 122.534 43.7857 123.048 42.0701C124.745 36.3324 126.098 32.8631 127.242 31.3763C127.852 30.5757 128.862 30.061 129.53 30.2325C129.854 30.3088 130.006 30.2707 130.006 30.0991C129.987 28.6694 126.861 18.2234 125.431 14.8494L124.821 13.3816L124.173 13.5913C123.468 13.801 122.191 15.0591 122.191 15.5356C122.191 15.6881 122.114 15.8216 122 15.8216C121.905 15.8216 121.809 15.6881 121.809 15.5356C121.809 15.0591 120.532 13.801 119.827 13.5913L119.179 13.3816L118.569 14.8303Z"/>
<path d="M120.418 2.42094C114.089 12.4476 110.181 23.5608 108.809 35.3603C108.428 38.5437 108.504 47.1788 108.904 50.1334C109.762 56.1952 111.668 62.4094 113.956 66.5269C114.623 67.7278 114.642 67.7468 114.776 67.2322C115.004 66.4125 115.328 62.8097 115.328 61.2657C115.328 60.1601 115.214 59.5883 114.737 58.4064C112.412 52.6115 111.859 43.6142 113.251 34.4644C113.46 33.0728 113.689 31.586 113.746 31.1666L113.861 30.4041L112.984 31.1666L113.098 30.1945C113.613 25.6005 117.654 13.801 118.855 13.3435C119.084 13.2482 119.389 12.9051 119.522 12.5429C119.675 12.1998 120.266 10.9036 120.876 9.66455L121.962 7.41522L122.42 8.23489C122.667 8.69238 123.316 9.9886 123.83 11.1133C124.459 12.5048 124.898 13.2482 125.165 13.3435C126.346 13.801 130.388 25.6386 130.902 30.1945L131.017 31.1666L130.14 30.4041L130.254 31.1666C130.311 31.586 130.54 33.0347 130.731 34.4072C132.141 43.6333 131.589 52.6115 129.263 58.4064C128.767 59.6264 128.672 60.1601 128.672 61.3801C128.672 62.9622 128.996 66.3744 129.225 67.2322C129.358 67.7278 129.396 67.6896 130.045 66.5078C131.551 63.801 132.809 60.446 133.819 56.5192C135.153 51.3153 135.63 46.6832 135.458 40.6977C135.096 27.3923 130.979 14.1251 123.582 2.42094C122.801 1.20097 122.096 0.190674 122 0.190674C121.905 0.190674 121.2 1.20097 120.418 2.42094Z"/>
<path d="M117.368 41.6507C116.872 44.7388 116.777 47.7888 116.758 59.5691C116.739 73.5607 116.739 73.5607 115.5 74.6092L114.909 75.1048L117.311 79.8322C120.99 87.0758 121.905 88.8295 122 88.8295C122.114 88.8295 123.163 86.7899 126.689 79.8131L129.072 75.1048L128.5 74.6092C127.261 73.5798 127.261 73.5607 127.223 59.3785C127.204 49.2756 127.147 46.035 126.899 43.881C126.746 42.3751 126.575 41.117 126.537 41.0789C126.499 41.0217 126.251 41.6126 126.022 42.3751C125.774 43.1185 124.936 45.5394 124.154 47.7506C122.858 51.4487 122.724 51.9252 122.572 53.9458C122.057 60.5223 121.924 60.5413 121.428 54.1174C121.256 51.868 121.18 51.5631 119.751 47.4647C118.912 45.101 118.073 42.661 117.863 42.032L117.482 40.8883L117.368 41.6507Z"/>
<path d="M18.2047 85.5127C12.3334 85.8939 5.60438 86.9805 1.29625 88.2767L0 88.658L1.56313 90.6023C3.75531 93.2901 8.42563 98.0365 11.1516 100.343C21.8266 109.398 33.5119 114.983 46.0359 116.984C49.0097 117.461 57.4163 117.461 60.1422 116.984C61.1716 116.794 62.0675 116.603 62.1247 116.565C62.2581 116.412 58.6934 114.811 56.8063 114.163C55.0906 113.591 54.8619 113.572 52.4028 113.591C45.6356 113.687 38.6206 111.78 29.9663 107.529C26.7447 105.928 26.4969 105.852 26.6112 106.271C26.6684 106.538 26.6684 106.748 26.5731 106.748C26.2491 106.748 22.4175 104.48 20.1109 102.936C16.2412 100.305 11.6663 96.4163 11.7044 95.7491C11.7234 95.5203 10.8847 94.6053 9.37875 93.2138C7.73937 91.727 7.09125 91.0217 7.28188 90.9264C7.60594 90.7548 12.0475 90.1639 13.0197 90.1639C13.4772 90.1639 13.7059 90.2401 13.6297 90.3545C13.3438 90.831 13.7822 92.1082 14.4684 92.8516L15.1928 93.5951H14.6972C13.9347 93.5951 12.5241 94.3766 12.2 94.9866C11.9141 95.5203 11.9331 95.5394 12.6766 96.1875C15.25 98.4178 20.7209 102.306 24.2284 104.422C26.3825 105.719 26.4969 105.757 26.4969 105.185C26.4969 104.556 26.9734 103.946 27.8122 103.507C29.2038 102.802 30.8622 102.65 37.1147 102.65C40.3744 102.65 43.005 102.592 42.9669 102.516C42.9097 102.44 41.9184 101.716 40.7366 100.915C32.3872 95.1581 29.9281 92.5657 31.1672 90.7929C31.4341 90.4117 31.415 90.3926 30.8241 90.2782C28.8606 89.9351 23.4278 89.7445 18.8337 89.8398C14.7162 89.9161 13.725 89.897 13.725 89.6873C13.725 89.2679 17.7853 88.9248 22.875 88.9248C26.9353 88.9439 29.4706 89.0964 31.7772 89.5158L32.4062 89.6301L31.5675 90.3164L32.1203 90.4117C32.4444 90.4879 33.3784 90.6214 34.2172 90.7357C43.3291 92.032 52.3266 95.425 57.4925 99.5234C58.6172 100.419 59.3225 100.82 60.5997 101.239C62.2963 101.83 66.5472 102.764 66.7188 102.611C66.8903 102.421 62.8109 98.7037 60.7141 97.1216C52.5744 91.0026 42.3569 87.2283 30.3094 85.8749C27.755 85.589 20.3969 85.3793 18.2047 85.5127Z"/>
<path d="M218.075 85.5127C204.35 86.2943 192.398 90.2782 183.286 97.1215C181.189 98.7037 177.11 102.421 177.281 102.611C177.453 102.764 181.704 101.83 183.4 101.239C184.677 100.82 185.383 100.419 186.507 99.5234C191.673 95.425 200.671 92.032 209.783 90.7357C210.621 90.6214 211.556 90.4879 211.88 90.4117L212.432 90.3164L211.594 89.6301L212.223 89.5158C214.567 89.0964 217.046 88.9439 221.125 88.9248C226.215 88.9248 230.275 89.2679 230.275 89.6873C230.275 89.897 229.284 89.9161 225.185 89.8398C220.572 89.7445 215.139 89.9351 213.176 90.2782C212.585 90.3926 212.566 90.4117 212.833 90.7929C214.072 92.5657 211.613 95.1581 203.263 100.915C202.081 101.716 201.09 102.44 201.033 102.516C200.995 102.592 203.626 102.65 206.885 102.65C213.138 102.65 214.796 102.802 216.188 103.507C217.026 103.946 217.503 104.556 217.503 105.185C217.503 105.757 217.617 105.719 219.771 104.422C223.279 102.306 228.712 98.4368 231.323 96.1875C232.086 95.5394 232.086 95.5203 231.781 94.9866C231.419 94.3766 230.046 93.595 229.303 93.595H228.807L229.531 92.8516C230.218 92.1082 230.656 90.831 230.37 90.3545C230.294 90.2401 230.523 90.1639 230.98 90.1639C231.952 90.1639 236.394 90.7548 236.718 90.9264C236.909 91.0217 236.261 91.727 234.621 93.2138C233.115 94.6053 232.276 95.5203 232.296 95.7491C232.334 96.4162 227.759 100.305 223.889 102.935C221.582 104.48 217.751 106.748 217.427 106.748C217.331 106.748 217.331 106.538 217.389 106.271C217.503 105.852 217.255 105.928 214.034 107.529C205.379 111.78 198.364 113.687 191.597 113.591C189.138 113.572 188.909 113.591 187.194 114.163C185.306 114.811 181.742 116.412 181.875 116.565C181.932 116.603 182.828 116.794 183.858 116.984C186.298 117.404 194.761 117.461 197.392 117.08C210.05 115.173 222.04 109.512 232.848 100.343C235.574 98.0365 240.245 93.2901 242.437 90.6023L244 88.658L242.704 88.2767C239.482 87.3045 234.297 86.3324 229.989 85.8749C227.32 85.589 220.42 85.3793 218.075 85.5127Z"/>
<path d="M44.3582 100.019C46.5313 101.658 48.6282 103.221 48.9904 103.507C49.3526 103.793 50.7822 104.48 52.1357 105.032C53.5082 105.585 54.9951 106.252 55.4716 106.5L56.3294 106.958L55.5669 106.843C55.1476 106.767 53.5654 106.424 52.0594 106.062C49.0285 105.337 48.5138 105.318 41.5751 105.547C37.1526 105.68 37.2097 105.585 40.7935 107.072C44.0722 108.464 49.181 110.255 53.9466 111.704C61.3429 113.953 65.041 115.154 66.261 115.707C67.7288 116.355 69.006 117.499 69.006 118.109C69.006 118.357 69.1013 118.566 69.2157 118.566C69.9782 118.566 84.1416 116.241 84.3132 116.088C84.3894 116.012 82.0257 113.477 79.0329 110.465C73.7907 105.166 73.581 104.975 73.2188 105.299C72.6088 105.852 71.6366 106.024 70.2832 105.795C68.4722 105.509 66.5469 104.918 59.7607 102.554C53.7751 100.476 49.7529 99.1993 46.1501 98.2653C43.996 97.6934 41.0222 97.0262 40.6601 97.0262C40.5076 97.0262 42.1851 98.3606 44.3582 100.019Z"/>
<path d="M202.158 97.2169C201.853 97.2931 200.938 97.5028 200.157 97.6934C196.077 98.6084 190.835 100.248 180.961 103.679C174.422 105.947 172.211 106.348 170.991 105.452L170.381 104.994L164.967 110.484C161.974 113.496 159.611 116.012 159.687 116.088C159.858 116.241 174.022 118.566 174.784 118.566C174.899 118.566 174.994 118.357 174.994 118.109C174.994 117.499 176.271 116.355 177.739 115.707C178.959 115.154 182.657 113.953 190.053 111.704C194.819 110.255 199.928 108.464 203.207 107.072C206.79 105.585 206.847 105.68 202.425 105.547C195.486 105.318 194.972 105.337 191.941 106.062C190.435 106.424 188.852 106.767 188.433 106.843L187.671 106.958L188.528 106.5C189.005 106.252 190.511 105.585 191.864 105.032C193.237 104.48 194.647 103.793 195.01 103.507C195.372 103.221 197.469 101.658 199.642 100.019C203.492 97.1025 203.778 96.7784 202.158 97.2169Z"/>
<path d="M92.0908 163.458C88.488 165.288 85.438 166.87 85.3046 166.984C85.1711 167.099 85.1139 167.537 85.1711 168.166C85.3046 170.034 84.7327 170.987 78.1371 179.756C75.5827 183.168 72.6089 187.228 71.5605 188.81C69.4827 191.898 67.0236 195.959 67.1571 196.073C67.1952 196.111 67.443 195.997 67.6908 195.787C67.9386 195.596 70.0355 194.129 72.3421 192.527C75.8496 190.107 76.7264 189.401 77.6796 188.258C79.4714 186.123 81.2633 184.121 81.3396 184.216C81.4158 184.293 79.643 187.4 78.4421 189.287C77.8511 190.24 77.4127 191.327 76.6502 193.919C76.0974 195.787 75.3539 198.227 75.0108 199.352C74.6486 200.457 74.4008 201.41 74.4389 201.449C74.5342 201.544 77.1649 198.513 79.2236 195.94C81.4158 193.195 83.7986 189.935 87.2108 184.998C92.6245 177.182 94.1305 175.524 95.7889 175.524C96.1511 175.524 96.4561 175.505 96.4561 175.486C96.4561 175.467 96.6277 174.495 96.8183 173.351C97.028 172.207 97.5427 168.948 97.9811 166.126C98.4005 163.286 98.8008 160.789 98.8389 160.541C98.8961 160.312 98.877 160.122 98.8008 160.122C98.7055 160.122 95.6936 161.628 92.0908 163.458Z"/>
<path d="M145.161 160.541C145.199 160.789 145.599 163.286 146.019 166.126C146.457 168.948 146.972 172.207 147.182 173.351C147.372 174.495 147.544 175.467 147.544 175.486C147.544 175.505 147.849 175.524 148.211 175.524C149.869 175.524 151.375 177.182 156.789 184.998C160.182 189.916 162.565 193.176 164.814 195.978C166.759 198.437 169.466 201.544 169.58 201.449C169.618 201.41 169.351 200.457 168.989 199.352C168.646 198.227 167.902 195.787 167.35 193.919C166.568 191.269 166.168 190.24 165.52 189.23C164.281 187.285 162.584 184.293 162.66 184.216C162.736 184.121 164.509 186.084 166.32 188.258C167.273 189.401 168.15 190.107 171.658 192.527C173.964 194.129 176.061 195.596 176.309 195.787C176.557 195.997 176.805 196.111 176.843 196.073C176.976 195.959 174.517 191.898 172.439 188.81C171.391 187.228 168.417 183.168 165.863 179.756C159.248 170.968 158.695 170.034 158.848 168.147C158.924 167.175 158.886 167.118 158.333 166.775C157.551 166.298 145.332 160.122 145.18 160.122C145.104 160.122 145.104 160.312 145.161 160.541Z"/>
<path d="M78.2517 173.999C62.2392 182.348 50.0011 202.173 47.1798 224.38C46.8176 227.354 46.5507 231.986 46.7604 231.986C46.8367 231.986 47.9995 231.548 49.3339 231.014C56.6348 228.059 63.1351 224.266 69.4829 219.234C72.4376 216.889 78.7473 210.579 80.9014 207.777C86.4867 200.572 90.3564 192.623 91.767 185.475C92.0148 184.159 92.2626 182.711 92.3198 182.234L92.4151 181.376L90.9473 182.939C90.1467 183.797 88.9648 185.189 88.3548 186.027C87.4207 187.304 87.1539 187.876 86.7154 189.42C85.0951 195.177 81.3589 201.239 75.3542 207.834C74.1151 209.169 72.6473 210.675 72.0754 211.17L71.027 212.066L71.6561 212.161L72.3042 212.257L70.5123 213.877C66.7951 217.27 63.4211 219.729 58.9604 222.341C57.8167 222.989 57.302 223.198 57.0923 223.065C56.8445 222.932 57.2829 222.588 59.1129 221.407C62.0676 219.5 66.0136 216.546 68.7776 214.163L70.9317 212.314L70.3598 211.952C69.5211 211.456 69.3114 210.903 69.3495 209.302C69.3686 207.491 70.0739 204.708 71.8657 199.523C72.6282 197.331 73.2001 195.52 73.162 195.482C73.1239 195.444 71.8467 196.359 70.3407 197.503C64.8317 201.696 61.8389 203.507 60.0851 203.717C59.2845 203.812 59.0939 203.755 58.5601 203.298C58.217 203.012 57.912 202.802 57.8739 202.84C57.8357 202.878 57.3401 204.041 56.7492 205.413C55.4911 208.368 53.6611 213.763 52.7842 217.06C52.4411 218.357 52.0979 219.405 52.0217 219.405C51.6786 219.405 51.6786 218.967 52.0407 217.175C52.9748 212.619 54.6142 207.701 56.5586 203.526C57.4164 201.715 57.7595 201.296 57.7595 202.059C57.7595 202.783 58.0645 202.44 58.8842 200.762C63.3257 191.708 69.2542 184.255 74.9539 180.576C76.2882 179.699 77.3176 178.536 78.6901 176.287C79.6051 174.8 80.5011 173.065 80.4057 172.989C80.3676 172.951 79.3954 173.408 78.2517 173.999ZM55.8342 219.958C55.6626 220.758 55.8342 221.616 56.3107 222.303C56.4823 222.531 56.6157 222.798 56.6157 222.855C56.6157 223.027 54.2329 224.418 52.2886 225.391L50.9161 226.077L51.0304 225.352C51.0876 224.971 51.3736 223.522 51.6404 222.169C52.1932 219.443 52.0026 219.653 53.5848 219.901C54.0614 219.996 54.4807 219.901 55.0145 219.634C56.0057 219.1 56.0248 219.1 55.8342 219.958Z"/>
<path d="M163.556 172.989C163.556 173.179 164.528 175.009 165.31 176.287C166.682 178.536 167.712 179.699 169.046 180.576C174.746 184.255 180.674 191.708 185.116 200.762C185.936 202.44 186.241 202.783 186.241 202.059C186.241 201.296 186.584 201.715 187.442 203.526C188.833 206.519 189.939 209.512 190.93 212.981C191.597 215.364 192.36 219.024 192.245 219.233C192.017 219.577 191.807 219.405 191.673 218.776C191.33 217.27 189.786 212.123 188.986 209.912C188.242 207.853 186.317 203.069 186.126 202.84C186.088 202.802 185.783 203.012 185.44 203.298C184.906 203.755 184.716 203.812 183.915 203.717C182.161 203.507 179.073 201.639 173.659 197.503C172.134 196.34 170.876 195.444 170.838 195.482C170.8 195.52 171.372 197.331 172.134 199.523C173.926 204.708 174.632 207.491 174.651 209.302C174.689 210.903 174.479 211.456 173.64 211.952L173.068 212.314L175.222 214.163C177.987 216.546 181.932 219.5 184.887 221.407C186.717 222.588 187.156 222.932 186.908 223.065C186.698 223.198 186.183 222.989 185.04 222.341C180.922 219.958 176.976 217.06 173.488 213.896L171.696 212.257L172.344 212.161L172.973 212.066L171.925 211.17C171.353 210.675 169.885 209.169 168.646 207.834C162.641 201.239 158.905 195.177 157.285 189.42C156.846 187.876 156.579 187.304 155.645 186.027C155.035 185.189 153.853 183.797 153.053 182.939L151.585 181.376L151.68 182.234C152.176 186.637 153.892 192.108 156.293 197.007C159.382 203.259 162.908 208.082 168.512 213.705C174.917 220.129 181.57 224.895 189.386 228.669C191.864 229.87 196.877 231.986 197.24 231.986C197.43 231.986 197.144 226.973 196.82 224.361C195.219 212.066 190.587 199.905 183.896 190.431C179.721 184.521 174.231 179.146 168.97 175.829C167.235 174.742 163.556 172.817 163.556 172.989ZM188.947 219.615C189.519 219.901 189.939 219.996 190.415 219.901C191.997 219.653 191.807 219.443 192.36 222.169C192.627 223.522 192.912 224.971 192.97 225.352L193.084 226.077L191.712 225.391C189.767 224.418 187.384 223.027 187.384 222.855C187.384 222.798 187.518 222.531 187.689 222.303C188.166 221.616 188.337 220.758 188.166 219.958C188.071 219.538 188.032 219.214 188.071 219.214C188.128 219.214 188.509 219.386 188.947 219.615Z"/>
</mask>
<path d="M118.569 14.8303C117.463 17.4609 115.709 22.9317 114.851 26.401C114.375 28.2882 113.994 29.9466 113.994 30.08C113.994 30.2707 114.127 30.3088 114.47 30.2325C115.137 30.061 116.148 30.5757 116.758 31.3763C117.901 32.8631 119.255 36.3324 120.951 42.0701C121.466 43.7857 121.924 45.1772 122 45.1772C122.076 45.1772 122.534 43.7857 123.048 42.0701C124.745 36.3324 126.098 32.8631 127.242 31.3763C127.852 30.5757 128.862 30.061 129.53 30.2325C129.854 30.3088 130.006 30.2707 130.006 30.0991C129.987 28.6694 126.861 18.2234 125.431 14.8494L124.821 13.3816L124.173 13.5913C123.468 13.801 122.191 15.0591 122.191 15.5356C122.191 15.6881 122.114 15.8216 122 15.8216C121.905 15.8216 121.809 15.6881 121.809 15.5356C121.809 15.0591 120.532 13.801 119.827 13.5913L119.179 13.3816L118.569 14.8303Z" stroke="black" stroke-width="2" mask="url(#path-3-inside-2_29_20)"/>
<path d="M120.418 2.42094C114.089 12.4476 110.181 23.5608 108.809 35.3603C108.428 38.5437 108.504 47.1788 108.904 50.1334C109.762 56.1952 111.668 62.4094 113.956 66.5269C114.623 67.7278 114.642 67.7468 114.776 67.2322C115.004 66.4125 115.328 62.8097 115.328 61.2657C115.328 60.1601 115.214 59.5883 114.737 58.4064C112.412 52.6115 111.859 43.6142 113.251 34.4644C113.46 33.0728 113.689 31.586 113.746 31.1666L113.861 30.4041L112.984 31.1666L113.098 30.1945C113.613 25.6005 117.654 13.801 118.855 13.3435C119.084 13.2482 119.389 12.9051 119.522 12.5429C119.675 12.1998 120.266 10.9036 120.876 9.66455L121.962 7.41522L122.42 8.23489C122.667 8.69238 123.316 9.9886 123.83 11.1133C124.459 12.5048 124.898 13.2482 125.165 13.3435C126.346 13.801 130.388 25.6386 130.902 30.1945L131.017 31.1666L130.14 30.4041L130.254 31.1666C130.311 31.586 130.54 33.0347 130.731 34.4072C132.141 43.6333 131.589 52.6115 129.263 58.4064C128.767 59.6264 128.672 60.1601 128.672 61.3801C128.672 62.9622 128.996 66.3744 129.225 67.2322C129.358 67.7278 129.396 67.6896 130.045 66.5078C131.551 63.801 132.809 60.446 133.819 56.5192C135.153 51.3153 135.63 46.6832 135.458 40.6977C135.096 27.3923 130.979 14.1251 123.582 2.42094C122.801 1.20097 122.096 0.190674 122 0.190674C121.905 0.190674 121.2 1.20097 120.418 2.42094Z" stroke="black" stroke-width="2" mask="url(#path-3-inside-2_29_20)"/>
<path d="M117.368 41.6507C116.872 44.7388 116.777 47.7888 116.758 59.5691C116.739 73.5607 116.739 73.5607 115.5 74.6092L114.909 75.1048L117.311 79.8322C120.99 87.0758 121.905 88.8295 122 88.8295C122.114 88.8295 123.163 86.7899 126.689 79.8131L129.072 75.1048L128.5 74.6092C127.261 73.5798 127.261 73.5607 127.223 59.3785C127.204 49.2756 127.147 46.035 126.899 43.881C126.746 42.3751 126.575 41.117 126.537 41.0789C126.499 41.0217 126.251 41.6126 126.022 42.3751C125.774 43.1185 124.936 45.5394 124.154 47.7506C122.858 51.4487 122.724 51.9252 122.572 53.9458C122.057 60.5223 121.924 60.5413 121.428 54.1174C121.256 51.868 121.18 51.5631 119.751 47.4647C118.912 45.101 118.073 42.661 117.863 42.032L117.482 40.8883L117.368 41.6507Z" stroke="black" stroke-width="2" mask="url(#path-3-inside-2_29_20)"/>
<path d="M18.2047 85.5127C12.3334 85.8939 5.60438 86.9805 1.29625 88.2767L0 88.658L1.56313 90.6023C3.75531 93.2901 8.42563 98.0365 11.1516 100.343C21.8266 109.398 33.5119 114.983 46.0359 116.984C49.0097 117.461 57.4163 117.461 60.1422 116.984C61.1716 116.794 62.0675 116.603 62.1247 116.565C62.2581 116.412 58.6934 114.811 56.8063 114.163C55.0906 113.591 54.8619 113.572 52.4028 113.591C45.6356 113.687 38.6206 111.78 29.9663 107.529C26.7447 105.928 26.4969 105.852 26.6112 106.271C26.6684 106.538 26.6684 106.748 26.5731 106.748C26.2491 106.748 22.4175 104.48 20.1109 102.936C16.2412 100.305 11.6663 96.4163 11.7044 95.7491C11.7234 95.5203 10.8847 94.6053 9.37875 93.2138C7.73937 91.727 7.09125 91.0217 7.28188 90.9264C7.60594 90.7548 12.0475 90.1639 13.0197 90.1639C13.4772 90.1639 13.7059 90.2401 13.6297 90.3545C13.3438 90.831 13.7822 92.1082 14.4684 92.8516L15.1928 93.5951H14.6972C13.9347 93.5951 12.5241 94.3766 12.2 94.9866C11.9141 95.5203 11.9331 95.5394 12.6766 96.1875C15.25 98.4178 20.7209 102.306 24.2284 104.422C26.3825 105.719 26.4969 105.757 26.4969 105.185C26.4969 104.556 26.9734 103.946 27.8122 103.507C29.2038 102.802 30.8622 102.65 37.1147 102.65C40.3744 102.65 43.005 102.592 42.9669 102.516C42.9097 102.44 41.9184 101.716 40.7366 100.915C32.3872 95.1581 29.9281 92.5657 31.1672 90.7929C31.4341 90.4117 31.415 90.3926 30.8241 90.2782C28.8606 89.9351 23.4278 89.7445 18.8337 89.8398C14.7162 89.9161 13.725 89.897 13.725 89.6873C13.725 89.2679 17.7853 88.9248 22.875 88.9248C26.9353 88.9439 29.4706 89.0964 31.7772 89.5158L32.4062 89.6301L31.5675 90.3164L32.1203 90.4117C32.4444 90.4879 33.3784 90.6214 34.2172 90.7357C43.3291 92.032 52.3266 95.425 57.4925 99.5234C58.6172 100.419 59.3225 100.82 60.5997 101.239C62.2963 101.83 66.5472 102.764 66.7188 102.611C66.8903 102.421 62.8109 98.7037 60.7141 97.1216C52.5744 91.0026 42.3569 87.2283 30.3094 85.8749C27.755 85.589 20.3969 85.3793 18.2047 85.5127Z" stroke="black" stroke-width="2" mask="url(#path-3-inside-2_29_20)"/>
<path d="M218.075 85.5127C204.35 86.2943 192.398 90.2782 183.286 97.1215C181.189 98.7037 177.11 102.421 177.281 102.611C177.453 102.764 181.704 101.83 183.4 101.239C184.677 100.82 185.383 100.419 186.507 99.5234C191.673 95.425 200.671 92.032 209.783 90.7357C210.621 90.6214 211.556 90.4879 211.88 90.4117L212.432 90.3164L211.594 89.6301L212.223 89.5158C214.567 89.0964 217.046 88.9439 221.125 88.9248C226.215 88.9248 230.275 89.2679 230.275 89.6873C230.275 89.897 229.284 89.9161 225.185 89.8398C220.572 89.7445 215.139 89.9351 213.176 90.2782C212.585 90.3926 212.566 90.4117 212.833 90.7929C214.072 92.5657 211.613 95.1581 203.263 100.915C202.081 101.716 201.09 102.44 201.033 102.516C200.995 102.592 203.626 102.65 206.885 102.65C213.138 102.65 214.796 102.802 216.188 103.507C217.026 103.946 217.503 104.556 217.503 105.185C217.503 105.757 217.617 105.719 219.771 104.422C223.279 102.306 228.712 98.4368 231.323 96.1875C232.086 95.5394 232.086 95.5203 231.781 94.9866C231.419 94.3766 230.046 93.595 229.303 93.595H228.807L229.531 92.8516C230.218 92.1082 230.656 90.831 230.37 90.3545C230.294 90.2401 230.523 90.1639 230.98 90.1639C231.952 90.1639 236.394 90.7548 236.718 90.9264C236.909 91.0217 236.261 91.727 234.621 93.2138C233.115 94.6053 232.276 95.5203 232.296 95.7491C232.334 96.4162 227.759 100.305 223.889 102.935C221.582 104.48 217.751 106.748 217.427 106.748C217.331 106.748 217.331 106.538 217.389 106.271C217.503 105.852 217.255 105.928 214.034 107.529C205.379 111.78 198.364 113.687 191.597 113.591C189.138 113.572 188.909 113.591 187.194 114.163C185.306 114.811 181.742 116.412 181.875 116.565C181.932 116.603 182.828 116.794 183.858 116.984C186.298 117.404 194.761 117.461 197.392 117.08C210.05 115.173 222.04 109.512 232.848 100.343C235.574 98.0365 240.245 93.2901 242.437 90.6023L244 88.658L242.704 88.2767C239.482 87.3045 234.297 86.3324 229.989 85.8749C227.32 85.589 220.42 85.3793 218.075 85.5127Z" stroke="black" stroke-width="2" mask="url(#path-3-inside-2_29_20)"/>
<path d="M44.3582 100.019C46.5313 101.658 48.6282 103.221 48.9904 103.507C49.3526 103.793 50.7822 104.48 52.1357 105.032C53.5082 105.585 54.9951 106.252 55.4716 106.5L56.3294 106.958L55.5669 106.843C55.1476 106.767 53.5654 106.424 52.0594 106.062C49.0285 105.337 48.5138 105.318 41.5751 105.547C37.1526 105.68 37.2097 105.585 40.7935 107.072C44.0722 108.464 49.181 110.255 53.9466 111.704C61.3429 113.953 65.041 115.154 66.261 115.707C67.7288 116.355 69.006 117.499 69.006 118.109C69.006 118.357 69.1013 118.566 69.2157 118.566C69.9782 118.566 84.1416 116.241 84.3132 116.088C84.3894 116.012 82.0257 113.477 79.0329 110.465C73.7907 105.166 73.581 104.975 73.2188 105.299C72.6088 105.852 71.6366 106.024 70.2832 105.795C68.4722 105.509 66.5469 104.918 59.7607 102.554C53.7751 100.476 49.7529 99.1993 46.1501 98.2653C43.996 97.6934 41.0222 97.0262 40.6601 97.0262C40.5076 97.0262 42.1851 98.3606 44.3582 100.019Z" stroke="black" stroke-width="2" mask="url(#path-3-inside-2_29_20)"/>
<path d="M202.158 97.2169C201.853 97.2931 200.938 97.5028 200.157 97.6934C196.077 98.6084 190.835 100.248 180.961 103.679C174.422 105.947 172.211 106.348 170.991 105.452L170.381 104.994L164.967 110.484C161.974 113.496 159.611 116.012 159.687 116.088C159.858 116.241 174.022 118.566 174.784 118.566C174.899 118.566 174.994 118.357 174.994 118.109C174.994 117.499 176.271 116.355 177.739 115.707C178.959 115.154 182.657 113.953 190.053 111.704C194.819 110.255 199.928 108.464 203.207 107.072C206.79 105.585 206.847 105.68 202.425 105.547C195.486 105.318 194.972 105.337 191.941 106.062C190.435 106.424 188.852 106.767 188.433 106.843L187.671 106.958L188.528 106.5C189.005 106.252 190.511 105.585 191.864 105.032C193.237 104.48 194.647 103.793 195.01 103.507C195.372 103.221 197.469 101.658 199.642 100.019C203.492 97.1025 203.778 96.7784 202.158 97.2169Z" stroke="black" stroke-width="2" mask="url(#path-3-inside-2_29_20)"/>
<path d="M92.0908 163.458C88.488 165.288 85.438 166.87 85.3046 166.984C85.1711 167.099 85.1139 167.537 85.1711 168.166C85.3046 170.034 84.7327 170.987 78.1371 179.756C75.5827 183.168 72.6089 187.228 71.5605 188.81C69.4827 191.898 67.0236 195.959 67.1571 196.073C67.1952 196.111 67.443 195.997 67.6908 195.787C67.9386 195.596 70.0355 194.129 72.3421 192.527C75.8496 190.107 76.7264 189.401 77.6796 188.258C79.4714 186.123 81.2633 184.121 81.3396 184.216C81.4158 184.293 79.643 187.4 78.4421 189.287C77.8511 190.24 77.4127 191.327 76.6502 193.919C76.0974 195.787 75.3539 198.227 75.0108 199.352C74.6486 200.457 74.4008 201.41 74.4389 201.449C74.5342 201.544 77.1649 198.513 79.2236 195.94C81.4158 193.195 83.7986 189.935 87.2108 184.998C92.6245 177.182 94.1305 175.524 95.7889 175.524C96.1511 175.524 96.4561 175.505 96.4561 175.486C96.4561 175.467 96.6277 174.495 96.8183 173.351C97.028 172.207 97.5427 168.948 97.9811 166.126C98.4005 163.286 98.8008 160.789 98.8389 160.541C98.8961 160.312 98.877 160.122 98.8008 160.122C98.7055 160.122 95.6936 161.628 92.0908 163.458Z" stroke="black" stroke-width="2" mask="url(#path-3-inside-2_29_20)"/>
<path d="M145.161 160.541C145.199 160.789 145.599 163.286 146.019 166.126C146.457 168.948 146.972 172.207 147.182 173.351C147.372 174.495 147.544 175.467 147.544 175.486C147.544 175.505 147.849 175.524 148.211 175.524C149.869 175.524 151.375 177.182 156.789 184.998C160.182 189.916 162.565 193.176 164.814 195.978C166.759 198.437 169.466 201.544 169.58 201.449C169.618 201.41 169.351 200.457 168.989 199.352C168.646 198.227 167.902 195.787 167.35 193.919C166.568 191.269 166.168 190.24 165.52 189.23C164.281 187.285 162.584 184.293 162.66 184.216C162.736 184.121 164.509 186.084 166.32 188.258C167.273 189.401 168.15 190.107 171.658 192.527C173.964 194.129 176.061 195.596 176.309 195.787C176.557 195.997 176.805 196.111 176.843 196.073C176.976 195.959 174.517 191.898 172.439 188.81C171.391 187.228 168.417 183.168 165.863 179.756C159.248 170.968 158.695 170.034 158.848 168.147C158.924 167.175 158.886 167.118 158.333 166.775C157.551 166.298 145.332 160.122 145.18 160.122C145.104 160.122 145.104 160.312 145.161 160.541Z" stroke="black" stroke-width="2" mask="url(#path-3-inside-2_29_20)"/>
<path d="M78.2517 173.999C62.2392 182.348 50.0011 202.173 47.1798 224.38C46.8176 227.354 46.5507 231.986 46.7604 231.986C46.8367 231.986 47.9995 231.548 49.3339 231.014C56.6348 228.059 63.1351 224.266 69.4829 219.234C72.4376 216.889 78.7473 210.579 80.9014 207.777C86.4867 200.572 90.3564 192.623 91.767 185.475C92.0148 184.159 92.2626 182.711 92.3198 182.234L92.4151 181.376L90.9473 182.939C90.1467 183.797 88.9648 185.189 88.3548 186.027C87.4207 187.304 87.1539 187.876 86.7154 189.42C85.0951 195.177 81.3589 201.239 75.3542 207.834C74.1151 209.169 72.6473 210.675 72.0754 211.17L71.027 212.066L71.6561 212.161L72.3042 212.257L70.5123 213.877C66.7951 217.27 63.4211 219.729 58.9604 222.341C57.8167 222.989 57.302 223.198 57.0923 223.065C56.8445 222.932 57.2829 222.588 59.1129 221.407C62.0676 219.5 66.0136 216.546 68.7776 214.163L70.9317 212.314L70.3598 211.952C69.5211 211.456 69.3114 210.903 69.3495 209.302C69.3686 207.491 70.0739 204.708 71.8657 199.523C72.6282 197.331 73.2001 195.52 73.162 195.482C73.1239 195.444 71.8467 196.359 70.3407 197.503C64.8317 201.696 61.8389 203.507 60.0851 203.717C59.2845 203.812 59.0939 203.755 58.5601 203.298C58.217 203.012 57.912 202.802 57.8739 202.84C57.8357 202.878 57.3401 204.041 56.7492 205.413C55.4911 208.368 53.6611 213.763 52.7842 217.06C52.4411 218.357 52.0979 219.405 52.0217 219.405C51.6786 219.405 51.6786 218.967 52.0407 217.175C52.9748 212.619 54.6142 207.701 56.5586 203.526C57.4164 201.715 57.7595 201.296 57.7595 202.059C57.7595 202.783 58.0645 202.44 58.8842 200.762C63.3257 191.708 69.2542 184.255 74.9539 180.576C76.2882 179.699 77.3176 178.536 78.6901 176.287C79.6051 174.8 80.5011 173.065 80.4057 172.989C80.3676 172.951 79.3954 173.408 78.2517 173.999ZM55.8342 219.958C55.6626 220.758 55.8342 221.616 56.3107 222.303C56.4823 222.531 56.6157 222.798 56.6157 222.855C56.6157 223.027 54.2329 224.418 52.2886 225.391L50.9161 226.077L51.0304 225.352C51.0876 224.971 51.3736 223.522 51.6404 222.169C52.1932 219.443 52.0026 219.653 53.5848 219.901C54.0614 219.996 54.4807 219.901 55.0145 219.634C56.0057 219.1 56.0248 219.1 55.8342 219.958Z" stroke="black" stroke-width="2" mask="url(#path-3-inside-2_29_20)"/>
<path d="M163.556 172.989C163.556 173.179 164.528 175.009 165.31 176.287C166.682 178.536 167.712 179.699 169.046 180.576C174.746 184.255 180.674 191.708 185.116 200.762C185.936 202.44 186.241 202.783 186.241 202.059C186.241 201.296 186.584 201.715 187.442 203.526C188.833 206.519 189.939 209.512 190.93 212.981C191.597 215.364 192.36 219.024 192.245 219.233C192.017 219.577 191.807 219.405 191.673 218.776C191.33 217.27 189.786 212.123 188.986 209.912C188.242 207.853 186.317 203.069 186.126 202.84C186.088 202.802 185.783 203.012 185.44 203.298C184.906 203.755 184.716 203.812 183.915 203.717C182.161 203.507 179.073 201.639 173.659 197.503C172.134 196.34 170.876 195.444 170.838 195.482C170.8 195.52 171.372 197.331 172.134 199.523C173.926 204.708 174.632 207.491 174.651 209.302C174.689 210.903 174.479 211.456 173.64 211.952L173.068 212.314L175.222 214.163C177.987 216.546 181.932 219.5 184.887 221.407C186.717 222.588 187.156 222.932 186.908 223.065C186.698 223.198 186.183 222.989 185.04 222.341C180.922 219.958 176.976 217.06 173.488 213.896L171.696 212.257L172.344 212.161L172.973 212.066L171.925 211.17C171.353 210.675 169.885 209.169 168.646 207.834C162.641 201.239 158.905 195.177 157.285 189.42C156.846 187.876 156.579 187.304 155.645 186.027C155.035 185.189 153.853 183.797 153.053 182.939L151.585 181.376L151.68 182.234C152.176 186.637 153.892 192.108 156.293 197.007C159.382 203.259 162.908 208.082 168.512 213.705C174.917 220.129 181.57 224.895 189.386 228.669C191.864 229.87 196.877 231.986 197.24 231.986C197.43 231.986 197.144 226.973 196.82 224.361C195.219 212.066 190.587 199.905 183.896 190.431C179.721 184.521 174.231 179.146 168.97 175.829C167.235 174.742 163.556 172.817 163.556 172.989ZM188.947 219.615C189.519 219.901 189.939 219.996 190.415 219.901C191.997 219.653 191.807 219.443 192.36 222.169C192.627 223.522 192.912 224.971 192.97 225.352L193.084 226.077L191.712 225.391C189.767 224.418 187.384 223.027 187.384 222.855C187.384 222.798 187.518 222.531 187.689 222.303C188.166 221.616 188.337 220.758 188.166 219.958C188.071 219.538 188.032 219.214 188.071 219.214C188.128 219.214 188.509 219.386 188.947 219.615Z" stroke="black" stroke-width="2" mask="url(#path-3-inside-2_29_20)"/>
<mask id="path-4-inside-3_29_20" fill="white">
<path d="M111.649 13.9534C109.018 15.3831 103.261 21.8833 101.451 25.467C97.5618 33.2062 94.9312 43.7476 94.9312 51.7346V53.9839L96.2465 56.2142C96.9708 57.4342 98.2671 59.4929 99.1249 60.8082L100.688 63.1909L100.574 60.9988C100.345 57.072 101.031 50.7815 101.984 48.1509C102.175 47.6172 102.48 46.4544 102.651 45.5585C103.357 41.8413 104.939 37.8192 106.521 35.7605C106.902 35.2458 107.284 34.7312 107.341 34.6168C107.417 34.5024 107.646 33.0728 107.875 31.4525C108.523 26.6298 110.029 21.1208 112.106 15.8597C112.621 14.5825 113.041 13.4769 113.041 13.4388C113.041 13.2482 112.736 13.3625 111.649 13.9534Z"/>
<path d="M130.959 13.4388C130.959 13.4769 131.379 14.5825 131.894 15.8597C133.971 21.1208 135.477 26.6298 136.125 31.4525C136.354 33.0728 136.583 34.5024 136.659 34.6168C136.716 34.7312 137.098 35.2458 137.479 35.7605C139.042 37.8002 140.624 41.8032 141.368 45.5585C141.539 46.4544 141.882 47.7697 142.111 48.5131C143.045 51.3533 143.636 56.8432 143.426 60.8082L143.312 63.1909L145.161 60.3507C146.171 58.7876 147.468 56.7098 148.039 55.7186L149.069 53.9267V51.7727C149.069 43.9954 146.8 34.5405 142.95 26.3438C141.082 22.3598 135.153 15.4403 132.37 13.9534C131.207 13.3435 130.959 13.2672 130.959 13.4388Z"/>
<path d="M99.0296 76.4391C99.5061 78.0404 101.47 82.6534 102.671 85.0171C106.788 93.1757 112.888 99.9427 120.627 104.937L122.019 105.833L124.154 104.384C131.817 99.2375 137.46 92.8135 141.52 84.6359C142.873 81.91 145.199 76.3057 145.027 76.1532C144.989 76.1342 143.369 77.5257 141.406 79.2794C138.356 81.9672 137.726 82.6153 137.231 83.5874C135.382 87.2092 130.216 92.0892 124.116 95.9588C123.01 96.645 122.057 97.2169 122 97.2169C121.943 97.2169 120.99 96.645 119.884 95.9588C113.746 92.051 108.408 86.9996 106.655 83.4349C106.254 82.5962 105.682 81.9672 104.024 80.4994C102.842 79.4891 101.203 78.0404 100.383 77.316C99.2011 76.2485 98.9152 76.077 99.0296 76.4391Z"/>
<path d="M35.933 76.4391C31.5105 76.706 29.8521 76.9919 26.8783 77.9641C21.9221 79.6034 18.0143 81.5668 16.2796 83.2824C15.803 83.7399 15.4599 84.1402 15.498 84.1974C15.5552 84.2355 17.2899 84.1783 19.3868 84.083C25.0483 83.7971 30.1761 84.1211 35.2086 85.0361L37.3436 85.4364L38.4493 85.0552C40.5271 84.3499 41.7661 84.1783 45.083 84.1783C53.8518 84.1402 60.2186 85.1886 65.823 87.5714C66.2043 87.7429 66.5283 87.8382 66.5283 87.762C66.5283 87.5714 61.6483 81.7002 60.4855 80.4993C59.418 79.3937 59.3227 79.3365 57.283 78.7456C52.4221 77.3731 48.743 76.7441 43.6533 76.4391C40.0124 76.2294 39.6121 76.2294 35.933 76.4391Z"/>
<path d="M199.775 76.4391C195.295 76.7441 191.273 77.4494 186.717 78.7456C184.677 79.3365 184.582 79.3937 183.514 80.4993C182.352 81.7002 177.472 87.5714 177.472 87.762C177.472 87.8382 177.796 87.7429 178.196 87.5714C183.781 85.1886 190.148 84.1402 198.917 84.1783C202.234 84.1783 203.473 84.3499 205.551 85.0552L206.656 85.4364L208.791 85.0361C213.824 84.1211 218.952 83.7971 224.613 84.083C226.71 84.1783 228.445 84.2355 228.483 84.1974C228.521 84.1592 228.178 83.7399 227.701 83.2824C225.986 81.5668 222.097 79.6034 217.084 77.945C214.701 77.1634 213.843 76.9728 211.555 76.7441C207.895 76.3628 202.92 76.2484 199.775 76.4391Z"/>
<path d="M79.5288 90.3545C79.586 90.507 80.4248 92.4894 81.397 94.7387C83.0173 98.513 83.2651 98.9324 84.3135 100.057C87.2873 103.26 89.7654 108.444 91.7098 115.516C92.2626 117.556 92.4532 118.528 92.3198 118.738C91.9957 119.272 88.0307 122.379 85.5907 123.999C81.3398 126.82 77.9085 128.422 74.9348 128.936C73.5051 129.184 73.1048 129.356 69.4448 131.529C67.2526 132.825 65.4226 133.93 65.3463 134.007C64.8507 134.426 73.6195 133.625 77.0126 132.939C84.9807 131.338 92.7773 127.716 98.8201 122.798C99.5635 122.207 100.269 121.616 100.402 121.521C100.612 121.369 100.574 121.064 100.269 119.901C97.0092 107.949 91.0426 99.1993 80.6345 91.0216C79.9673 90.507 79.4717 90.202 79.5288 90.3545Z"/>
<path d="M162.031 92.1082C153.072 99.3709 147.391 107.701 144.246 118.185C143.884 119.386 143.541 120.587 143.483 120.854C143.369 121.292 143.56 121.502 144.951 122.627C152.767 128.917 162.05 132.691 172.23 133.702C175.47 134.026 178.883 134.178 178.654 134.007C178.578 133.931 176.748 132.825 174.555 131.529C170.895 129.356 170.495 129.184 169.065 128.936C166.092 128.422 162.66 126.82 158.409 123.999C155.969 122.379 152.004 119.272 151.68 118.738C151.547 118.528 151.738 117.556 152.29 115.516C154.235 108.444 156.713 103.26 159.687 100.057C160.754 98.9324 160.983 98.5131 162.679 94.5672C163.69 92.2226 164.49 90.2782 164.452 90.2401C164.433 90.2211 163.328 91.0598 162.031 92.1082Z"/>
<path d="M9.9126 101.83C9.9126 104.041 12.6195 109.321 16.1842 114.068C18.7957 117.537 25.9251 123.122 31.9488 126.458C34.3888 127.792 38.4301 129.584 40.851 130.385C42.4142 130.9 42.8717 130.976 43.7104 130.881C44.6254 130.747 50.0392 129.413 52.422 128.727L53.4704 128.422L51.202 127.773C46.8367 126.534 41.4801 124.133 39.6501 122.569C39.2879 122.245 38.411 121.712 37.7248 121.349C34.4079 119.615 30.5001 116.412 29.1657 114.316C28.5367 113.324 28.3651 113.21 26.0395 112.066C20.8735 109.55 15.841 106.214 10.9229 102.02L9.9126 101.182V101.83Z"/>
<path d="M233.325 101.83C228.216 106.176 223.279 109.474 217.961 112.066C215.845 113.096 215.425 113.382 215.063 113.991C213.805 116.184 209.84 119.481 206.161 121.407C205.532 121.731 204.712 122.245 204.35 122.569C202.52 124.133 197.164 126.534 192.798 127.773L190.53 128.422L191.578 128.727C193.961 129.413 199.375 130.747 200.29 130.881C201.129 130.976 201.586 130.9 203.149 130.385C207.343 128.993 212.661 126.325 216.817 123.542C221.106 120.644 225.948 116.546 227.568 114.373C231.438 109.245 234.297 103.641 234.049 101.715L233.992 101.258L233.325 101.83Z"/>
<path d="M100.116 146.416C95.8081 146.721 90.7947 147.808 86.62 149.352C83.8178 150.381 78.5947 153.012 75.6781 154.88C72.9903 156.595 72.1897 157.205 72.914 156.996C73.1237 156.938 75.3159 156.71 77.775 156.5C81.74 156.138 82.35 156.043 83.0553 155.623C84.2753 154.918 87.0394 154.06 89.5175 153.622C92.11 153.164 98.9153 152.935 101.984 153.202L103.795 153.355L104.482 155.089C107.379 162.333 108.694 168.909 108.103 173.217L107.875 174.895L108.904 179.47C109.781 183.263 109.991 183.969 110.143 183.568C110.753 182.005 112.011 176.458 112.507 173.179C112.907 170.492 112.85 161.933 112.412 159.169C111.935 156.157 110.772 151.734 109.724 148.856L108.828 146.454L106.693 146.34C104.215 146.187 103.071 146.206 100.116 146.416Z"/>
<path d="M136.64 146.34L135.191 146.416L134.295 148.837C133.266 151.62 132.103 156.043 131.588 159.073C131.15 161.723 131.093 170.473 131.493 173.179C131.989 176.458 133.247 182.005 133.857 183.568C134.009 183.969 134.219 183.263 135.077 179.47L136.125 174.895L135.897 173.275C135.306 168.948 136.621 162.333 139.518 155.089L140.205 153.355L142.016 153.202C145.085 152.935 151.89 153.164 154.482 153.622C156.961 154.06 159.725 154.918 160.945 155.623C161.65 156.043 162.26 156.138 166.225 156.5C168.684 156.71 170.876 156.938 171.086 156.996C172.458 157.358 166.358 153.545 162.508 151.639C156.027 148.437 150.403 146.893 143.445 146.397C140.872 146.226 139.785 146.207 136.64 146.34Z"/>
<path d="M63.0968 169.672C61.2668 170.396 58.9984 171.33 58.0453 171.75C56.4249 172.493 56.2724 172.607 55.3384 173.904C51.1828 179.718 47.8849 187.018 45.9787 194.72C44.7968 199.447 44.7396 199.885 44.854 204.441C44.9493 208.787 45.2353 211.056 45.9596 213.419C46.3409 214.697 47.0462 216.088 47.2178 215.917C47.2559 215.859 47.6181 214.563 48.0374 213C49.5053 207.415 51.7356 201.639 54.0421 197.464C55.0715 195.615 55.0906 195.539 55.0906 194.071C55.0906 191.136 56.0056 187.495 57.6449 183.949C58.1215 182.958 58.6362 181.662 58.8078 181.09C59.7609 177.945 62.6203 173.141 66.0706 168.928C66.3565 168.604 66.5471 168.319 66.509 168.338C66.4709 168.357 64.9268 168.948 63.0968 169.672Z"/>
<path d="M177.949 168.948C181.323 173.084 184.239 177.964 185.193 181.09C185.364 181.662 185.879 182.958 186.355 183.969C188.014 187.609 188.91 191.136 188.91 194.071C188.91 195.539 188.929 195.615 189.958 197.465C192.246 201.582 194.533 207.51 195.963 213C196.382 214.563 196.744 215.859 196.783 215.917C196.954 216.088 197.659 214.697 198.041 213.419C198.765 211.056 199.051 208.787 199.146 204.441C199.261 199.885 199.203 199.447 198.022 194.72C196.134 187.076 192.818 179.699 188.7 173.961C187.69 172.55 187.633 172.512 185.764 171.673C184.716 171.197 182.409 170.263 180.656 169.596L177.453 168.357L177.949 168.948Z"/>
<path d="M100.193 194.643C98.3246 197.789 93.864 202.84 91.4811 204.537C90.833 205.013 89.5177 206.1 88.5836 206.977C85.953 209.417 82.6361 211.456 79.9674 212.276C78.9189 212.6 78.6139 212.848 76.1549 215.307C72.3614 219.081 67.5196 222.912 63.2496 225.467C62.4299 225.962 61.7627 226.42 61.7627 226.477C61.7627 226.973 65.8993 226.954 68.568 226.439C72.7427 225.657 76.7839 224.323 79.2049 222.97C86.5821 218.833 93.0061 213.496 97.8289 207.529C100.212 204.537 100.212 204.556 100.46 202.059C100.688 199.523 101.031 193.614 100.955 193.519C100.917 193.5 100.574 193.995 100.193 194.643Z"/>
<path d="M143.064 195.044C143.121 195.921 143.255 197.903 143.35 199.485C143.674 204.346 143.655 204.213 144.875 205.871C149.793 212.485 156.732 218.452 164.796 222.97C167.217 224.323 171.258 225.657 175.432 226.439C178.101 226.954 182.238 226.973 182.238 226.477C182.238 226.42 181.571 225.962 180.77 225.467C176.5 222.912 171.639 219.1 167.846 215.307C165.387 212.867 165.082 212.6 164.033 212.276C161.364 211.437 158.047 209.397 155.417 206.977C154.483 206.1 153.187 205.013 152.538 204.556C150.117 202.84 145.695 197.827 143.808 194.662C143.426 194.014 143.083 193.481 143.026 193.481C142.988 193.481 143.007 194.186 143.064 195.044Z"/>
</mask>
<path d="M111.649 13.9534C109.018 15.3831 103.261 21.8833 101.451 25.467C97.5618 33.2062 94.9312 43.7476 94.9312 51.7346V53.9839L96.2465 56.2142C96.9708 57.4342 98.2671 59.4929 99.1249 60.8082L100.688 63.1909L100.574 60.9988C100.345 57.072 101.031 50.7815 101.984 48.1509C102.175 47.6172 102.48 46.4544 102.651 45.5585C103.357 41.8413 104.939 37.8192 106.521 35.7605C106.902 35.2458 107.284 34.7312 107.341 34.6168C107.417 34.5024 107.646 33.0728 107.875 31.4525C108.523 26.6298 110.029 21.1208 112.106 15.8597C112.621 14.5825 113.041 13.4769 113.041 13.4388C113.041 13.2482 112.736 13.3625 111.649 13.9534Z" stroke="black" stroke-width="2" mask="url(#path-4-inside-3_29_20)"/>
<path d="M130.959 13.4388C130.959 13.4769 131.379 14.5825 131.894 15.8597C133.971 21.1208 135.477 26.6298 136.125 31.4525C136.354 33.0728 136.583 34.5024 136.659 34.6168C136.716 34.7312 137.098 35.2458 137.479 35.7605C139.042 37.8002 140.624 41.8032 141.368 45.5585C141.539 46.4544 141.882 47.7697 142.111 48.5131C143.045 51.3533 143.636 56.8432 143.426 60.8082L143.312 63.1909L145.161 60.3507C146.171 58.7876 147.468 56.7098 148.039 55.7186L149.069 53.9267V51.7727C149.069 43.9954 146.8 34.5405 142.95 26.3438C141.082 22.3598 135.153 15.4403 132.37 13.9534C131.207 13.3435 130.959 13.2672 130.959 13.4388Z" stroke="black" stroke-width="2" mask="url(#path-4-inside-3_29_20)"/>
<path d="M99.0296 76.4391C99.5061 78.0404 101.47 82.6534 102.671 85.0171C106.788 93.1757 112.888 99.9427 120.627 104.937L122.019 105.833L124.154 104.384C131.817 99.2375 137.46 92.8135 141.52 84.6359C142.873 81.91 145.199 76.3057 145.027 76.1532C144.989 76.1342 143.369 77.5257 141.406 79.2794C138.356 81.9672 137.726 82.6153 137.231 83.5874C135.382 87.2092 130.216 92.0892 124.116 95.9588C123.01 96.645 122.057 97.2169 122 97.2169C121.943 97.2169 120.99 96.645 119.884 95.9588C113.746 92.051 108.408 86.9996 106.655 83.4349C106.254 82.5962 105.682 81.9672 104.024 80.4994C102.842 79.4891 101.203 78.0404 100.383 77.316C99.2011 76.2485 98.9152 76.077 99.0296 76.4391Z" stroke="black" stroke-width="2" mask="url(#path-4-inside-3_29_20)"/>
<path d="M35.933 76.4391C31.5105 76.706 29.8521 76.9919 26.8783 77.9641C21.9221 79.6034 18.0143 81.5668 16.2796 83.2824C15.803 83.7399 15.4599 84.1402 15.498 84.1974C15.5552 84.2355 17.2899 84.1783 19.3868 84.083C25.0483 83.7971 30.1761 84.1211 35.2086 85.0361L37.3436 85.4364L38.4493 85.0552C40.5271 84.3499 41.7661 84.1783 45.083 84.1783C53.8518 84.1402 60.2186 85.1886 65.823 87.5714C66.2043 87.7429 66.5283 87.8382 66.5283 87.762C66.5283 87.5714 61.6483 81.7002 60.4855 80.4993C59.418 79.3937 59.3227 79.3365 57.283 78.7456C52.4221 77.3731 48.743 76.7441 43.6533 76.4391C40.0124 76.2294 39.6121 76.2294 35.933 76.4391Z" stroke="black" stroke-width="2" mask="url(#path-4-inside-3_29_20)"/>
<path d="M199.775 76.4391C195.295 76.7441 191.273 77.4494 186.717 78.7456C184.677 79.3365 184.582 79.3937 183.514 80.4993C182.352 81.7002 177.472 87.5714 177.472 87.762C177.472 87.8382 177.796 87.7429 178.196 87.5714C183.781 85.1886 190.148 84.1402 198.917 84.1783C202.234 84.1783 203.473 84.3499 205.551 85.0552L206.656 85.4364L208.791 85.0361C213.824 84.1211 218.952 83.7971 224.613 84.083C226.71 84.1783 228.445 84.2355 228.483 84.1974C228.521 84.1592 228.178 83.7399 227.701 83.2824C225.986 81.5668 222.097 79.6034 217.084 77.945C214.701 77.1634 213.843 76.9728 211.555 76.7441C207.895 76.3628 202.92 76.2484 199.775 76.4391Z" stroke="black" stroke-width="2" mask="url(#path-4-inside-3_29_20)"/>
<path d="M79.5288 90.3545C79.586 90.507 80.4248 92.4894 81.397 94.7387C83.0173 98.513 83.2651 98.9324 84.3135 100.057C87.2873 103.26 89.7654 108.444 91.7098 115.516C92.2626 117.556 92.4532 118.528 92.3198 118.738C91.9957 119.272 88.0307 122.379 85.5907 123.999C81.3398 126.82 77.9085 128.422 74.9348 128.936C73.5051 129.184 73.1048 129.356 69.4448 131.529C67.2526 132.825 65.4226 133.93 65.3463 134.007C64.8507 134.426 73.6195 133.625 77.0126 132.939C84.9807 131.338 92.7773 127.716 98.8201 122.798C99.5635 122.207 100.269 121.616 100.402 121.521C100.612 121.369 100.574 121.064 100.269 119.901C97.0092 107.949 91.0426 99.1993 80.6345 91.0216C79.9673 90.507 79.4717 90.202 79.5288 90.3545Z" stroke="black" stroke-width="2" mask="url(#path-4-inside-3_29_20)"/>
<path d="M162.031 92.1082C153.072 99.3709 147.391 107.701 144.246 118.185C143.884 119.386 143.541 120.587 143.483 120.854C143.369 121.292 143.56 121.502 144.951 122.627C152.767 128.917 162.05 132.691 172.23 133.702C175.47 134.026 178.883 134.178 178.654 134.007C178.578 133.931 176.748 132.825 174.555 131.529C170.895 129.356 170.495 129.184 169.065 128.936C166.092 128.422 162.66 126.82 158.409 123.999C155.969 122.379 152.004 119.272 151.68 118.738C151.547 118.528 151.738 117.556 152.29 115.516C154.235 108.444 156.713 103.26 159.687 100.057C160.754 98.9324 160.983 98.5131 162.679 94.5672C163.69 92.2226 164.49 90.2782 164.452 90.2401C164.433 90.2211 163.328 91.0598 162.031 92.1082Z" stroke="black" stroke-width="2" mask="url(#path-4-inside-3_29_20)"/>
<path d="M9.9126 101.83C9.9126 104.041 12.6195 109.321 16.1842 114.068C18.7957 117.537 25.9251 123.122 31.9488 126.458C34.3888 127.792 38.4301 129.584 40.851 130.385C42.4142 130.9 42.8717 130.976 43.7104 130.881C44.6254 130.747 50.0392 129.413 52.422 128.727L53.4704 128.422L51.202 127.773C46.8367 126.534 41.4801 124.133 39.6501 122.569C39.2879 122.245 38.411 121.712 37.7248 121.349C34.4079 119.615 30.5001 116.412 29.1657 114.316C28.5367 113.324 28.3651 113.21 26.0395 112.066C20.8735 109.55 15.841 106.214 10.9229 102.02L9.9126 101.182V101.83Z" stroke="black" stroke-width="2" mask="url(#path-4-inside-3_29_20)"/>
<path d="M233.325 101.83C228.216 106.176 223.279 109.474 217.961 112.066C215.845 113.096 215.425 113.382 215.063 113.991C213.805 116.184 209.84 119.481 206.161 121.407C205.532 121.731 204.712 122.245 204.35 122.569C202.52 124.133 197.164 126.534 192.798 127.773L190.53 128.422L191.578 128.727C193.961 129.413 199.375 130.747 200.29 130.881C201.129 130.976 201.586 130.9 203.149 130.385C207.343 128.993 212.661 126.325 216.817 123.542C221.106 120.644 225.948 116.546 227.568 114.373C231.438 109.245 234.297 103.641 234.049 101.715L233.992 101.258L233.325 101.83Z" stroke="black" stroke-width="2" mask="url(#path-4-inside-3_29_20)"/>
<path d="M100.116 146.416C95.8081 146.721 90.7947 147.808 86.62 149.352C83.8178 150.381 78.5947 153.012 75.6781 154.88C72.9903 156.595 72.1897 157.205 72.914 156.996C73.1237 156.938 75.3159 156.71 77.775 156.5C81.74 156.138 82.35 156.043 83.0553 155.623C84.2753 154.918 87.0394 154.06 89.5175 153.622C92.11 153.164 98.9153 152.935 101.984 153.202L103.795 153.355L104.482 155.089C107.379 162.333 108.694 168.909 108.103 173.217L107.875 174.895L108.904 179.47C109.781 183.263 109.991 183.969 110.143 183.568C110.753 182.005 112.011 176.458 112.507 173.179C112.907 170.492 112.85 161.933 112.412 159.169C111.935 156.157 110.772 151.734 109.724 148.856L108.828 146.454L106.693 146.34C104.215 146.187 103.071 146.206 100.116 146.416Z" stroke="black" stroke-width="2" mask="url(#path-4-inside-3_29_20)"/>
<path d="M136.64 146.34L135.191 146.416L134.295 148.837C133.266 151.62 132.103 156.043 131.588 159.073C131.15 161.723 131.093 170.473 131.493 173.179C131.989 176.458 133.247 182.005 133.857 183.568C134.009 183.969 134.219 183.263 135.077 179.47L136.125 174.895L135.897 173.275C135.306 168.948 136.621 162.333 139.518 155.089L140.205 153.355L142.016 153.202C145.085 152.935 151.89 153.164 154.482 153.622C156.961 154.06 159.725 154.918 160.945 155.623C161.65 156.043 162.26 156.138 166.225 156.5C168.684 156.71 170.876 156.938 171.086 156.996C172.458 157.358 166.358 153.545 162.508 151.639C156.027 148.437 150.403 146.893 143.445 146.397C140.872 146.226 139.785 146.207 136.64 146.34Z" stroke="black" stroke-width="2" mask="url(#path-4-inside-3_29_20)"/>
<path d="M63.0968 169.672C61.2668 170.396 58.9984 171.33 58.0453 171.75C56.4249 172.493 56.2724 172.607 55.3384 173.904C51.1828 179.718 47.8849 187.018 45.9787 194.72C44.7968 199.447 44.7396 199.885 44.854 204.441C44.9493 208.787 45.2353 211.056 45.9596 213.419C46.3409 214.697 47.0462 216.088 47.2178 215.917C47.2559 215.859 47.6181 214.563 48.0374 213C49.5053 207.415 51.7356 201.639 54.0421 197.464C55.0715 195.615 55.0906 195.539 55.0906 194.071C55.0906 191.136 56.0056 187.495 57.6449 183.949C58.1215 182.958 58.6362 181.662 58.8078 181.09C59.7609 177.945 62.6203 173.141 66.0706 168.928C66.3565 168.604 66.5471 168.319 66.509 168.338C66.4709 168.357 64.9268 168.948 63.0968 169.672Z" stroke="black" stroke-width="2" mask="url(#path-4-inside-3_29_20)"/>
<path d="M177.949 168.948C181.323 173.084 184.239 177.964 185.193 181.09C185.364 181.662 185.879 182.958 186.355 183.969C188.014 187.609 188.91 191.136 188.91 194.071C188.91 195.539 188.929 195.615 189.958 197.465C192.246 201.582 194.533 207.51 195.963 213C196.382 214.563 196.744 215.859 196.783 215.917C196.954 216.088 197.659 214.697 198.041 213.419C198.765 211.056 199.051 208.787 199.146 204.441C199.261 199.885 199.203 199.447 198.022 194.72C196.134 187.076 192.818 179.699 188.7 173.961C187.69 172.55 187.633 172.512 185.764 171.673C184.716 171.197 182.409 170.263 180.656 169.596L177.453 168.357L177.949 168.948Z" stroke="black" stroke-width="2" mask="url(#path-4-inside-3_29_20)"/>
<path d="M100.193 194.643C98.3246 197.789 93.864 202.84 91.4811 204.537C90.833 205.013 89.5177 206.1 88.5836 206.977C85.953 209.417 82.6361 211.456 79.9674 212.276C78.9189 212.6 78.6139 212.848 76.1549 215.307C72.3614 219.081 67.5196 222.912 63.2496 225.467C62.4299 225.962 61.7627 226.42 61.7627 226.477C61.7627 226.973 65.8993 226.954 68.568 226.439C72.7427 225.657 76.7839 224.323 79.2049 222.97C86.5821 218.833 93.0061 213.496 97.8289 207.529C100.212 204.537 100.212 204.556 100.46 202.059C100.688 199.523 101.031 193.614 100.955 193.519C100.917 193.5 100.574 193.995 100.193 194.643Z" stroke="black" stroke-width="2" mask="url(#path-4-inside-3_29_20)"/>
<path d="M143.064 195.044C143.121 195.921 143.255 197.903 143.35 199.485C143.674 204.346 143.655 204.213 144.875 205.871C149.793 212.485 156.732 218.452 164.796 222.97C167.217 224.323 171.258 225.657 175.432 226.439C178.101 226.954 182.238 226.973 182.238 226.477C182.238 226.42 181.571 225.962 180.77 225.467C176.5 222.912 171.639 219.1 167.846 215.307C165.387 212.867 165.082 212.6 164.033 212.276C161.364 211.437 158.047 209.397 155.417 206.977C154.483 206.1 153.187 205.013 152.538 204.556C150.117 202.84 145.695 197.827 143.808 194.662C143.426 194.014 143.083 193.481 143.026 193.481C142.988 193.481 143.007 194.186 143.064 195.044Z" stroke="black" stroke-width="2" mask="url(#path-4-inside-3_29_20)"/>
</g>
<defs>
<clipPath id="clip0_29_20">
<rect width="244" height="243.233" fill="white"/>
</clipPath>
</defs>
</svg>
