<svg width="24" height="24" viewBox="0 0 24 24" fill="none" xmlns="http://www.w3.org/2000/svg">
<path d="M19.5398 5.08002C18.5372 4.08445 17.3458 3.29917 16.0355 2.77026C14.7253 2.24136 13.3226 1.97949 11.9098 2.00002C9.25763 1.99339 6.71146 3.0406 4.83141 4.91128C2.95135 6.78195 1.89143 9.32286 1.8848 11.975C1.87817 14.6272 2.92538 17.1734 4.79605 19.0534C6.66673 20.9335 9.20763 21.9934 11.8598 22C12.4313 22.0097 12.9898 21.8294 13.4477 21.4873C13.9057 21.1453 14.237 20.6608 14.3898 20.11C14.4872 19.7123 14.4862 19.2968 14.3869 18.8995C14.2875 18.5022 14.0929 18.1351 13.8198 17.83C13.7566 17.7582 13.7154 17.6697 13.7011 17.5751C13.6867 17.4805 13.6998 17.3838 13.7387 17.2964C13.7777 17.209 13.8409 17.1347 13.9208 17.0821C14.0008 17.0296 14.0941 17.0011 14.1898 17H15.8398C17.3927 17.0073 18.8909 16.4268 20.0336 15.375C21.1762 14.3233 21.8786 12.8783 21.9998 11.33C22.037 10.1756 21.838 9.02581 21.415 7.95108C20.992 6.87635 20.3539 5.89935 19.5398 5.08002V5.08002ZM15.8798 15H14.2298C13.7479 14.9973 13.2756 15.1344 12.8701 15.3948C12.4647 15.6552 12.1435 16.0277 11.9455 16.467C11.7476 16.9064 11.6813 17.3937 11.7549 17.87C11.8284 18.3462 12.0385 18.7909 12.3598 19.15C12.4224 19.2131 12.4666 19.2921 12.4877 19.3784C12.5088 19.4647 12.5061 19.5551 12.4798 19.64C12.4298 19.85 12.1998 19.98 11.8898 20C10.7541 19.9855 9.63456 19.7293 8.60558 19.2484C7.57661 18.7676 6.66181 18.0732 5.92204 17.2114C5.18226 16.3496 4.63447 15.3401 4.31511 14.2502C3.99574 13.1602 3.91212 12.0148 4.0698 10.89C4.35496 8.99997 5.29935 7.27165 6.73593 6.01076C8.17251 4.74986 10.0087 4.03763 11.9198 4.00002H11.9998C13.1306 3.98522 14.253 4.19703 15.3007 4.62296C16.3483 5.0489 17.3001 5.68034 18.0998 6.48002C18.7238 7.10442 19.2141 7.84938 19.5407 8.66947C19.8674 9.48956 20.0236 10.3676 19.9998 11.25C19.8963 12.2731 19.4184 13.2218 18.6579 13.914C17.8974 14.6061 16.9081 14.9929 15.8798 15V15Z" fill="white"/>
<path d="M12 8C12.8284 8 13.5 7.32843 13.5 6.5C13.5 5.67157 12.8284 5 12 5C11.1716 5 10.5 5.67157 10.5 6.5C10.5 7.32843 11.1716 8 12 8Z" fill="white"/>
<path d="M15.2496 7.20004C14.9928 7.3484 14.7857 7.56957 14.6546 7.8356C14.5234 8.10162 14.4741 8.40056 14.5128 8.69463C14.5515 8.98869 14.6765 9.26468 14.872 9.48772C15.0675 9.71075 15.3248 9.87081 15.6112 9.94767C15.8977 10.0245 16.2005 10.0147 16.4814 9.91952C16.7623 9.82431 17.0087 9.64796 17.1894 9.41276C17.3701 9.17755 17.477 8.89406 17.4967 8.59811C17.5163 8.30216 17.4477 8.00703 17.2996 7.75004C17.2012 7.57924 17.0701 7.42951 16.9138 7.30942C16.7575 7.18932 16.579 7.10122 16.3886 7.05014C16.1982 6.99906 15.9996 6.986 15.8042 7.01173C15.6088 7.03745 15.4203 7.10144 15.2496 7.20004V7.20004ZM8.74963 7.20004C8.49264 7.05196 8.19751 6.9834 7.90156 7.00302C7.60561 7.02264 7.32212 7.12955 7.08691 7.31025C6.85171 7.49095 6.67536 7.73732 6.58015 8.01823C6.48494 8.29913 6.47515 8.60196 6.552 8.88843C6.62886 9.1749 6.78892 9.43215 7.01195 9.62767C7.23499 9.8232 7.51098 9.94821 7.80504 9.98691C8.09911 10.0256 8.39805 9.97627 8.66407 9.84511C8.9301 9.71395 9.15127 9.50687 9.29963 9.25004C9.39823 9.07935 9.46222 8.8909 9.48794 8.69546C9.51366 8.50002 9.50061 8.30143 9.44953 8.11104C9.39845 7.92065 9.31035 7.7422 9.19025 7.58588C9.07016 7.42956 8.92043 7.29845 8.74963 7.20004V7.20004ZM6.15963 11.26C5.9136 11.4262 5.72239 11.6616 5.61022 11.9364C5.49805 12.2113 5.46996 12.5132 5.52951 12.8041C5.58906 13.0949 5.73356 13.3615 5.94473 13.5702C6.1559 13.7788 6.42423 13.9201 6.71575 13.9762C7.00728 14.0323 7.30888 14.0006 7.58238 13.8851C7.85587 13.7697 8.08896 13.5756 8.25213 13.3276C8.4153 13.0796 8.50121 12.7888 8.49898 12.4919C8.49676 12.1951 8.4065 11.9056 8.23963 11.66C8.13001 11.4964 7.98902 11.3561 7.82484 11.2473C7.66065 11.1385 7.47651 11.0633 7.28308 11.0261C7.08965 10.9889 6.89077 10.9904 6.69793 11.0306C6.50509 11.0707 6.32213 11.1487 6.15963 11.26V11.26Z" fill="white"/>
</svg>
