<svg width="40" height="40" viewBox="0 0 40 40" fill="none" xmlns="http://www.w3.org/2000/svg">
<path d="M25 11.25C25.6904 11.25 26.25 10.6904 26.25 10C26.25 9.30964 25.6904 8.75 25 8.75C24.3096 8.75 23.75 9.30964 23.75 10C23.75 10.6904 24.3096 11.25 25 11.25Z" fill="#FF0000" fill-opacity="0.5"/>
<path d="M28.75 11.25C29.4404 11.25 30 10.6904 30 10C30 9.30964 29.4404 8.75 28.75 8.75C28.0596 8.75 27.5 9.30964 27.5 10C27.5 10.6904 28.0596 11.25 28.75 11.25Z" fill="#FF0000" fill-opacity="0.5"/>
<path d="M32.5 11.25C33.1904 11.25 33.75 10.6904 33.75 10C33.75 9.30964 33.1904 8.75 32.5 8.75C31.8096 8.75 31.25 9.30964 31.25 10C31.25 10.6904 31.8096 11.25 32.5 11.25Z" fill="#FF0000" fill-opacity="0.5"/>
<path d="M35 5H5C4.33716 5.00066 3.70166 5.26427 3.23296 5.73296C2.76427 6.20166 2.50066 6.83716 2.5 7.5V32.5C2.50066 33.1628 2.76427 33.7983 3.23296 34.267C3.70166 34.7357 4.33716 34.9993 5 35H35C35.6628 34.9993 36.2983 34.7357 36.767 34.267C37.2357 33.7983 37.4993 33.1628 37.5 32.5V7.5C37.4993 6.83716 37.2357 6.20166 36.767 5.73296C36.2983 5.26427 35.6628 5.00066 35 5V5ZM35 7.5V12.5H5V7.5H35ZM5 15H12.5V32.5H5V15ZM15 32.5V15H35V32.5H15Z" fill="#FF0000" fill-opacity="0.5"/>
</svg>
