<svg width="40" height="40" viewBox="0 0 40 40" fill="none" xmlns="http://www.w3.org/2000/svg">
<path fill-rule="evenodd" clip-rule="evenodd" d="M1.6665 4.73009C1.6665 3.91764 1.98925 3.13847 2.56373 2.56398C3.13822 1.9895 3.91739 1.66675 4.72984 1.66675H35.2665C35.6691 1.66609 36.0679 1.74486 36.4401 1.89853C36.8122 2.0522 37.1504 2.27777 37.4353 2.56231C37.7201 2.84686 37.946 3.18479 38.1001 3.55677C38.2542 3.92875 38.3334 4.32746 38.3332 4.73009V35.2668C38.3336 35.6695 38.2546 36.0683 38.1008 36.4404C37.9469 36.8126 37.7212 37.1508 37.4365 37.4356C37.1519 37.7204 36.8138 37.9463 36.4417 38.1004C36.0697 38.2545 35.6709 38.3336 35.2682 38.3334H4.72984C4.32741 38.3334 3.92893 38.2541 3.55717 38.1001C3.1854 37.946 2.84762 37.7202 2.56314 37.4356C2.27867 37.151 2.05306 36.8131 1.89921 36.4412C1.74536 36.0694 1.66629 35.6708 1.6665 35.2684V4.73009ZM16.1798 15.6468H21.1448V18.1401C21.8615 16.7068 23.6948 15.4168 26.4498 15.4168C31.7315 15.4168 32.9832 18.2718 32.9832 23.5101V33.2134H27.6382V24.7034C27.6382 21.7201 26.9215 20.0368 25.1015 20.0368C22.5765 20.0368 21.5265 21.8518 21.5265 24.7034V33.2134H16.1798V15.6468ZM7.01317 32.9851H12.3598V15.4168H7.01317V32.9834V32.9851ZM13.1248 9.68675C13.1349 10.1445 13.0535 10.5997 12.8852 11.0256C12.717 11.4515 12.4654 11.8395 12.1452 12.1668C11.825 12.4941 11.4427 12.7542 11.0206 12.9318C10.5985 13.1093 10.1452 13.2008 9.68734 13.2008C9.22944 13.2008 8.77615 13.1093 8.35408 12.9318C7.93201 12.7542 7.54965 12.4941 7.22945 12.1668C6.90925 11.8395 6.65766 11.4515 6.48944 11.0256C6.32122 10.5997 6.23976 10.1445 6.24984 9.68675C6.26962 8.78818 6.64048 7.93307 7.28298 7.30456C7.92548 6.67605 8.78854 6.32411 9.68734 6.32411C10.5861 6.32411 11.4492 6.67605 12.0917 7.30456C12.7342 7.93307 13.1051 8.78818 13.1248 9.68675V9.68675Z" fill="black"/>
</svg>
