<svg width="173" height="36" viewBox="0 0 173 36" fill="none" xmlns="http://www.w3.org/2000/svg">
<ellipse cx="13" cy="12.5" rx="13" ry="12.5" fill="#FF0000" fill-opacity="0.5"/>
<circle cx="33" cy="14" r="13" fill="#FED001" fill-opacity="0.5"/>
<circle cx="22" cy="25" r="11" fill="#3C46B3" fill-opacity="0.5"/>
<path d="M66.84 28L61.032 20.392L59.184 22.36V28H55.92V10.36H59.184V18.256L66.24 10.36H70.344L63.312 18.112L70.872 28H66.84ZM72.2353 16.936C73.5313 15.688 75.1633 15.064 77.1313 15.064C79.0993 15.064 80.7233 15.688 82.0033 16.936C83.2993 18.184 83.9473 19.776 83.9473 21.712C83.9473 23.648 83.2993 25.24 82.0033 26.488C80.7233 27.736 79.0993 28.36 77.1313 28.36C75.1633 28.36 73.5313 27.736 72.2353 26.488C70.9553 25.24 70.3153 23.648 70.3153 21.712C70.3153 19.776 70.9553 18.184 72.2353 16.936ZM79.6993 18.952C79.0273 18.264 78.1713 17.92 77.1313 17.92C76.0913 17.92 75.2353 18.264 74.5633 18.952C73.8913 19.64 73.5553 20.56 73.5553 21.712C73.5553 22.864 73.8913 23.784 74.5633 24.472C75.2353 25.16 76.0913 25.504 77.1313 25.504C78.1713 25.504 79.0273 25.16 79.6993 24.472C80.3713 23.784 80.7073 22.864 80.7073 21.712C80.7073 20.56 80.3713 19.64 79.6993 18.952ZM85.716 10.36H88.836V28H85.716V10.36ZM92.5219 16.936C93.8179 15.688 95.4499 15.064 97.4179 15.064C99.3859 15.064 101.01 15.688 102.29 16.936C103.586 18.184 104.234 19.776 104.234 21.712C104.234 23.648 103.586 25.24 102.29 26.488C101.01 27.736 99.3859 28.36 97.4179 28.36C95.4499 28.36 93.8179 27.736 92.5219 26.488C91.2419 25.24 90.6019 23.648 90.6019 21.712C90.6019 19.776 91.2419 18.184 92.5219 16.936ZM99.9859 18.952C99.3139 18.264 98.4579 17.92 97.4179 17.92C96.3779 17.92 95.5219 18.264 94.8499 18.952C94.1779 19.64 93.8419 20.56 93.8419 21.712C93.8419 22.864 94.1779 23.784 94.8499 24.472C95.5219 25.16 96.3779 25.504 97.4179 25.504C98.4579 25.504 99.3139 25.16 99.9859 24.472C100.658 23.784 100.994 22.864 100.994 21.712C100.994 20.56 100.658 19.64 99.9859 18.952ZM112.315 15.208C112.811 15.208 113.227 15.272 113.563 15.4V18.448C113.019 18.288 112.483 18.208 111.955 18.208C111.043 18.208 110.323 18.536 109.795 19.192C109.267 19.848 109.003 20.776 109.003 21.976V28H105.883V15.52H109.003V17.392C109.739 15.936 110.843 15.208 112.315 15.208ZM125.642 18.712C126.458 19.016 127.13 19.552 127.658 20.32C128.186 21.072 128.45 21.888 128.45 22.768C128.45 24.432 127.914 25.72 126.842 26.632C125.786 27.544 124.306 28 122.402 28H115.25V10.36H122.09C123.818 10.36 125.194 10.784 126.218 11.632C127.258 12.464 127.778 13.664 127.778 15.232C127.778 15.936 127.578 16.616 127.178 17.272C126.794 17.928 126.282 18.408 125.642 18.712ZM122.114 13.288H118.514V17.56H121.994C122.826 17.56 123.458 17.376 123.89 17.008C124.322 16.64 124.538 16.104 124.538 15.4C124.538 14.728 124.322 14.208 123.89 13.84C123.458 13.472 122.866 13.288 122.114 13.288ZM122.474 25.072C123.37 25.072 124.042 24.864 124.49 24.448C124.954 24.032 125.186 23.456 125.186 22.72C125.186 22.016 124.954 21.456 124.49 21.04C124.026 20.608 123.426 20.392 122.69 20.392H118.514V25.072H122.474ZM131.706 16.936C133.002 15.688 134.634 15.064 136.602 15.064C138.57 15.064 140.194 15.688 141.474 16.936C142.77 18.184 143.418 19.776 143.418 21.712C143.418 23.648 142.77 25.24 141.474 26.488C140.194 27.736 138.57 28.36 136.602 28.36C134.634 28.36 133.002 27.736 131.706 26.488C130.426 25.24 129.786 23.648 129.786 21.712C129.786 19.776 130.426 18.184 131.706 16.936ZM139.17 18.952C138.498 18.264 137.642 17.92 136.602 17.92C135.562 17.92 134.706 18.264 134.034 18.952C133.362 19.64 133.026 20.56 133.026 21.712C133.026 22.864 133.362 23.784 134.034 24.472C134.706 25.16 135.562 25.504 136.602 25.504C137.642 25.504 138.498 25.16 139.17 24.472C139.842 23.784 140.178 22.864 140.178 21.712C140.178 20.56 139.842 19.64 139.17 18.952ZM146.29 16.936C147.586 15.688 149.218 15.064 151.186 15.064C153.154 15.064 154.778 15.688 156.058 16.936C157.354 18.184 158.002 19.776 158.002 21.712C158.002 23.648 157.354 25.24 156.058 26.488C154.778 27.736 153.154 28.36 151.186 28.36C149.218 28.36 147.586 27.736 146.29 26.488C145.01 25.24 144.37 23.648 144.37 21.712C144.37 19.776 145.01 18.184 146.29 16.936ZM153.754 18.952C153.082 18.264 152.226 17.92 151.186 17.92C150.146 17.92 149.29 18.264 148.618 18.952C147.946 19.64 147.61 20.56 147.61 21.712C147.61 22.864 147.946 23.784 148.618 24.472C149.29 25.16 150.146 25.504 151.186 25.504C152.226 25.504 153.082 25.16 153.754 24.472C154.426 23.784 154.762 22.864 154.762 21.712C154.762 20.56 154.426 19.64 153.754 18.952ZM168.051 28L164.187 22.84L162.891 24.088V28H159.771V10.36H162.891V20.104L167.571 15.52H171.747L166.371 20.728L171.867 28H168.051Z" fill="black"/>
</svg>
