<svg width="40" height="40" viewBox="0 0 40 40" fill="none" xmlns="http://www.w3.org/2000/svg">
<path d="M32.5667 8.46662C30.8956 6.80733 28.9099 5.49853 26.7262 4.61702C24.5425 3.73552 22.2047 3.29907 19.85 3.33329C15.4297 3.32224 11.1861 5.06759 8.05267 8.18538C4.91925 11.3032 3.1527 15.538 3.14165 19.9583C3.1306 24.3786 4.87595 28.6222 7.99374 31.7556C11.1115 34.889 15.3464 36.6556 19.7667 36.6666C20.7191 36.6828 21.6501 36.3823 22.4132 35.8121C23.1764 35.242 23.7287 34.4346 23.9833 33.5166C24.1456 32.8537 24.144 32.1612 23.9784 31.4991C23.8129 30.837 23.4885 30.2252 23.0333 29.7166C22.9281 29.5968 22.8594 29.4494 22.8354 29.2917C22.8115 29.1341 22.8333 28.9729 22.8982 28.8273C22.9631 28.6816 23.0685 28.5577 23.2017 28.4701C23.335 28.3826 23.4905 28.3351 23.65 28.3333H26.4C28.9882 28.3454 31.4852 27.3779 33.3896 25.625C35.294 23.8721 36.4647 21.4637 36.6667 18.8833C36.7287 16.9593 36.397 15.0429 35.6919 13.2517C34.9869 11.4605 33.9234 9.83218 32.5667 8.46662V8.46662ZM11.4 24.5666C10.9908 24.8447 10.5082 24.9952 10.0135 24.9989C9.51872 25.0026 9.03398 24.8594 8.62064 24.5875C8.20731 24.3155 7.88396 23.927 7.69154 23.4712C7.49912 23.0154 7.44629 22.5127 7.53972 22.0268C7.63316 21.541 7.86867 21.0937 8.21643 20.7418C8.56419 20.3898 9.00856 20.149 9.49328 20.0498C9.978 19.9505 10.4813 19.9973 10.9394 20.1843C11.3975 20.3712 11.7898 20.6899 12.0667 21.1C12.2522 21.3708 12.3822 21.6757 12.4491 21.9971C12.516 22.3185 12.5186 22.65 12.4566 22.9724C12.3946 23.2948 12.2693 23.6017 12.0879 23.8753C11.9066 24.1489 11.6727 24.3839 11.4 24.5666V24.5666ZM13.8333 15.4166C13.5962 15.8558 13.233 16.214 12.7906 16.445C12.3481 16.676 11.8466 16.7693 11.3507 16.7128C10.8548 16.6564 10.3871 16.4527 10.0079 16.1282C9.6287 15.8036 9.35533 15.373 9.22298 14.8918C9.09063 14.4105 9.10537 13.9006 9.2653 13.4278C9.42523 12.955 9.72303 12.5409 10.1204 12.2388C10.5177 11.9367 10.9963 11.7604 11.4947 11.7327C11.993 11.705 12.4883 11.8271 12.9167 12.0833C13.4694 12.4139 13.8732 12.945 14.044 13.566C14.2148 14.187 14.1393 14.8499 13.8333 15.4166V15.4166ZM18.3333 11.6666C17.8389 11.6666 17.3555 11.52 16.9444 11.2453C16.5333 10.9706 16.2128 10.5801 16.0236 10.1233C15.8344 9.66651 15.7849 9.16385 15.8814 8.6789C15.9778 8.19394 16.2159 7.74849 16.5656 7.39885C16.9152 7.04922 17.3606 6.81112 17.8456 6.71466C18.3305 6.61819 18.8332 6.6677 19.29 6.85692C19.7468 7.04614 20.1373 7.36657 20.412 7.7777C20.6867 8.18882 20.8333 8.67217 20.8333 9.16662C20.8333 9.82966 20.5699 10.4655 20.1011 10.9344C19.6322 11.4032 18.9964 11.6666 18.3333 11.6666V11.6666ZM27.9167 13C27.4883 13.2561 26.993 13.3782 26.4947 13.3505C25.9963 13.3228 25.5177 13.1466 25.1203 12.8445C24.723 12.5424 24.4252 12.1282 24.2653 11.6554C24.1054 11.1826 24.0906 10.6727 24.223 10.1915C24.3553 9.71022 24.6287 9.2796 25.0079 8.95504C25.3871 8.63049 25.8548 8.42688 26.3507 8.37042C26.8466 8.31396 27.3481 8.40724 27.7906 8.63825C28.233 8.86926 28.5962 9.22742 28.8333 9.66662C29.1393 10.2333 29.2148 10.8963 29.044 11.5173C28.8732 12.1383 28.4694 12.6694 27.9167 13V13Z" fill="#FF0000" fill-opacity="0.5"/>
</svg>
