<svg width="35" height="35" viewBox="0 0 35 35" fill="none" xmlns="http://www.w3.org/2000/svg">
<path d="M32.6 2.40002C30.6 0.400024 27.4 0.400024 25.4 2.40002L21.8 6.00002L20.4 4.60002C19.6 3.80002 18.4 3.80002 17.6 4.60002L16 6.00002C15.2 6.80002 15.2 8.00002 16 8.80002L26 18.8C26.8 19.6 28 19.6 28.8 18.8L30.2 17.4C31 16.6 31 15.4 30.2 14.6L29 13.2L32.6 9.60003C34.6 7.60003 34.6 4.40002 32.6 2.40002V2.40002ZM5.8 22C1.4 26.4 4 28.4 0 33.6L1.4 35C6.6 31 8.6 33.6 13 29.2L23.2 19L16 11.8L5.8 22Z" fill="#FF0000" fill-opacity="0.5"/>
</svg>
