<svg width="40" height="40" viewBox="0 0 40 40" fill="none" xmlns="http://www.w3.org/2000/svg">
<g clip-path="url(#clip0_53_105)">
<path d="M41.815 4.375H5.935C5.07212 4.375 4.375 5.07212 4.375 5.935V41.815C4.375 42.6779 5.07212 43.375 5.935 43.375H41.815C42.6779 43.375 43.375 42.6779 43.375 41.815V5.935C43.375 5.07212 42.6779 4.375 41.815 4.375ZM34.3709 18.4979C34.3855 18.727 34.3855 18.9659 34.3855 19.1999C34.3855 26.3564 28.9352 34.6 18.9756 34.6C15.9044 34.6 13.0574 33.7079 10.6589 32.1722C11.0976 32.221 11.5169 32.2405 11.9654 32.2405C14.5004 32.2405 16.8306 31.3825 18.688 29.9297C16.309 29.881 14.3102 28.321 13.6277 26.176C14.4614 26.2979 15.2121 26.2979 16.0701 26.0785C14.8452 25.8296 13.7441 25.1644 12.9541 24.1957C12.1641 23.227 11.7337 22.0147 11.7362 20.7647V20.6965C12.4529 21.1011 13.2962 21.3497 14.1786 21.3839C13.4369 20.8895 12.8285 20.2198 12.4076 19.434C11.9867 18.6483 11.7661 17.7708 11.7655 16.8794C11.7655 15.8702 12.0288 14.9489 12.5016 14.1494C13.8613 15.8231 15.5579 17.1921 17.4813 18.1672C19.4046 19.1423 21.5116 19.7018 23.6654 19.8092C22.9 16.1286 25.6495 13.15 28.9547 13.15C30.5147 13.15 31.9187 13.8032 32.9084 14.8562C34.132 14.6271 35.302 14.1689 36.3452 13.5546C35.9406 14.8075 35.0924 15.8654 33.9662 16.5332C35.0582 16.4162 36.1112 16.114 37.0862 15.6899C36.3501 16.7721 35.4287 17.7325 34.3709 18.4979V18.4979Z" fill="black"/>
</g>
<defs>
<clipPath id="clip0_53_105">
<rect width="40" height="40" fill="white"/>
</clipPath>
</defs>
</svg>
